<svg width="800" height="800" viewBox="0 0 800 800" fill="none" xmlns="http://www.w3.org/2000/svg">
<path d="M367.316 613.664C358.298 613.664 350.989 620.973 350.989 629.991V637.3C350.989 646.317 358.298 653.627 367.316 653.627C376.331 653.627 383.642 646.317 383.642 637.3V629.991C383.642 620.973 376.333 613.664 367.316 613.664Z" fill="white" fill-opacity="0.188235"/>
<path d="M770.231 489.62L721.18 449.222C723.648 432.972 724.898 416.459 724.898 400C724.898 383.541 723.648 367.025 721.178 350.775L770.231 310.375C785.906 297.466 789.911 275.344 779.761 257.781L713.047 142.233C705.697 129.462 691.986 121.53 677.261 121.53C672.277 121.53 667.377 122.425 662.727 124.178L603.181 146.481C577.328 125.722 548.731 109.186 517.947 97.2L507.505 34.5719C504.181 14.5406 487.033 0 466.725 0H333.275C312.969 0 295.819 14.5422 292.5 34.5609L282.056 97.1984C251.27 109.188 222.67 125.722 196.817 146.483L137.341 124.206C132.655 122.428 127.747 121.527 122.75 121.527C108.041 121.527 94.3266 129.455 86.9641 142.216L20.2422 257.778C10.0875 275.347 14.0937 297.47 29.7687 310.378L78.8219 350.777C76.3531 367.027 75.1031 383.541 75.1031 400C75.1031 416.459 76.3531 432.973 78.8219 449.223L29.7687 489.623C14.0937 502.533 10.0891 524.655 20.2391 542.217L86.9625 657.784C94.3312 670.552 108.044 678.483 122.75 678.483C127.758 678.483 132.675 677.575 137.272 675.822L196.814 653.517C222.669 674.278 251.267 690.814 282.05 702.8L292.491 765.417C295.806 785.456 312.958 800 333.277 800H466.727C487.025 800 504.175 785.462 507.502 765.441L517.944 702.802C548.733 690.812 577.331 674.278 603.184 653.517L662.669 675.8C667.355 677.577 672.264 678.477 677.256 678.477C691.961 678.477 705.67 670.548 713.038 657.788L779.761 542.222C789.911 524.65 785.905 502.53 770.231 489.62ZM466.725 767.347H383.641V690.117C383.641 681.1 376.331 673.791 367.314 673.791C358.297 673.791 350.987 681.1 350.987 690.117V767.347H333.922V588.287C355.181 595.856 377.767 599.811 400.898 599.822C400.903 599.822 401.002 599.822 401.008 599.822C424.214 599.822 446.828 595.872 468.083 588.297V767.227H468.084C467.639 767.295 467.188 767.347 466.725 767.347ZM401.003 567.169H400.914C308.783 567.123 233.831 492.128 233.833 399.997C233.834 346.381 259.106 297.163 301.267 266.02V385.128C301.267 390.864 304.277 396.178 309.194 399.128L392.602 449.17C397.772 452.27 404.231 452.27 409.402 449.17L492.809 399.128C497.727 396.177 500.736 390.862 500.736 385.128V266.02C542.897 297.163 568.172 346.383 568.169 400C568.169 444.575 550.758 486.534 519.147 518.147C487.534 549.759 445.577 567.169 401.003 567.169ZM751.483 525.891L684.756 641.461C682.684 645.048 678.316 646.809 674.18 645.242L605.786 619.622C600.228 617.542 593.981 618.637 589.467 622.487C563.022 645.031 533.177 662.47 500.733 674.381V573.164C515.709 564.491 529.659 553.811 542.233 541.236C580.012 503.455 600.819 453.297 600.819 400C600.82 324.622 559.055 256.514 491.819 222.259C486.758 219.68 480.72 219.919 475.877 222.886C471.034 225.855 468.081 231.127 468.081 236.806V375.886L401 416.134L333.919 375.886V236.806C333.919 231.127 330.966 225.855 326.123 222.886C321.281 219.919 315.244 219.683 310.181 222.259C242.947 256.513 201.181 324.619 201.178 399.997C201.177 454.283 222.402 504.925 260.939 542.591C273.217 554.591 286.767 564.825 301.266 573.192V675.122C268.05 663.2 237.523 645.5 210.53 622.491C207.527 619.931 203.759 618.589 199.936 618.589C198.011 618.589 196.072 618.928 194.212 619.627L125.728 645.281C124.77 645.647 123.767 645.833 122.752 645.833C119.675 645.833 116.798 644.159 115.244 641.464L48.5156 525.889C46.3828 522.2 47.2312 517.55 50.5281 514.833L106.858 468.437C111.43 464.67 113.605 458.725 112.538 452.9C109.366 435.525 107.755 417.73 107.755 400C107.755 382.272 109.364 364.475 112.541 347.103C113.605 341.277 111.433 335.33 106.859 331.566L50.5297 285.173C47.2297 282.455 46.3828 277.805 48.5187 274.111L115.245 158.539C117.313 154.955 121.666 153.181 125.822 154.759L194.216 180.378C199.77 182.456 206.019 181.363 210.534 177.514C237.748 154.316 268.548 136.508 302.08 124.583C307.667 122.595 311.739 117.736 312.712 111.886L324.711 39.9188C325.408 35.7094 329.011 32.6547 333.277 32.6547H466.727C470.992 32.6547 474.595 35.7094 475.297 39.9297L487.295 111.888C488.27 117.738 492.342 122.6 497.93 124.584C531.459 136.508 562.258 154.314 589.47 177.513C593.986 181.361 600.233 182.458 605.789 180.377L674.217 154.744C675.203 154.372 676.228 154.184 677.264 154.184C680.342 154.184 683.209 155.847 684.761 158.542L751.489 274.116C753.622 277.805 752.773 282.455 749.477 285.172L693.145 331.566C688.573 335.333 686.398 341.277 687.466 347.103C690.638 364.475 692.248 382.273 692.248 400.002C692.248 417.73 690.639 435.525 687.463 452.897C686.398 458.722 688.57 464.67 693.144 468.434L749.473 514.827C752.772 517.542 753.619 522.195 751.483 525.891Z" fill="white" fill-opacity="0.188235"/>
</svg>
