<svg width="50" height="50" viewBox="0 0 50 50" fill="none" xmlns="http://www.w3.org/2000/svg">
<path d="M29.8936 37.2344V42.5535L25 44.6811L20.1063 42.5535V37.2344H29.8936Z" fill="#88ACB5"/>
<path d="M29.8935 42.5527H20.1063V47.0623H29.8935V42.5527Z" fill="#A7CBCF"/>
<path d="M48.1021 2.56494H44.9106V35.4234L49.2021 33.2957V3.66494C49.2021 3.06064 48.7074 2.56494 48.1021 2.56494Z" fill="#A7CBCF"/>
<path d="M44.9106 2.56494H1.89785C1.29258 2.56494 0.797852 3.06064 0.797852 3.66494V33.2957L3.98935 35.4234H46.0106V3.66494C46.0106 3.06064 45.5158 2.56494 44.9106 2.56494Z" fill="#C7E7EB"/>
<path d="M46.0105 33.2959L44.9106 39.7874H48.1021C48.7073 39.7874 49.202 39.2927 49.202 38.6874V33.2959H46.0105Z" fill="#367596"/>
<path d="M0.797852 33.2959V38.6874C0.797852 39.2927 1.29258 39.7874 1.89785 39.7874H44.9106C45.5158 39.7874 46.0106 39.2927 46.0106 38.6874V33.2959H0.797852Z" fill="#5195AF"/>
<path d="M15.9574 17.4648H11.7021V29.0403H15.9574V17.4648Z" fill="#FF6176"/>
<path d="M23.4042 13.6904H19.1489V29.0404H23.4042V13.6904Z" fill="#FF0F47"/>
<path d="M30.8509 10.1211H26.5956V29.0402H30.8509V10.1211Z" fill="#C20035"/>
<path d="M38.2978 21.1372H34.0425V29.0404H38.2978V21.1372Z" fill="#940044"/>
<path d="M48.102 1.74072H1.89795C0.851366 1.74072 0 2.59219 0 3.63877V38.6605C0 39.707 0.851366 40.5584 1.89795 40.5584H19.3242V46.6633H11.7988C11.3582 46.6633 11.001 47.0205 11.001 47.4611C11.001 47.9018 11.3582 48.259 11.7988 48.259H38.2011C38.6418 48.259 38.9989 47.9018 38.9989 47.4611C38.9989 47.0205 38.6418 46.6633 38.2011 46.6633H30.6758V40.5583H48.1021C49.1486 40.5583 50 39.707 50 38.6604V3.63877C49.9999 2.59219 49.1485 1.74072 48.102 1.74072ZM29.0799 46.6632H20.9199V40.5583H29.0799V46.6632ZM48.4042 38.6604C48.4042 38.8242 48.2658 38.9626 48.102 38.9626H1.89795C1.73408 38.9626 1.5957 38.8242 1.5957 38.6604V3.63877C1.5957 3.4749 1.73408 3.33652 1.89795 3.33652H48.1019C48.2657 3.33652 48.4041 3.4749 48.4041 3.63877V38.6604H48.4042Z" fill="black"/>
<path d="M45.9019 32.4707H4.09814C3.65752 32.4707 3.30029 32.8279 3.30029 33.2686C3.30029 33.7092 3.65752 34.0664 4.09814 34.0664H45.9018C46.3425 34.0664 46.6996 33.7092 46.6996 33.2686C46.6996 32.8279 46.3425 32.4707 45.9019 32.4707Z" fill="black"/>
<path d="M11.7021 29.8112H15.9574C16.398 29.8112 16.7552 29.454 16.7552 29.0134V17.438C16.7552 16.9974 16.398 16.6401 15.9574 16.6401H11.7021C11.2615 16.6401 10.9043 16.9974 10.9043 17.438V29.0133C10.9043 29.4539 11.2615 29.8112 11.7021 29.8112ZM12.5 18.2358H15.1595V28.2154H12.5V18.2358Z" fill="black"/>
<path d="M19.1489 29.8116H23.4042C23.8448 29.8116 24.202 29.4544 24.202 29.0137V13.6636C24.202 13.2229 23.8448 12.8657 23.4042 12.8657H19.1489C18.7083 12.8657 18.351 13.2229 18.351 13.6636V29.0136C18.351 29.4543 18.7083 29.8116 19.1489 29.8116ZM19.9467 14.4614H22.6063V28.2158H19.9467V14.4614Z" fill="black"/>
<path d="M26.5956 29.8114H30.8509C31.2916 29.8114 31.6488 29.4542 31.6488 29.0135V10.0942C31.6488 9.65361 31.2916 9.29639 30.8509 9.29639H26.5956C26.1549 9.29639 25.7978 9.65361 25.7978 10.0942V29.0134C25.7978 29.4541 26.1549 29.8114 26.5956 29.8114ZM27.3936 10.8921H30.0532V28.2156H27.3936V10.8921Z" fill="black"/>
<path d="M34.0425 29.8115H38.2978C38.7385 29.8115 39.0956 29.4543 39.0956 29.0137V21.1104C39.0956 20.6697 38.7385 20.3125 38.2978 20.3125H34.0425C33.6018 20.3125 33.2447 20.6697 33.2447 21.1104V29.0137C33.2447 29.4542 33.6017 29.8115 34.0425 29.8115ZM34.8404 21.9082H37.4999V28.2157H34.8404V21.9082Z" fill="black"/>
</svg>
