<svg width="42" height="42" viewBox="0 0 42 42" fill="none" xmlns="http://www.w3.org/2000/svg">
<g clip-path="url(#clip0_610_4)">
<path fill-rule="evenodd" clip-rule="evenodd" d="M34.7192 0.684207C34.9712 0.170341 35.5344 -0.0964901 36.1076 0.0319818C36.666 0.165397 37.0588 0.661982 37.0588 1.23515V12.4788C39.8753 13.052 42 15.5473 42 18.5293C42 21.5113 39.8753 24.009 37.0588 24.5822V35.8234C37.0588 36.3966 36.666 36.8956 36.1076 37.0266C36.0145 37.0481 35.9191 37.0589 35.8235 37.0587C35.3615 37.0587 34.9316 36.8018 34.7192 36.3768C30.1708 27.2826 21.0914 27.1763 21 27.1763H12.3529V39.5293H14.2726C14.0132 37.5578 13.8896 34.1261 15.6611 31.8581C16.8074 30.3906 18.4973 29.6469 20.6912 29.6469V32.1175C19.2805 32.1175 18.2724 32.5301 17.6104 33.375C16.1058 35.2972 16.6246 39.1463 16.9482 40.4681C17.0397 40.8362 16.9557 41.2266 16.7234 41.5255C16.4887 41.8245 16.128 41.9999 15.75 41.9999H11.1176C10.4358 41.9999 9.88236 41.4489 9.88236 40.7646V27.1763H8.64708C5.24011 27.1763 2.47058 24.4068 2.47058 20.9999V19.7646H1.2353C0.553416 19.7646 0 19.2136 0 18.5293C0 17.8474 0.553416 17.294 1.23528 17.294H2.47058V16.0587C2.47058 12.6542 5.24011 9.88219 8.64706 9.88219H20.9975C21.3681 9.87974 30.1955 9.72904 34.7192 0.684207ZM34.5882 5.46234C30.3289 10.7642 24.696 11.9847 22.2353 12.2663V24.7947C24.696 25.0763 30.3289 26.2943 34.5882 31.5987V5.46234ZM19.7647 12.3528H8.64706C6.60389 12.3528 4.94117 14.0155 4.94117 16.0587V20.9999C4.94117 23.043 6.60389 24.7058 8.64706 24.7058H19.7647V12.3528ZM37.0589 15.0532V22.0079C38.4942 21.4965 39.5294 20.1376 39.5294 18.5293C39.5294 16.9209 38.4942 15.5646 37.0589 15.0532Z" fill="white"/>
</g>
<defs>
<clipPath id="clip0_610_4">
<rect width="42" height="42" fill="white"/>
</clipPath>
</defs>
</svg>
