<svg width="43" height="43" viewBox="0 0 43 43" fill="none" xmlns="http://www.w3.org/2000/svg">
<path d="M21.5 41.5C25.4556 41.5 29.3224 40.327 32.6114 38.1294C35.9004 35.9318 38.4638 32.8082 39.9776 29.1537C41.4913 25.4992 41.8874 21.4778 41.1157 17.5982C40.344 13.7186 38.4392 10.1549 35.6421 7.35788C32.8451 4.56083 29.2814 2.65601 25.4018 1.8843C21.5222 1.1126 17.5008 1.50867 13.8463 3.02242C10.1918 4.53617 7.06823 7.09962 4.87061 10.3886C2.67298 13.6776 1.5 17.5444 1.5 21.5C1.5 26.8043 3.60714 31.8914 7.35786 35.6421C11.1086 39.3929 16.1957 41.5 21.5 41.5ZM28.1667 13.7222L28.1667 29.2778L14.8333 21.5L28.1667 13.7222Z" fill="#2CA9BC"/>
<path d="M14.8333 12.6111L14.8333 30.3889M14.8333 21.5L28.1667 13.7222L28.1667 29.2778L14.8333 21.5ZM41.5 21.5C41.5 17.5444 40.327 13.6776 38.1294 10.3886C35.9318 7.09962 32.8082 4.53617 29.1537 3.02242C25.4992 1.50867 21.4778 1.1126 17.5982 1.8843C13.7186 2.65601 10.1549 4.56083 7.35788 7.35788C4.56083 10.1549 2.65601 13.7186 1.8843 17.5982C1.1126 21.4778 1.50867 25.4992 3.02242 29.1537C4.53617 32.8082 7.09962 35.9318 10.3886 38.1294C13.6776 40.327 17.5444 41.5 21.5 41.5C26.8043 41.5 31.8914 39.3929 35.6421 35.6421C39.3929 31.8914 41.5 26.8043 41.5 21.5Z" stroke="black" stroke-width="3" stroke-linecap="round" stroke-linejoin="round"/>
</svg>
