<svg width="840" height="840" viewBox="0 0 840 840" fill="none" xmlns="http://www.w3.org/2000/svg">
<path d="M756 20H84C48.6538 20 20 48.6538 20 84V756C20 791.346 48.6538 820 84 820H756C791.346 820 820 791.346 820 756V84C820 48.6538 791.346 20 756 20Z" stroke="black" stroke-width="20"/>
<path d="M687.586 518.58C689.347 516.793 691.735 515.764 694.243 515.713C695.808 515.55 697.389 515.809 698.82 516.463C700.251 517.118 701.481 518.144 702.381 519.435C705.345 523.754 705.774 532.039 704.317 537.283C703.19 542.479 700.585 547.238 696.815 550.987C695.757 551.953 694.515 552.695 693.163 553.17C691.811 553.644 690.377 553.84 688.948 553.747L688.169 553.672C687.575 556.199 686.813 558.685 685.888 561.111C681.487 572.38 674.552 582.485 665.62 590.644V592.3C657.999 601.254 649.535 609.456 640.346 616.794L636.426 618.179C628.83 613.622 613.264 604.039 605.059 599.02V598.532C597.848 595.568 591.366 591.072 586.064 585.356C579.373 578.496 574.184 570.318 570.827 561.343C569.336 561.755 567.773 561.83 566.25 561.565C564.727 561.299 563.282 560.698 562.019 559.806C557.792 556.581 554.588 552.202 552.793 547.197C550.666 542.19 550.011 533.92 552.388 529.252C553.113 527.855 554.198 526.677 555.531 525.842C556.865 525.006 558.398 524.543 559.971 524.501C562.465 524.225 564.967 524.933 566.946 526.475C566.946 526.475 550.633 471.478 613.601 460.847C689.588 448.017 687.586 518.58 687.586 518.58Z" fill="white"/>
<path d="M671.817 444.488C684.162 453.955 695.75 469.214 698.313 492.675C699.11 500.446 698.648 508.294 696.944 515.918C696.054 515.749 695.147 515.681 694.241 515.715C691.733 515.767 689.345 516.795 687.584 518.582C682.41 525.531 665.611 497.849 658.759 491.047L603.457 491.93C595.149 496.865 573.381 520.414 569.45 529.944C568.692 528.118 567.35 526.594 565.635 525.61C563.921 524.625 561.928 524.236 559.969 524.501C558.975 524.592 557.997 524.809 557.058 525.147C554.383 517.781 552.875 510.042 552.591 502.21C552.241 491.352 554.433 480.563 558.99 470.701C563.548 460.84 570.346 452.18 578.842 445.41C590.499 436.263 604.564 430.704 619.324 429.408C634.085 428.113 648.903 431.138 661.975 438.114L671.817 444.488Z" fill="#85807F"/>
<path d="M119.262 564.588C117.724 562.04 116.355 559.602 115.36 557.569C131.64 552.614 148.282 545.295 157.326 533.688C158.433 538.34 160.827 542.587 164.235 545.942C165.312 546.92 166.572 547.674 167.943 548.163C165.023 551.606 162.204 554.936 162.204 554.936C150.593 569.325 137.364 577.834 130.304 580.675C126.285 575.553 122.597 570.18 119.262 564.588Z" fill="white"/>
<path d="M154.625 531.202C145.215 543.592 128.713 549.629 114.383 554.018C113.845 554.176 113.35 554.454 112.934 554.83C112.518 555.206 112.192 555.671 111.98 556.19C111.768 556.709 111.675 557.269 111.709 557.829C111.743 558.389 111.902 558.934 112.175 559.424C116.431 567.934 121.637 575.936 127.693 583.275C128.145 583.747 128.718 584.085 129.35 584.252C129.982 584.419 130.648 584.408 131.274 584.221C144.485 578.819 155.898 568.473 164.8 557.541C165.464 556.838 165.835 555.907 165.835 554.94C165.835 553.972 165.464 553.041 164.8 552.338C164.106 551.654 163.171 551.271 162.197 551.271C161.223 551.271 160.288 551.654 159.595 552.338C154.627 558.521 148.952 564.101 142.685 568.962C140.297 570.791 137.807 572.484 135.228 574.033C134.093 574.714 132.939 575.363 131.763 575.967C131.248 576.23 130.729 576.487 130.203 576.732C130.083 576.787 128.766 577.356 129.318 577.13L132.898 578.077C127.283 571.187 122.464 563.686 118.53 555.716L116.322 561.122C132.77 556.08 150.242 549.039 160.964 534.921C161.45 534.077 161.585 533.075 161.338 532.133C161.091 531.19 160.482 530.383 159.644 529.886C158.796 529.418 157.8 529.293 156.862 529.539C155.925 529.784 155.118 530.381 154.608 531.206L154.625 531.202Z" fill="#211715"/>
<path d="M300.167 523.055C302.683 516.707 304.301 510.039 304.974 503.244C305.044 502.44 305.101 501.623 305.146 500.785C306.52 474.553 294.971 456.722 282.775 445.783C271.054 435.104 256.128 428.605 240.325 427.299C225.303 425.598 210.13 428.74 197.02 436.269C187.736 441.48 179.798 448.788 173.838 457.61C167.878 466.432 164.06 476.524 162.689 487.081C161.732 494.701 161.973 502.424 163.403 509.969L163.131 537.631C162.211 548.671 154.582 558.923 154.735 570.243C155.186 573.133 156.855 579.111 158.402 581.128C161.586 585.229 165.574 588.638 170.121 591.144C174.668 593.651 179.679 595.203 184.846 595.706L189.831 603.108L267.461 604.58C270.988 604.498 274.507 604.219 278.002 603.745C287.546 602.806 298.967 598.473 302.413 588.775C306.264 577.947 300.134 565.164 301.911 553.815L300.167 523.055Z" fill="#85807F"/>
<path d="M215.797 815.995C222.126 781.017 230.645 732.865 236.367 706.627C241.074 685.167 245.508 663.24 251.499 641.919L250.425 642.233C239.917 645.175 228.858 645.56 218.172 643.354C208.535 641.127 199.348 637.276 191.003 631.966C183.827 667.509 177.636 701.701 168.877 736.784C162.051 757.539 146.871 788.524 133.403 815.995H215.797Z" fill="white"/>
<path d="M267.632 497.696C266.615 496.015 265.752 494.493 265.071 493.227C265.071 493.227 260.714 485.131 254.78 474.091L254.649 474.255C243.45 488.679 227.981 499.198 210.45 504.311C203.756 506.335 216.435 473.44 208.045 483.162C196.876 494.14 184.905 505.446 173.775 514.571C172.924 513.6 171.88 512.816 170.71 512.268C169.54 511.721 168.27 511.422 166.978 511.391C165.446 511.221 163.895 511.465 162.488 512.097C161.082 512.729 159.87 513.727 158.98 514.987C156.047 519.2 155.574 527.314 156.969 532.466C158.04 537.566 160.564 542.247 164.235 545.944C165.341 546.98 166.664 547.757 168.108 548.219C169.551 548.681 171.079 548.816 172.581 548.616C174.637 557.78 178.579 566.415 184.156 573.971C189.921 581.728 196.205 587.366 203.596 590.701C203.25 591.295 202.905 591.877 202.562 592.448C202.061 593.276 201.579 594.058 201.112 594.805C200.543 595.71 199.999 596.562 199.517 597.289L199.439 597.404C199.239 597.706 199.034 598.008 198.823 598.306C198.762 598.393 198.698 598.477 198.639 598.562C198.385 598.917 198.109 599.256 197.813 599.577C195.391 610.542 193.152 621.324 191.005 631.987C199.356 637.282 208.543 641.126 218.178 643.356C228.167 645.466 241.766 645.354 251.531 641.855C253.577 634.576 255.807 627.368 258.294 620.273C258.194 620.122 258.082 619.979 257.96 619.845C257.814 619.672 257.669 619.499 257.516 619.326C257.308 619.089 257.1 618.853 256.885 618.616C256.48 618.167 256.082 617.718 255.691 617.271C255.592 617.157 255.487 617.041 255.389 616.927C255.1 616.584 254.837 616.242 254.594 615.9C254.53 615.808 254.447 615.716 254.386 615.624C253.492 614.413 252.75 613.097 252.178 611.705C251.778 610.476 251.539 609.201 251.47 607.911C251.455 607.727 251.439 607.543 251.426 607.359C251.402 607.022 251.396 606.683 251.378 606.347C251.145 602.217 251.253 598.076 251.7 593.964C267.603 589.378 281.758 569.319 284.317 563.808C285.541 561.577 286.614 559.267 287.53 556.892L288.266 557.076C289.642 557.358 291.061 557.358 292.437 557.078C293.813 556.797 295.119 556.241 296.275 555.444C300.438 552.31 303.605 548.039 305.394 543.146C307.512 538.253 308.206 530.152 305.906 525.561C305.205 524.187 304.149 523.027 302.847 522.199C301.546 521.372 300.046 520.909 298.505 520.858C296.063 520.572 293.606 521.25 291.657 522.749C282.196 519.248 272.873 506.363 267.632 497.696Z" fill="white"/>
<path d="M158.502 542.571C156.616 549.492 153.25 555.965 151.817 563.012C151.031 566.159 150.906 569.435 151.449 572.633C152.029 575.406 152.892 578.112 154.025 580.709C156.351 585.976 161.672 590.264 166.445 593.248C172.03 596.683 178.331 598.786 184.859 599.393C185.833 599.387 186.765 598.997 187.454 598.308C188.143 597.62 188.532 596.687 188.539 595.714C188.518 594.744 188.124 593.82 187.438 593.135C186.752 592.449 185.829 592.055 184.859 592.034C179.626 591.468 174.592 589.713 170.141 586.902C166.342 584.526 161.955 581.11 160.305 576.802C159.429 574.673 158.8 572.451 158.432 570.178C158.306 567.5 158.688 564.823 159.556 562.287C161.212 556.252 163.946 550.575 165.591 544.535C166.839 539.959 159.74 538.006 158.494 542.577L158.502 542.571Z" fill="#211715"/>
<path d="M267.461 608.268C279.94 607.946 294.857 606.216 302.945 595.454C312.2 583.141 303.541 568.353 305.458 554.791C305.685 553.85 305.545 552.858 305.067 552.017C304.588 551.177 303.807 550.55 302.883 550.264C301.941 550.012 300.938 550.14 300.09 550.623C299.243 551.105 298.62 551.902 298.356 552.84C297.398 559.617 298.54 566.141 299.438 572.859C300.2 578.602 300.835 585.106 297.624 590.254C291.686 599.773 277.417 600.656 267.448 600.911C262.721 601.033 262.703 608.395 267.448 608.271L267.461 608.268Z" fill="#211715"/>
<path d="M249.444 638.684C230.038 644.765 209.806 639.041 192.957 628.861C188.892 626.404 185.189 632.767 189.242 635.216C207.703 646.366 230.187 652.431 251.404 645.781C255.908 644.37 253.978 637.262 249.444 638.684Z" fill="#211715"/>
<path d="M248.014 593.966C247.308 599.471 247.337 605.046 248.103 610.544C248.598 613.06 249.658 615.432 251.203 617.479C252.524 619.368 254.534 621.249 255.711 622.888C256.222 623.711 257.028 624.306 257.965 624.552C258.901 624.798 259.896 624.675 260.745 624.209C261.582 623.711 262.19 622.904 262.437 621.962C262.684 621.02 262.551 620.018 262.066 619.173C259.581 615.712 255.899 613.09 255.235 608.833C254.646 603.891 254.693 598.895 255.374 593.966C255.368 592.992 254.978 592.059 254.29 591.37C253.601 590.682 252.668 590.292 251.694 590.286C250.725 590.307 249.801 590.701 249.116 591.387C248.43 592.072 248.036 592.996 248.014 593.966Z" fill="#211715"/>
<path d="M176.088 511.647C174.229 509.829 171.898 508.57 169.359 508.012C166.819 507.454 164.174 507.621 161.725 508.493C159.877 509.227 158.218 510.369 156.873 511.835C155.529 513.301 154.534 515.052 153.962 516.957C150.963 525.314 152.741 535.461 157.193 542.991C160.321 548.275 165.446 552.742 171.928 552.389C176.638 552.137 176.669 544.775 171.928 545.029C167.186 545.283 164.2 541 162.413 537.117C160.872 533.844 160.017 530.29 159.902 526.674C159.84 524.552 160.076 522.432 160.603 520.376C160.887 519.109 161.415 517.911 162.158 516.846C162.594 516.186 161.595 517.398 162.248 516.749C162.94 516.057 162.616 516.236 163.405 515.772C164.08 515.4 164.822 515.163 165.587 515.075C166.547 514.95 167.522 515.045 168.439 515.352C169.356 515.66 170.192 516.171 170.883 516.848C174.237 520.201 179.442 514.997 176.088 511.643V511.647Z" fill="#211715"/>
<path d="M293.515 525.923C294.307 525.28 295.239 524.835 296.237 524.622C297.234 524.41 298.268 524.438 299.252 524.704C300.013 524.879 300.733 525.199 301.374 525.646C301.028 525.397 301.817 526.074 301.911 526.161C302.029 526.282 302.143 526.407 302.25 526.529C302.031 526.238 301.994 526.194 302.137 526.4C303.99 529.215 303.931 533.427 303.374 536.801C302.736 540.522 301.307 544.062 299.182 547.182C297.129 550.371 293.478 554.371 289.246 553.518C288.305 553.283 287.31 553.419 286.467 553.899C285.624 554.379 284.999 555.165 284.72 556.093C284.47 557.035 284.6 558.037 285.082 558.884C285.564 559.73 286.359 560.354 287.296 560.62C297.931 562.769 305.101 553.205 308.765 544.557C310.599 540.187 311.34 535.436 310.923 530.715C310.836 526.746 309.178 522.975 306.314 520.227C304.004 518.347 301.146 517.267 298.169 517.149C295.193 517.032 292.259 517.883 289.808 519.576C288.987 520.088 288.393 520.895 288.148 521.83C287.902 522.766 288.023 523.76 288.487 524.61C288.984 525.447 289.791 526.056 290.733 526.303C291.675 526.55 292.676 526.416 293.521 525.931L293.515 525.923Z" fill="#211715"/>
<path d="M285.394 551.789C282.842 559.928 278.593 567.432 272.926 573.806C266.313 581.549 257.818 589.544 247.359 591.143C246.421 591.407 245.625 592.031 245.143 592.878C244.661 593.726 244.532 594.729 244.784 595.671C245.063 596.6 245.689 597.386 246.532 597.866C247.375 598.345 248.37 598.482 249.312 598.247C260.904 596.473 270.771 587.626 278.124 579.019C284.653 571.715 289.549 563.101 292.485 553.754C293.81 549.197 286.711 547.25 285.388 551.797L285.394 551.789Z" fill="#211715"/>
<path d="M168.174 545.11C171.772 567.53 187.246 591.715 210.641 596.867C215.258 597.884 217.228 590.795 212.597 589.77C191.549 585.135 178.48 563.153 175.271 543.154C175.007 542.216 174.384 541.419 173.537 540.937C172.69 540.455 171.687 540.326 170.745 540.578C169.815 540.856 169.029 541.482 168.549 542.325C168.069 543.168 167.933 544.164 168.169 545.105L168.174 545.11Z" fill="#211715"/>
<path d="M279.436 438.021C269.288 430.723 257.554 425.939 245.197 424.062C232.84 422.185 220.214 423.269 208.358 427.224C198.641 430.571 189.726 435.9 182.178 442.874C174.629 449.848 168.612 458.314 164.507 467.736C158.81 481.608 157.349 496.856 160.307 511.557C161.175 516.207 168.27 514.238 167.405 509.601C163.381 488.073 169.429 465.723 185.13 450.205C197.122 438.715 212.787 431.829 229.362 430.763C245.936 429.696 262.354 434.516 275.721 444.374C276.565 444.86 277.567 444.995 278.509 444.748C279.452 444.501 280.259 443.893 280.757 443.055C281.227 442.207 281.352 441.21 281.106 440.273C280.86 439.335 280.262 438.528 279.436 438.021Z" fill="#211715"/>
<path d="M304.967 521.45C309.891 507.157 310.514 491.734 306.757 477.091C303.607 465.532 297.557 454.97 289.18 446.405C285.877 442.996 280.678 448.203 283.975 451.609C291.463 459.264 296.863 468.711 299.661 479.048C301.291 485.303 302.039 491.754 301.883 498.215C301.632 505.473 300.279 512.651 297.87 519.502C296.386 524.012 303.49 525.942 304.967 521.458V521.45Z" fill="#211715"/>
<path d="M218.97 566.951C222.503 569.006 226.48 570.18 230.562 570.372C234.637 570.868 238.765 570.065 242.357 568.077C243.199 567.585 243.812 566.777 244.059 565.833C244.307 564.889 244.169 563.885 243.677 563.042C243.184 562.199 242.377 561.587 241.433 561.339C240.488 561.092 239.484 561.229 238.642 561.722C238.244 561.98 237.749 562.134 237.372 562.405C236.711 562.752 236.21 563.344 235.977 564.054C235.744 564.764 235.797 565.537 236.124 566.21C236.45 566.882 237.026 567.401 237.728 567.656C238.431 567.911 239.205 567.883 239.887 567.578C240.569 567.273 241.106 566.714 241.384 566.02C241.661 565.326 241.658 564.551 241.374 563.86C241.091 563.168 240.549 562.614 239.865 562.315C239.18 562.015 238.405 561.994 237.705 562.256C237.56 562.303 237.416 562.36 237.271 562.408C236.914 562.528 236.548 562.631 236.182 562.719C235.757 562.822 235.328 562.903 234.894 562.975C234.202 563.098 235.446 562.933 234.947 562.964C234.71 562.979 234.474 563.012 234.237 563.028C233.011 563.109 231.782 563.104 230.557 563.012C230.251 562.99 229.946 562.962 229.637 562.931C229.328 562.9 228.862 562.835 229.42 562.916C228.868 562.835 228.299 562.732 227.745 562.616C226.871 562.429 226.011 562.183 225.169 561.88C224.973 561.79 224.772 561.713 224.566 561.648C224.777 561.693 225.35 562.003 224.811 561.746C224.523 561.608 224.235 561.474 223.953 561.324C223.521 561.098 223.101 560.848 222.685 560.589C221.843 560.096 220.839 559.958 219.894 560.206C218.95 560.453 218.143 561.066 217.65 561.909C217.158 562.751 217.02 563.755 217.268 564.7C217.515 565.644 218.128 566.451 218.97 566.944V566.951Z" fill="#211715"/>
<path d="M230.507 540.823C230.781 542.233 231.019 543.651 231.21 545.072L231.079 544.095C231.218 544.811 231.271 545.541 231.238 546.27L231.368 545.291C231.347 545.438 231.309 545.582 231.256 545.721L231.624 544.842C231.588 544.918 231.545 544.991 231.497 545.061L232.073 544.315C232.018 544.383 231.957 544.445 231.889 544.499L232.625 543.924C232.535 543.982 232.44 544.032 232.342 544.073L233.219 543.705C232.955 543.816 232.679 543.897 232.397 543.947L233.374 543.815C233.122 543.847 232.867 543.847 232.616 543.815L233.595 543.947C233.243 543.896 232.91 543.784 232.562 543.714C231.605 543.475 230.592 543.606 229.727 544.082C229.31 544.326 228.944 544.65 228.652 545.035C228.36 545.42 228.146 545.859 228.024 546.326C227.901 546.794 227.872 547.281 227.938 547.76C228.004 548.239 228.164 548.701 228.408 549.118C228.892 549.95 229.686 550.558 230.616 550.809C231.279 550.966 231.949 551.089 232.625 551.177C233.45 551.25 234.281 551.138 235.057 550.849C235.867 550.604 236.607 550.172 237.219 549.589C237.758 549.029 238.155 548.348 238.377 547.604C238.597 546.867 238.663 546.093 238.572 545.329C238.342 543.166 238.02 541.009 237.598 538.873C237.339 537.949 236.733 537.161 235.906 536.674C235.063 536.181 234.059 536.044 233.115 536.291C232.171 536.539 231.364 537.151 230.871 537.993C230.413 538.864 230.282 539.87 230.503 540.829L230.507 540.823Z" fill="#211715"/>
<path d="M201.281 522.089C200.081 525.103 200.208 532.243 206.188 533.281C214.154 533.807 215.195 525.259 212.812 521.034C210.847 517.573 204.494 515.737 201.281 522.089Z" fill="#211715"/>
<path d="M265.038 526.676C265.794 529.83 264.646 536.878 258.58 537.05C250.622 536.43 250.815 527.822 253.785 523.986C256.215 520.838 262.767 519.927 265.038 526.676Z" fill="#211715"/>
<path d="M261.893 495.087C265.147 501.093 268.942 506.79 273.23 512.107C277.934 517.954 283.544 523.579 290.68 526.295C291.622 526.547 292.625 526.418 293.472 525.935C294.32 525.453 294.943 524.657 295.208 523.719C295.445 522.778 295.31 521.781 294.83 520.938C294.35 520.095 293.562 519.469 292.632 519.192C292.232 519.034 292.208 519.031 292.56 519.181C292.402 519.113 292.244 519.042 292.087 518.966C291.719 518.782 291.351 518.607 290.983 518.414C290.339 518.068 289.712 517.691 289.101 517.292C287.835 516.482 286.645 515.558 285.546 514.532C282.865 512.092 280.396 509.429 278.164 506.572C274.431 501.797 271.112 496.712 268.243 491.372C265.991 487.203 259.636 490.916 261.888 495.087H261.893Z" fill="#211715"/>
<path d="M208.507 477.543C196.631 489.289 184.572 500.911 171.691 511.553C171.007 512.247 170.624 513.181 170.624 514.155C170.624 515.129 171.007 516.063 171.691 516.757C172.39 517.428 173.323 517.802 174.292 517.802C175.262 517.802 176.194 517.428 176.894 516.757C189.774 506.111 201.835 494.493 213.71 482.748C217.083 479.413 211.879 474.209 208.507 477.543Z" fill="#211715"/>
<path d="M252.995 470.453C244.581 481.566 233.618 490.492 221.029 496.478C217.958 497.899 214.798 499.119 211.568 500.13C211.105 500.278 210.648 500.419 210.174 500.559C209.315 500.763 209.239 500.817 209.945 500.723C210.377 500.734 210.799 500.855 211.172 501.074C211.545 501.292 211.856 501.602 212.076 501.974C212.261 502.501 212.289 502.563 212.159 502.158C212.126 502.057 212.109 501.951 212.107 501.845C212.085 501.302 212.091 500.759 212.124 500.217C212.405 495.015 213.964 489.922 214.593 484.761C214.587 483.787 214.198 482.854 213.509 482.165C212.82 481.476 211.887 481.087 210.913 481.081C209.944 481.104 209.022 481.499 208.336 482.184C207.651 482.869 207.256 483.792 207.233 484.761C206.718 488.976 205.377 494.178 204.884 498.82C204.475 502.649 205.044 508.265 210.186 508.066C213.173 507.952 216.553 506.268 219.296 505.183C222.339 503.986 225.317 502.632 228.218 501.126C233.859 498.139 239.164 494.556 244.042 490.439C249.723 485.594 254.856 480.141 259.349 474.177C259.836 473.334 259.971 472.332 259.724 471.389C259.477 470.447 258.868 469.64 258.029 469.143C257.181 468.674 256.185 468.55 255.248 468.796C254.31 469.041 253.503 469.638 252.993 470.463L252.995 470.453Z" fill="#211715"/>
<path d="M231.412 467.855C255.889 469.304 280.18 473.014 303.974 478.937C304.721 479.084 305.413 479.438 305.969 479.958C306.525 480.479 306.924 481.145 307.12 481.881C308.876 490.092 309.137 498.552 307.889 506.855C307.728 507.405 307.453 507.915 307.081 508.351C306.71 508.787 306.25 509.14 305.733 509.386C305.216 509.632 304.653 509.767 304.08 509.781C303.507 509.795 302.938 509.687 302.41 509.466C278.806 501.738 262.004 499.28 227.326 496.653C213.202 495.582 181.159 495.137 163.63 495.838C162.573 495.942 161.516 495.637 160.676 494.988C159.835 494.338 159.276 493.391 159.111 492.342C158.581 486.45 159.176 480.511 160.864 474.842C161.326 473.293 161.935 471.792 162.682 470.36C163.021 469.799 163.496 469.333 164.063 469.004C164.63 468.676 165.271 468.495 165.926 468.479C175.604 467.828 211.828 466.536 231.412 467.855Z" fill="white"/>
<path d="M231.412 471.536C244.515 472.423 257.588 473.716 270.554 475.834C276.599 476.82 282.617 477.966 288.61 479.234C291.35 479.813 294.085 480.415 296.814 481.041C298.354 481.394 299.893 481.752 301.431 482.116C303.4 482.581 303.493 482.36 303.867 484.344C305.11 491.155 305.314 498.115 304.474 504.988C304.353 506.035 304.822 506.112 303.648 506.02C302.522 505.771 301.425 505.41 300.371 504.942C297.859 504.147 295.335 503.391 292.799 502.674C283.518 500.077 274.075 498.096 264.532 496.743C242.856 493.752 221.012 492.143 199.132 491.928C188.528 491.761 177.913 491.722 167.311 492.026C166.342 492.053 163.391 492.684 162.732 491.891C162.248 491.31 162.62 488.421 162.625 487.623C162.62 485.926 162.722 484.231 162.931 482.548C163.278 479.662 163.967 476.827 164.982 474.102C165.288 473.319 165.58 472.388 166.167 472.137C166.841 472.002 167.531 471.962 168.217 472.018C189.254 470.6 210.356 470.439 231.412 471.536C236.141 471.845 236.121 464.485 231.412 464.176C210.645 463.109 189.832 463.255 169.082 464.614C167.238 464.575 165.397 464.777 163.606 465.215C160.077 466.393 158.649 469.815 157.563 473.076C156.509 476.389 155.817 479.807 155.499 483.269C155.002 486.692 155.037 490.171 155.604 493.582C157.159 500.39 164.553 499.443 169.871 499.323C175.636 499.192 181.402 499.161 187.167 499.178C211.22 499.071 235.256 500.471 259.134 503.371C269.649 504.7 280.054 506.785 290.27 509.61C292.899 510.346 295.515 511.125 298.115 511.945C301.059 512.865 303.858 513.978 306.921 512.821C310.66 511.41 311.437 508.243 311.876 504.64C312.339 500.765 312.462 496.857 312.244 492.96C312.063 489.155 311.585 485.37 310.813 481.639C310.444 479.962 309.572 478.439 308.313 477.272C307.055 476.105 305.469 475.351 303.769 475.111C297.092 473.528 290.391 472.044 283.653 470.733C270.209 468.144 256.639 466.255 242.999 465.072C239.135 464.73 235.271 464.439 231.407 464.176C226.676 463.846 226.697 471.208 231.412 471.536Z" fill="#211715"/>
<path d="M488.089 585.881C488.383 586.033 488.676 586.177 488.966 586.315C495.06 579.434 500.522 572.019 505.287 564.16C493.785 559.88 486.839 557.459 478.926 550.82L477.663 549.749C474.383 555.555 470.453 560.969 465.95 565.887L473.61 574.432C477.796 578.995 482.684 582.859 488.089 585.881Z" fill="white"/>
<path d="M729.053 592.079C716.969 585.215 706.017 576.526 696.585 566.32L687.608 555.841C687.803 555.133 687.992 554.402 688.169 553.67L688.947 553.745C690.377 553.839 691.811 553.642 693.163 553.168C694.515 552.694 695.757 551.951 696.815 550.985C698.566 549.383 700.042 547.503 701.183 545.421L703.746 548.332C716.3 562.572 730.691 566.281 747.525 570.368C743.72 578.732 739.17 586.738 733.931 594.287C732.25 593.681 730.619 592.942 729.053 592.079Z" fill="white"/>
<path d="M499.071 505.575C498.269 504.221 497.119 503.107 495.74 502.348C494.361 501.589 492.804 501.214 491.231 501.262C488.726 501.127 486.267 501.976 484.379 503.628C484.379 503.628 486.035 449.809 421.835 449.809C357.635 449.809 363.488 502.583 363.488 502.583C361.629 500.9 359.186 500.008 356.68 500.097C355.108 500.024 353.545 500.372 352.154 501.107C350.763 501.841 349.593 502.935 348.768 504.274C346.052 508.754 346.094 517.053 347.848 522.201C349.267 527.325 352.138 531.929 356.115 535.458C357.308 536.441 358.705 537.147 360.205 537.525C361.705 537.903 363.27 537.943 364.787 537.642C367.47 546.841 372.04 555.38 378.205 562.715C383.137 568.895 389.37 573.912 396.462 577.408C396.254 580.075 395.577 582.686 394.463 585.119C393.45 586.89 392.129 588.466 390.563 589.774C386.642 593.367 382.335 596.515 377.72 599.158C384.498 611.044 404.777 623.048 424.81 623.221C448.73 623.427 464.452 608.809 471.054 599.955C466.49 597.23 462.241 594.01 458.382 590.354C456.835 589.018 455.539 587.416 454.555 585.625C453.346 582.823 452.684 579.816 452.607 576.765C466.508 569.221 477.503 551.155 479.546 545.915C480.649 543.563 481.593 541.141 482.372 538.663L483.141 538.796C484.561 538.994 486.006 538.903 487.39 538.528C488.773 538.153 490.067 537.503 491.193 536.615C495.23 533.155 498.18 528.602 499.688 523.504C501.52 518.392 501.704 510.096 499.071 505.575Z" fill="white"/>
<path d="M68.8767 585.614C69.2182 584.402 69.8906 583.309 70.8184 582.457C71.7463 581.606 72.8929 581.03 74.1298 580.793C75.83 580.269 77.6574 580.337 79.3145 580.984C80.9716 581.631 82.3609 582.82 83.2561 584.357C86.3215 589.75 86.4815 603.835 83.4971 608.939C83.1127 609.611 82.585 610.19 81.9515 610.634C82.038 612.612 82.0987 613.968 82.0987 613.968C82.2827 618.354 83.6278 626.132 81.6608 630.726C78.6506 637.753 74.2181 642.011 68.6559 643.948C68.5823 645.132 68.5271 646.024 68.5271 646.024C68.4406 647.45 68.4038 649.728 68.3781 652.171C57.5222 653.459 46.5891 655.141 35.6817 657.121C34.6237 653.586 33.0285 646.416 33.4038 642.307C33.7479 638.546 31.0008 635.236 29.0118 632.027C26.0927 627.765 24.2648 622.85 23.6888 617.716C23.6631 612.297 24.2383 606.892 25.4036 601.6C27.3724 592.42 31.3946 582.214 35.2604 579.005C41.8843 572.861 48.2837 575.251 56.3686 577.56C58.4864 578.164 66.7258 581.358 68.4848 585.104L68.8767 585.614Z" fill="white"/>
<path d="M49.4962 563.596C47.877 539.079 44.1216 482.989 43.8806 457.332C43.8812 456.171 44.3173 455.051 45.1027 454.195C45.8882 453.338 46.966 452.808 48.1235 452.707C59.2146 451.528 70.4128 451.822 81.427 453.579C92.8081 455.138 103.975 457.989 114.71 462.076C115.871 462.535 116.808 463.427 117.323 464.563C117.838 465.7 117.891 466.993 117.47 468.168C109.547 489.948 88.3674 542.796 79.4491 567.942L49.4962 563.596Z" fill="#FFDA71"/>
<path d="M64.847 646.02C64.5361 651.29 64.8213 656.582 64.5103 661.844C64.5161 662.818 64.9057 663.751 65.5945 664.44C66.2834 665.129 67.2161 665.518 68.1903 665.524C69.1595 665.502 70.083 665.108 70.7685 664.422C71.454 663.737 71.8487 662.813 71.8702 661.844C72.1812 656.574 71.896 651.283 72.2069 646.02C72.2011 645.046 71.8116 644.113 71.1227 643.425C70.4338 642.736 69.5012 642.346 68.527 642.34C67.5578 642.362 66.6342 642.757 65.9487 643.442C65.2632 644.128 64.8686 645.051 64.847 646.02Z" fill="#211715"/>
<path d="M67.3346 648.151C70.8024 647.28 74.044 645.679 76.842 643.453C79.64 641.227 81.9297 638.428 83.5576 635.245C85.437 631.833 86.4154 627.998 86.4004 624.102C86.4225 620.709 85.9459 617.348 85.7785 613.964C85.7583 612.994 85.3641 612.07 84.6783 611.384C83.9925 610.699 83.0682 610.304 82.0985 610.284C81.1254 610.293 80.1946 610.684 79.5065 611.372C78.8183 612.06 78.4277 612.991 78.4186 613.964C78.5658 616.965 78.9706 619.95 79.0295 622.956C79.2639 625.769 78.7089 628.592 77.4268 631.107C76.3075 633.573 74.6402 635.75 72.552 637.474C70.4638 639.198 68.0098 640.422 65.3769 641.054C60.7769 642.14 62.7199 649.238 67.3346 648.151Z" fill="#211715"/>
<path d="M45.0397 595.752C48.1143 595.831 51.1871 595.861 54.2543 596.102C57.5958 596.524 60.9678 596.654 64.3318 596.488C70.1002 595.936 73.9347 591.535 72.5381 585.621C71.4341 580.922 66.9924 578.145 62.8985 576.217C58.5824 574.201 54.0229 572.754 49.3342 571.911C46.6526 571.296 43.8669 571.291 41.1829 571.896C38.4989 572.501 35.9851 573.701 33.8269 575.407C29.6741 578.734 27.4183 583.634 25.5029 588.471C23.2647 594.22 21.7043 600.209 20.8533 606.319C20.0326 612.012 19.3813 617.819 20.9858 623.444C22.1141 627.127 23.7456 630.636 25.8341 633.873C27.2803 636.198 29.6005 638.75 29.7532 641.6C29.7932 644.616 30.0119 647.627 30.4083 650.616C30.8621 653.311 31.4884 655.973 32.2832 658.587C33.6687 663.102 40.7747 661.176 39.38 656.631C38.0825 652.701 37.2977 648.619 37.045 644.487C37.1896 642.279 37.0036 640.062 36.493 637.909C35.5423 635.481 34.2925 633.18 32.7726 631.061C29.974 626.722 27.4367 621.905 27.3337 616.628C27.3424 612.083 27.8483 607.553 28.8424 603.117C29.833 597.996 31.4091 593.006 33.5399 588.245C35.2069 584.651 37.3118 580.929 41.2052 579.384C45.0986 577.838 49.5145 579.4 53.2938 580.488C56.4206 581.307 59.4224 582.545 62.2177 584.168C63.8958 585.187 67.7376 588.747 63.7136 589.169C60.5555 589.307 57.3914 589.16 54.2598 588.729C51.1926 588.488 48.1198 588.458 45.0452 588.379C40.3073 588.256 40.3092 595.616 45.0452 595.739L45.0397 595.752Z" fill="#211715"/>
<path d="M61.4118 597.141C61.6142 597.194 61.8111 597.259 62.008 597.325C61.5977 597.141 61.5811 597.141 61.9528 597.309C62.284 597.493 62.606 597.689 62.9243 597.901C62.2104 597.426 62.858 597.884 63.0052 598.035C63.1524 598.186 63.2481 598.289 63.3622 598.425C63.0586 598.019 63.0218 597.976 63.25 598.302C63.3383 598.46 63.7854 599.003 63.7357 599.185L63.5517 598.762C63.6069 598.915 63.6548 599.069 63.6971 599.228C63.9675 600.232 63.767 598.808 63.7559 599.412C63.7266 599.643 63.7266 599.876 63.7559 600.107C63.8516 599.509 63.8627 599.41 63.7891 599.805C63.758 599.953 63.7193 600.099 63.6731 600.243C63.6021 600.409 63.5407 600.578 63.4892 600.751C63.6621 599.789 63.8719 599.949 63.6731 600.302C63.5867 600.451 63.5149 600.611 63.4248 600.758C63.31 600.91 63.2044 601.068 63.1083 601.231C63.2113 600.99 63.7578 600.521 63.2923 600.963C63.2242 601.027 62.8028 601.358 62.801 601.428C63.3144 601.044 63.4174 600.965 63.1083 601.187C63.0292 601.244 62.9482 601.298 62.8654 601.349C62.663 601.478 62.4367 601.574 62.2343 601.702C61.7669 602.008 63.0108 601.448 62.0356 601.772C61.4164 601.974 60.7812 602.122 60.1367 602.216C61.0567 602.078 59.6105 602.234 59.4467 602.242C59.0787 602.258 58.7199 602.262 58.3556 602.265C57.535 602.265 56.7131 602.265 55.8901 602.265C52.4788 602.232 49.0674 602.081 45.658 601.965C44.6844 601.973 43.7528 602.363 43.0644 603.052C42.3759 603.74 41.9857 604.672 41.978 605.645C41.9973 606.615 42.3912 607.54 43.0772 608.226C43.7632 608.912 44.688 609.306 45.658 609.325C48.8043 609.434 51.9488 609.57 55.097 609.616C58.1644 609.89 61.256 609.611 64.2251 608.794C66.5439 608.082 68.5126 606.529 69.7439 604.439C70.9751 602.35 71.3799 599.875 70.8785 597.502C70.3993 595.709 69.4553 594.075 68.1419 592.765C66.8285 591.454 65.1924 590.514 63.399 590.039C62.4579 589.779 61.4522 589.904 60.6032 590.386C59.7542 590.868 59.1314 591.667 58.8717 592.608C58.6121 593.549 58.737 594.555 59.2189 595.404C59.7008 596.253 60.5002 596.876 61.4413 597.136L61.4118 597.141Z" fill="#211715"/>
<path d="M57.5718 609.473C57.8404 609.602 58.9334 610.014 58.9959 610.312C58.9481 610.085 58.5267 609.916 58.9959 610.354C59.2002 610.538 59.375 610.761 59.5774 610.947C59.8902 611.234 59.2333 610.395 59.5884 610.959C59.7338 611.191 59.8681 611.419 60.0024 611.657C60.3538 612.279 59.8938 611.013 60.0337 611.765C60.0576 611.896 60.3134 612.608 60.1349 612.051C59.9656 611.522 60.1128 612.2 60.1349 612.356C60.2158 613.092 60.3373 611.782 60.1349 612.472C60.1033 612.609 60.0646 612.744 60.019 612.877C59.9288 613.132 59.9674 613.061 60.1294 612.649C60.111 612.882 59.8221 613.191 59.7135 613.385C59.3915 613.96 59.9785 613.158 59.6822 613.429C59.5093 613.587 59.3603 613.778 59.1873 613.942C59.0475 614.073 58.9039 614.196 58.7567 614.31L59.0475 614.08C58.972 614.229 58.3906 614.507 58.2489 614.588C58.0208 614.72 57.7871 614.842 57.5497 614.956C57.408 615.026 57.2664 615.092 57.121 615.156C57.4669 615.015 57.5148 614.993 57.2682 615.09C56.7162 615.274 56.1642 615.488 55.6122 615.664C54.3965 615.987 53.2171 616.433 52.0924 616.996C50.6259 617.811 49.5086 619.135 48.9515 620.717C48.5044 622.368 48.5044 624.109 48.9515 625.76C49.2138 626.7 49.8366 627.498 50.6844 627.98C51.5321 628.462 52.5362 628.59 53.4779 628.336C54.4058 628.056 55.1905 627.43 55.6699 626.588C56.1494 625.745 56.2868 624.751 56.0538 623.81C55.9968 623.503 55.96 622.89 55.9913 623.532C55.9536 623.221 55.9499 622.906 55.9802 622.594C55.9397 622.816 55.6435 623.539 55.9526 623.054C55.6386 623.45 55.622 623.507 55.9029 623.225L55.5828 623.492C55.7339 623.397 55.8899 623.311 56.0501 623.234L55.6711 623.385C55.9258 623.281 56.1855 623.19 56.4494 623.113C57.0253 622.929 57.6068 622.763 58.1808 622.561C61.165 621.726 63.81 619.971 65.7394 617.547C66.6098 616.379 67.1775 615.015 67.3916 613.575C67.6058 612.135 67.4598 610.664 66.9667 609.294C65.9249 606.59 63.8993 604.379 61.2959 603.105C60.4531 602.612 59.4492 602.474 58.5049 602.722C57.5607 602.97 56.7534 603.582 56.2608 604.425C55.7682 605.268 55.6305 606.272 55.8781 607.216C56.1257 608.16 56.7382 608.967 57.581 609.46L57.5718 609.473Z" fill="#211715"/>
<path d="M78.0009 615.465C79.8339 615.487 81.6383 615.01 83.2205 614.084C84.8027 613.158 86.103 611.819 86.9818 610.211C88.1735 607.559 88.8867 604.717 89.0886 601.817C89.8949 595.945 89.2823 589.967 87.302 584.381C86.7023 582.708 85.724 581.197 84.4434 579.965C83.1628 578.733 81.6147 577.813 79.92 577.279C76.9455 576.492 73.7916 576.744 70.9796 577.993C64.3244 580.999 63.4357 590.423 63.9766 596.804C64.6445 604.801 68.3079 615.526 78.0009 615.465C82.7352 615.434 82.7444 608.074 78.0009 608.106C77.104 608.08 76.2334 607.796 75.4936 607.288C74.7538 606.781 74.1761 606.07 73.8297 605.243C72.5746 602.904 71.7601 600.354 71.4267 597.721C71.139 595.356 71.1538 592.963 71.4708 590.602C71.6583 589.379 71.9351 588.171 72.2988 586.988C72.4793 586.132 72.9628 585.369 73.6604 584.841C74.2707 584.55 74.9204 584.351 75.5887 584.249C76.2198 584.105 75.539 584.261 75.4231 584.269C75.6697 584.252 75.9162 584.223 76.1591 584.214C76.6384 584.188 77.1189 584.201 77.5961 584.252C76.6393 584.138 78.5161 584.552 78.1886 584.436C78.4489 584.611 78.7234 584.764 79.0092 584.893C79.3087 585.163 79.5788 585.464 79.8151 585.79C79.9733 586.02 80.6265 587.384 80.3137 586.62C81.7802 590.581 82.3319 594.823 81.9274 599.027C81.9362 601.252 81.6029 603.465 80.9393 605.589C80.8529 605.87 80.2622 607.18 80.6799 606.382C80.5971 606.54 80.5327 606.707 80.4407 606.862C80.4076 606.917 79.92 607.662 80.196 607.289C79.901 607.566 79.5539 607.781 79.1748 607.923C78.7958 608.064 78.3923 608.129 77.988 608.113C77.019 608.135 76.0957 608.53 75.4103 609.215C74.7249 609.901 74.3301 610.824 74.3081 611.793C74.3182 612.767 74.7112 613.699 75.4021 614.386C76.093 615.073 77.0265 615.461 78.0009 615.465Z" fill="#211715"/>
<path d="M53.1761 563.596C52.0316 546.253 50.8945 528.907 49.8899 511.555C49.3177 501.678 48.7859 491.801 48.3388 481.918C47.9818 473.966 47.4188 465.931 47.5678 457.967C47.6028 456.046 48.9533 456.291 50.6553 456.144C53.8587 455.864 57.0732 455.699 60.2894 455.671C66.4798 455.655 72.664 456.066 78.7977 456.902C84.6158 457.67 90.3892 458.745 96.0935 460.124C101.788 461.315 107.361 463.023 112.745 465.226C114.401 465.962 114.101 466.711 113.531 468.267C112.948 469.862 112.359 471.451 111.763 473.033C110.401 476.671 109.022 480.303 107.626 483.928C104.292 492.624 100.933 501.312 97.5489 509.989C90.2 528.924 82.704 547.822 75.9053 566.964C74.3155 571.435 81.4252 573.359 83.0021 568.92C89.3978 550.912 96.4339 533.125 103.339 515.312C106.942 506.027 110.537 496.739 114.123 487.447C115.606 483.587 117.078 479.723 118.539 475.856C119.895 472.246 122.219 468.076 121.099 464.161C119.397 458.273 111.579 456.843 106.486 455.303C100.456 453.498 94.3266 452.046 88.1282 450.953C75.5138 448.529 62.6289 447.826 49.8255 448.863C47.1236 448.82 44.5053 449.801 42.4969 451.608C41.6263 452.626 40.9754 453.813 40.585 455.094C40.1946 456.375 40.0731 457.723 40.2282 459.053C40.2852 463.018 40.4122 466.983 40.5428 470.945C40.8887 480.746 41.3763 490.542 41.9081 500.335C43.0507 521.433 44.4307 542.518 45.8236 563.6C46.1345 568.303 53.4981 568.338 53.1834 563.6L53.1761 563.596Z" fill="#211715"/>
<path d="M698.628 815.995H577.958C573.43 791.623 567.434 759.178 561.89 731.656C545.183 743.86 533.639 753.237 516.303 767.436C516.303 767.436 514.014 769.254 511.173 771.519C510.906 765.217 510.689 759.351 510.579 754.613C510.008 731.555 508.085 703.675 507.357 680.019C508.461 678.858 509.219 678.067 509.219 678.067C517.361 669.603 534.62 643.898 545.575 635.458C558.993 625.296 573.778 617.076 589.491 611.042C593.637 608.098 599.468 602.81 604.233 598.512C612.176 603.367 628.574 613.469 636.433 618.183C636.574 618.126 640.004 616.913 640.322 616.801C650.079 609.018 659.014 600.259 666.991 590.661C667.1 590.76 667.227 590.861 667.227 590.861C667.227 590.861 674.943 597.018 678.809 599.796C694.701 608.26 723.958 619.568 732.827 622.505L803.362 678.072C804.406 678.124 805.344 678.172 806.785 678.192C807.492 678.199 808.182 678.407 808.775 678.794C809.367 679.18 809.837 679.728 810.128 680.372C811.958 684.566 813.346 688.939 814.268 693.421C816.169 703.269 816.767 713.323 816.045 723.326C815.017 736.688 813.837 747.726 805.791 758.319C797.979 768.582 785.551 774.829 773.893 768.479C769.327 766.194 765.297 762.968 762.068 759.013C753.873 748.579 746.125 737.808 738.824 726.699C744.307 753.22 751.672 786.139 758.327 816.002L698.628 815.995Z" fill="#7ABEE6"/>
<path d="M191.143 607.325C192.806 606.837 194.41 606.167 195.927 605.327C197.518 604.567 198.98 603.561 200.258 602.346C201.609 600.83 202.801 599.179 203.815 597.419C204.368 596.548 204.912 595.671 205.447 594.79C206.404 593.608 207.035 592.197 207.276 590.696C207.276 589.72 206.888 588.784 206.198 588.093C205.508 587.403 204.572 587.016 203.596 587.016C202.62 587.016 201.684 587.403 200.994 588.093C200.303 588.784 199.916 589.72 199.916 590.696V590.714L200.418 588.856C199.456 590.488 198.475 592.107 197.459 593.704C197.013 594.41 196.557 595.112 196.092 595.807C195.868 596.142 195.634 596.468 195.399 596.795C195.193 597.084 195.963 596.114 195.424 596.738C195.281 596.904 195.132 597.066 194.977 597.22C194.823 597.375 194.707 597.467 194.574 597.588C193.995 598.14 195.31 597.058 194.832 597.404C194.576 597.588 194.32 597.761 194.055 597.927C193.457 598.304 192.839 598.648 192.215 598.974C191.592 599.299 190.902 599.616 190.232 599.914C191.43 599.38 190.298 599.875 190.002 599.98C189.733 600.074 189.463 600.164 189.189 600.23C188.248 600.49 187.448 601.112 186.966 601.961C186.484 602.81 186.359 603.816 186.618 604.757C186.878 605.698 187.5 606.497 188.349 606.979C189.198 607.461 190.204 607.586 191.145 607.327L191.143 607.325Z" fill="#211715"/>
<path d="M464.789 421.488C452.269 413.564 437.714 409.451 422.898 409.652C408.082 409.853 393.644 414.357 381.343 422.618C372.369 428.741 364.95 436.876 359.677 446.374C354.403 455.872 351.42 466.47 350.966 477.324C350.67 485.156 351.601 492.987 353.726 500.531C354.685 500.26 355.674 500.114 356.67 500.097C359.177 500.007 361.619 500.899 363.478 502.583L373.208 494.798C380.526 487.024 393.424 475.322 402.443 470.831C403.501 470.304 404.848 471.04 405.26 472.751C405.598 474.087 405.68 475.474 405.5 476.84C405.435 477.234 405.48 477.639 405.631 478.01C405.781 478.38 406.03 478.702 406.35 478.941C406.671 479.179 407.051 479.325 407.449 479.362C407.847 479.399 408.248 479.326 408.607 479.151C415.047 475.752 426.53 468.899 434.659 465.658L446.656 467.193C450.68 468.845 454.4 471.158 457.661 474.038C464.899 480.185 471.816 488.594 474.846 496.176L484.37 503.628C486.258 501.976 488.717 501.127 491.222 501.262C492.156 501.294 493.083 501.437 493.982 501.691L494.166 500.684C496.261 493.512 497.213 486.055 496.989 478.586C496.166 454.999 485.737 438.924 474.127 428.57L464.789 421.488Z" fill="#85807F"/>
<path d="M513.265 815.995L512.934 810.972C512.308 795.314 510.928 769.48 510.579 754.669C510.003 731.434 508.054 703.295 507.346 679.53C508.466 678.661 509.219 678.067 509.219 678.067C517.361 669.603 534.62 643.899 545.575 635.459C550.024 632.038 554.65 628.854 559.434 625.918C551.279 621.052 543.735 616.546 543.735 616.546C525.048 606.705 504.86 600.026 483.991 596.781C483.991 596.781 450.816 592.322 425.057 592.628C399.866 592.928 363.528 597.425 363.528 597.425C348.091 599.633 316.804 610.108 302.698 619.922L286.858 628.557C290.786 630.929 294.544 633.573 298.104 636.469C304.811 641.967 310.984 649.877 317.111 656.931C324.381 665.29 328.464 671.34 336.359 679.195C335.864 703.679 333.844 729.564 333.231 754.665C332.881 769.477 331.501 795.31 330.876 810.968L330.747 815.991L513.265 815.995Z" fill="white"/>
<path d="M215.797 815.995C222.126 781.017 230.645 732.865 236.368 706.627C243.065 676.083 249.211 644.603 260.077 615.267C273.325 621.017 286.923 627.295 298.104 636.463C304.811 641.961 310.984 649.871 317.111 656.925C324.383 665.286 328.466 671.338 336.372 679.189C335.857 703.845 333.814 729.899 333.213 755.145C314.931 740.905 296.846 725.983 278.231 713.484C272.343 745.408 265.434 786.132 261.078 813.097L260.637 815.986L215.797 815.995Z" fill="#F8B8B4"/>
<path d="M219.344 816.974C223.863 791.992 228.299 766.996 233.026 742.054C237.709 717.343 242.902 692.729 248.603 668.214C252.309 651.701 256.94 635.409 262.473 619.416C264.063 614.945 256.953 613.02 255.376 617.458C245.33 645.703 239.486 675.165 233.094 704.386C228.112 727.166 223.999 750.142 219.824 773.081C217.281 787.057 214.756 801.036 212.247 815.016C212.015 815.957 212.153 816.951 212.632 817.793C213.112 818.635 213.896 819.261 214.823 819.542C215.765 819.793 216.767 819.663 217.614 819.181C218.461 818.699 219.084 817.904 219.35 816.966L219.344 816.974Z" fill="#211715"/>
<path d="M264.184 816.974C268.103 791.341 272.619 765.782 277.132 740.247C278.515 732.429 279.921 724.615 281.351 716.804C282.201 712.173 275.11 710.18 274.254 714.846C269.143 742.698 264.307 770.599 259.746 798.548C258.843 804.035 257.928 809.518 257.087 815.014C256.859 815.955 256.999 816.947 257.477 817.788C257.956 818.63 258.738 819.256 259.663 819.54C260.605 819.793 261.608 819.664 262.455 819.182C263.303 818.7 263.926 817.903 264.19 816.965L264.184 816.974Z" fill="#211715"/>
<path d="M133.403 815.995C146.871 788.524 162.051 757.539 168.877 736.784C180.686 689.497 187.84 643.785 199.007 594.238C183.049 603.521 165.401 609.53 147.094 611.913C137.642 614.582 128.969 619.48 121.802 626.194L97.9444 649.93L85.4786 650.462C66.6107 652.04 47.8449 654.663 29.2674 658.319C27.8478 658.59 26.5622 659.335 25.6208 660.431C24.6793 661.528 24.1376 662.911 24.0842 664.355C23.1255 692.012 29.3134 731.194 38.78 746.814C43.38 754.396 50.5963 761.239 58.063 760.963C69.204 760.553 75.2722 756.139 84.2623 749.544C94.0841 742.341 104.774 731.647 117.248 718.364C114.734 728.979 112.537 737.428 111.049 741.861C104.977 759.914 71.3052 803.229 61.6049 815.997L133.403 815.995Z" fill="#F8B8B4"/>
<path d="M799.044 627.274C798.082 625.929 796.937 624.725 795.64 623.697C788.648 619.397 782.576 615.622 775.881 612.35C774.278 611.605 772.636 610.947 770.962 610.38C768.22 609.438 765.218 609.603 762.594 610.838C760.395 611.885 757.488 615.833 758.283 618.566L752.323 619.316C750.625 619.046 749.092 618.132 747.414 617.76C745.624 617.484 743.793 617.676 742.099 618.317C740.405 618.958 738.905 620.025 737.745 621.416C735.459 624.226 733.779 627.479 732.811 630.969C731.956 633.695 731.91 636.61 732.676 639.361C732.925 640.237 733.386 641.038 734.018 641.693C734.651 642.349 735.435 642.838 736.301 643.118C737.528 643.537 738.832 643.684 740.122 643.548C741.411 643.412 742.656 642.998 743.769 642.333L743.3 646.565C742.433 647.461 741.712 648.489 741.166 649.61C740.582 651.062 740.425 652.65 740.712 654.188C740.999 655.726 741.719 657.151 742.787 658.294C745.28 660.861 747.901 663.3 750.642 665.601L753.819 662.171C756.859 664.687 759.282 667.857 759.584 671.044C761.608 688.501 765.902 695.631 772.791 697.539C778.244 698.971 783.942 699.208 789.495 698.233C790.994 697.865 797.774 695.918 798.763 694.737C800.702 692.402 802.853 690.678 803.627 687.58C804.169 684.992 804.162 682.32 803.607 679.736C803.055 676.624 802.109 668.711 801.736 663.443C801.219 656.448 801.423 649.419 802.347 642.467C803.256 638.147 802.66 633.646 800.658 629.712C800.185 628.858 799.645 628.043 799.044 627.274Z" fill="white"/>
<path d="M85.4788 646.78C75.0277 647.614 64.6135 648.839 54.2397 650.357C48.8572 651.145 43.4875 652.011 38.1307 652.957C35.7425 653.376 33.356 653.81 30.9714 654.258C28.722 654.489 26.5542 655.227 24.6309 656.416C20.8221 659.161 20.3989 663.2 20.3272 667.544C20.2701 671.357 20.3382 675.171 20.5112 678.98C20.8792 687.381 21.7071 695.753 22.8884 704.075C24.8921 718.21 27.63 733.147 34.1343 745.99C37.6487 752.934 43.2698 759.876 50.545 763.048C58.0098 766.303 67.1047 764.124 74.1168 760.61C81.8841 756.362 89.0871 751.154 95.5563 745.11C103.61 738.037 111.06 730.291 118.412 722.501C121.662 719.058 116.467 713.844 113.207 717.297C102.156 729.003 90.89 740.556 77.6477 749.808C71.8003 753.892 65.7192 756.984 58.4568 757.265C51.0969 757.554 45.2863 750.516 41.8603 744.775C39.245 740.105 37.2174 735.13 35.8234 729.962C33.8578 723.228 32.2929 716.383 31.137 709.464C28.5388 694.894 27.401 680.101 27.7404 665.305C27.6474 664.647 27.7688 663.977 28.0867 663.393C28.4045 662.809 28.9018 662.344 29.5049 662.065C31.9319 661.32 34.4311 660.835 36.9605 660.617C42.3185 659.645 47.6888 658.748 53.0713 657.925C63.8278 656.287 74.6321 655.027 85.4843 654.144C90.1744 653.776 90.2149 646.416 85.4843 646.784L85.4788 646.78Z" fill="#211715"/>
<path d="M214.168 803.991C202.799 805.174 190.997 803.916 179.713 802.486C168.033 801.014 155.841 799.071 144.858 794.655C143.917 794.403 142.914 794.532 142.066 795.014C141.219 795.496 140.596 796.293 140.332 797.231C140.097 798.172 140.233 799.167 140.713 800.01C141.192 800.853 141.979 801.479 142.908 801.757C154.316 806.346 166.947 808.197 179.074 809.769C190.567 811.254 202.591 812.562 214.174 811.356C215.141 811.329 216.061 810.933 216.746 810.248C217.43 809.564 217.826 808.644 217.854 807.677C217.847 806.703 217.458 805.77 216.769 805.081C216.08 804.393 215.148 804.003 214.174 803.997L214.168 803.991Z" fill="#211715"/>
<path d="M100.546 652.53L117.956 635.212C123.012 630.181 127.793 625.276 133.953 621.583C136.832 619.827 139.86 618.325 143 617.094C146.379 615.934 149.867 615.118 153.41 614.659C160.784 613.405 168.045 611.56 175.122 609.139C183.156 606.387 190.934 602.939 198.368 598.836C202.518 596.548 198.808 590.188 194.653 592.48C181.445 599.761 167.124 604.81 152.27 607.423C148.708 607.876 145.194 608.647 141.769 609.726C138.253 611.012 134.85 612.587 131.596 614.437C125.609 618.015 120.137 622.391 115.329 627.443L95.3428 647.326C91.9811 650.671 97.1827 655.877 100.546 652.53Z" fill="#211715"/>
<path d="M663.018 589.697C655.441 598.693 646.973 606.9 637.743 614.191C637.165 614.764 636.795 615.514 636.691 616.321C636.587 617.129 636.755 617.948 637.169 618.649C639.699 621.789 642.581 624.629 645.758 627.113C649.492 630.439 653.501 633.441 657.743 636.088C658.448 636.491 659.265 636.652 660.07 636.548C660.875 636.444 661.624 636.08 662.203 635.512C670.115 626.496 675.768 615.714 680.872 604.936C681.338 604.087 681.461 603.092 681.215 602.155C680.969 601.218 680.374 600.412 679.551 599.901C678.706 599.417 677.705 599.284 676.764 599.531C675.822 599.778 675.015 600.384 674.517 601.221C669.703 611.387 664.468 621.804 657 630.309L661.458 629.733C657.746 627.428 654.237 624.81 650.97 621.907C649.29 620.489 647.634 619.043 646.034 617.536C645.454 616.984 644.878 616.443 644.33 615.865C644.159 615.681 643.997 615.497 643.82 615.313C643.478 614.971 644.532 616.286 643.53 614.945L642.955 619.403C652.183 612.109 660.648 603.9 668.222 594.9C668.889 594.198 669.261 593.267 669.261 592.299C669.261 591.33 668.889 590.399 668.222 589.697C667.528 589.014 666.593 588.631 665.619 588.631C664.646 588.631 663.713 589.014 663.018 589.697Z" fill="#211715"/>
<path d="M603.203 602.196C613.652 608.59 624.065 615.05 634.569 621.355L633.248 616.321C628.965 622.503 624.02 628.198 618.502 633.308L622.962 632.734C613.714 625.878 605.182 618.105 597.495 609.534C594.345 605.984 589.155 611.204 592.29 614.739C600.432 623.742 609.464 631.899 619.248 639.085C619.951 639.492 620.769 639.656 621.575 639.552C622.381 639.448 623.13 639.081 623.708 638.509C629.661 632.946 634.991 626.75 639.603 620.032C640.083 619.187 640.214 618.187 639.967 617.246C639.721 616.305 639.117 615.498 638.284 614.996C627.779 608.691 617.367 602.231 606.918 595.837C602.87 593.358 599.164 599.721 603.203 602.192V602.196Z" fill="#211715"/>
<path d="M803.362 681.762C804.159 681.8 806.122 681.482 806.785 681.881C806.82 681.902 807.361 683.158 807.556 683.648C808.55 686.199 809.38 688.811 810.04 691.468C811.297 696.614 812.082 701.864 812.388 707.153C813.215 717.866 812.546 728.641 810.4 739.169C808.332 748.656 803.434 757.985 795.171 763.484C791.493 766.113 787.052 767.459 782.534 767.315C777.859 767.035 773.41 764.325 769.787 761.528C764.671 757.58 760.986 751.71 757.179 746.575C752.956 740.875 748.863 735.082 744.901 729.196C742.268 725.288 735.885 728.968 738.546 732.911C742.677 739.044 746.946 745.074 751.354 751C755.243 756.229 758.99 762.099 764.035 766.288C768.437 770.253 773.784 773.02 779.562 774.324C785.169 775.204 790.91 774.24 795.922 771.576C806.549 766.174 813.808 755.12 816.84 743.841C818.235 738.123 819.118 732.292 819.479 726.418C820.046 720.147 820.145 713.842 819.775 707.556C819.426 700.617 818.315 693.737 816.463 687.041C815.543 683.885 814.583 679.788 812.437 677.228C810.045 674.378 806.761 674.564 803.364 674.398C798.63 674.17 798.641 681.53 803.364 681.758L803.362 681.762Z" fill="#211715"/>
<path d="M733.804 618.958C725.458 616.18 717.265 612.886 709.126 609.55C703.889 607.408 698.688 605.177 693.525 602.856C688.973 600.796 683.762 598.91 679.725 595.933C676.366 593.456 673.091 590.862 669.828 588.26C669.125 587.596 668.194 587.227 667.227 587.227C666.259 587.227 665.329 587.596 664.625 588.26C663.941 588.953 663.557 589.888 663.557 590.862C663.557 591.837 663.941 592.772 664.625 593.465C667.75 595.956 670.903 598.415 674.082 600.842C678.268 603.755 682.758 606.204 687.474 608.144C697.973 612.991 708.69 617.387 719.489 621.534C723.585 623.107 727.692 624.662 731.856 626.055C736.36 627.554 738.295 620.448 733.811 618.958H733.804Z" fill="#211715"/>
<path d="M761.831 617.795C761.877 615.066 764.729 613.528 767.124 613.458C770.62 613.357 774.335 615.629 777.329 617.206C780.755 619.009 784.098 620.965 787.41 622.969C789.154 624.025 790.894 625.09 792.628 626.163C793.107 626.422 793.56 626.725 793.982 627.068C794.527 627.582 795.037 628.131 795.508 628.713C797.249 630.72 798.411 633.164 798.867 635.782C799.123 638.816 798.937 641.871 798.316 644.852C797.678 650.769 797.575 656.732 798.01 662.668C798.409 668.698 799.114 674.725 800.069 680.7C800.582 683.925 800.582 686.982 798.413 689.583C797.913 690.185 797.366 690.748 796.849 691.335C796.621 691.593 796.407 691.869 796.172 692.121C796.665 691.594 796.58 691.85 796.295 692.021C795.521 692.453 794.702 692.801 793.854 693.059C789.088 694.813 783.983 695.455 778.931 694.936C777.308 694.781 775.699 694.492 774.124 694.071C773.676 693.951 773.235 693.824 772.799 693.668C772.322 693.495 772.894 693.797 772.122 693.342C770.964 692.709 769.945 691.849 769.126 690.814C765.571 686.194 764.526 679.675 763.678 674.081C763.073 670.08 762.672 666.749 760.134 663.432C757.532 660.14 754.235 657.463 750.478 655.593C746.274 653.43 742.546 659.778 746.763 661.949C750.239 663.501 753.179 666.045 755.214 669.263C755.906 670.918 756.293 672.684 756.357 674.477C756.644 676.558 756.979 678.635 757.409 680.693C758.568 686.251 760.384 692.008 764.206 696.341C768.07 700.722 773.726 701.836 779.303 702.331C785.247 702.851 791.23 701.986 796.783 699.802C800.096 698.515 802.926 696.23 804.883 693.263C806.84 690.296 807.826 686.795 807.705 683.243C807.576 679.957 806.811 676.674 806.417 673.408C805.977 669.752 805.594 666.085 805.355 662.411C804.825 656.08 805.011 649.71 805.907 643.42C806.652 639.73 806.499 635.915 805.461 632.297C804.423 628.678 802.53 625.362 799.942 622.629C796.926 619.396 792.367 617.331 788.6 615.101C784.301 612.427 779.812 610.072 775.169 608.052C770.569 606.168 765.785 605.239 761.106 607.511C759.192 608.489 757.571 609.956 756.407 611.763C755.244 613.57 754.58 615.653 754.482 617.8C754.403 622.538 761.763 622.538 761.842 617.8L761.831 617.795Z" fill="#211715"/>
<path d="M779.078 626.947C774.808 624.651 770.469 622.467 766.118 620.323C764.608 619.482 763.028 618.772 761.396 618.201C759.484 617.65 757.451 617.68 755.555 618.287C753.66 618.894 751.988 620.051 750.752 621.611C749.372 623.382 748.549 625.522 748.388 627.761C748.227 630.001 748.735 632.237 749.847 634.187C750.091 634.604 750.414 634.97 750.8 635.262C751.185 635.554 751.623 635.767 752.091 635.89C752.558 636.013 753.046 636.042 753.524 635.976C754.003 635.911 754.465 635.751 754.882 635.507C755.299 635.263 755.664 634.94 755.957 634.555C756.249 634.17 756.462 633.731 756.585 633.263C756.707 632.796 756.737 632.309 756.671 631.83C756.605 631.351 756.446 630.89 756.202 630.472C756.083 630.283 755.975 630.088 755.878 629.887C756.025 630.244 756.025 630.218 755.878 629.806C755.81 629.582 755.753 629.355 755.707 629.125C755.738 629.455 755.742 629.493 755.72 629.214C755.681 628.785 755.681 628.354 755.72 627.926C755.657 628.573 755.865 627.4 755.904 627.249C755.956 627.065 756.018 626.884 756.088 626.706C755.985 627.003 756.03 626.947 756.222 626.54C756.335 626.341 756.458 626.149 756.59 625.962C756.366 626.261 756.393 626.251 756.671 625.931C756.804 625.823 757.553 625.293 756.953 625.663C757.137 625.541 757.327 625.43 757.523 625.33C757.144 625.466 757.157 625.462 757.562 625.318C757.733 625.272 758.677 625.089 757.902 625.177C758.066 625.158 759.374 625.232 758.688 625.122C759.067 625.182 759.413 625.333 759.792 625.409C760.314 625.512 758.791 624.943 759.255 625.177C759.935 625.519 760.642 625.821 761.33 626.154C766.044 628.443 770.732 630.809 775.347 633.291C776.195 633.763 777.192 633.89 778.131 633.644C779.069 633.397 779.876 632.798 780.383 631.97C780.864 631.125 780.995 630.125 780.749 629.184C780.502 628.243 779.896 627.436 779.062 626.936L779.078 626.947Z" fill="#211715"/>
<path d="M768.037 635.446C764.108 633.611 760.04 632.091 755.871 630.901C753.976 630.194 751.958 629.877 749.937 629.968C747.743 630.262 745.724 631.32 744.233 632.956C742.707 634.659 741.824 636.843 741.739 639.128C741.654 641.413 742.372 643.656 743.768 645.468C745.868 647.681 748.417 649.421 751.243 650.57C754.141 651.939 757.098 653.183 760.044 654.434C760.893 654.9 761.887 655.023 762.824 654.778C763.76 654.532 764.567 653.937 765.078 653.115C765.561 652.27 765.693 651.269 765.446 650.328C765.199 649.386 764.594 648.579 763.759 648.079C759.393 646.407 755.165 644.395 751.115 642.06C750.805 641.865 750.509 641.656 750.195 641.462C750.066 641.381 749.643 641.034 750.195 641.486C750.079 641.391 749.963 641.302 749.851 641.196C749.832 641.179 749.115 640.489 749.137 640.474C749.159 640.46 749.593 641.058 749.284 640.603C748.925 640.075 749.385 641.069 749.302 640.656C749.204 640.349 749.125 640.036 749.067 639.718C749.15 639.696 749.094 640.463 749.094 639.845C749.094 639.661 749.078 639.466 749.078 639.275C749.078 639.135 749.1 638.991 749.094 638.853C749.072 638.358 748.87 639.453 749.065 639.023C749.108 638.9 749.137 638.773 749.151 638.643C749.262 637.931 748.859 639.081 749.096 638.715C749.262 638.459 749.694 637.836 749.238 638.367C749.494 638.071 749.777 637.816 750.046 637.543C750.009 637.584 749.523 637.878 749.862 637.689C750.025 637.598 750.176 637.484 750.342 637.392C750.463 637.324 750.59 637.267 750.71 637.208C750.003 637.591 750.487 637.302 750.728 637.254C751.668 637.07 750.253 637.24 750.923 637.223C751.694 637.201 750.688 637.194 750.717 637.162C750.889 637.191 751.058 637.233 751.223 637.287C752.006 637.487 752.787 637.693 753.567 637.906C755.425 638.396 757.254 638.992 759.045 639.689C760.062 640.09 761.084 640.482 762.103 640.883C762.543 641.056 762.981 641.232 763.42 641.409C764.099 641.685 763.604 641.483 763.457 641.422C763.739 641.543 764.02 641.668 764.298 641.79C765.146 642.259 766.143 642.383 767.08 642.137C768.018 641.891 768.825 641.294 769.334 640.469C769.815 639.623 769.946 638.623 769.699 637.683C769.452 636.742 768.847 635.935 768.013 635.435L768.037 635.446Z" fill="#211715"/>
<path d="M749.615 641.733C747.978 641.348 746.27 641.382 744.649 641.83C743.028 642.278 741.545 643.127 740.338 644.298C738.132 646.493 736.883 649.469 736.86 652.581C736.838 655.692 738.045 658.686 740.218 660.913C741.337 662.094 742.529 663.213 743.714 664.335C745.304 665.924 747.001 667.403 748.793 668.76C749.637 669.248 750.639 669.383 751.582 669.136C752.526 668.889 753.333 668.279 753.829 667.439C754.295 666.59 754.418 665.595 754.172 664.659C753.926 663.722 753.33 662.915 752.507 662.405C751.86 661.938 753.168 662.972 752.691 662.545C752.559 662.427 752.417 662.319 752.281 662.203C751.913 661.884 751.545 661.557 751.177 661.227C750.386 660.512 749.61 659.781 748.839 659.045C747.586 657.847 746.41 656.546 745.137 655.365C744.966 655.163 745.018 655.231 745.291 655.569C745.184 655.419 745.083 655.262 744.986 655.102C744.84 654.857 744.717 654.603 744.586 654.35C744.986 655.117 744.603 654.368 744.535 654.155C744.367 653.801 744.27 653.418 744.25 653.027L744.296 653.431C744.274 653.247 744.257 653.047 744.248 652.856C744.235 652.567 744.248 652.283 744.248 651.996C744.287 651.573 744.277 651.619 744.218 652.134C744.251 651.95 744.294 651.766 744.342 651.582C744.412 651.332 744.787 650.675 744.358 651.431C744.697 650.835 745.05 650.256 745.409 649.672C745.797 649.043 745.013 649.985 745.556 649.488C745.716 649.341 746.237 649.001 745.668 649.332C745.757 649.279 746.728 648.727 746.25 648.953C745.771 649.179 746.761 648.747 746.885 648.797C746.425 648.844 746.332 648.855 746.62 648.833C746.767 648.819 746.914 648.813 747.063 648.813C747.212 648.813 748.509 648.944 747.672 648.813C748.613 649.046 749.608 648.909 750.451 648.429C751.293 647.95 751.92 647.165 752.2 646.237C752.448 645.296 752.317 644.295 751.836 643.448C751.354 642.602 750.56 641.979 749.624 641.711L749.615 641.733Z" fill="#211715"/>
<path d="M753.302 615.76C751.415 615.401 749.725 614.406 747.825 614.104C745.789 613.745 743.697 613.894 741.733 614.536C737.765 615.979 734.458 618.817 732.43 622.52C730.269 626.093 728.924 630.099 728.492 634.252C728.19 638.483 729.267 642.975 732.908 645.486C734.828 646.644 737.026 647.257 739.268 647.261C741.51 647.264 743.71 646.657 745.633 645.505C746.476 645.012 747.089 644.205 747.336 643.261C747.584 642.316 747.446 641.312 746.954 640.47C746.461 639.627 745.654 639.014 744.709 638.767C743.765 638.519 742.761 638.657 741.918 639.149C741.543 639.377 741.14 639.556 740.719 639.681C740.61 639.714 739.517 639.948 740.099 639.865C739.727 639.912 739.352 639.928 738.978 639.913C738.746 639.913 738.515 639.895 738.283 639.873C738.719 639.939 738.73 639.935 738.319 639.862C738.055 639.788 737.784 639.713 737.517 639.648C736.873 639.494 738.01 640.003 737.306 639.552C737.116 639.454 736.932 639.345 736.754 639.227C737.017 639.451 737.052 639.477 736.855 639.304C736.729 639.196 736.61 639.08 736.498 638.958C736.71 639.271 736.693 639.245 736.452 638.881C736.069 638.38 736.391 639.045 736.229 638.379C736.113 637.896 735.983 637.418 735.905 636.925C735.831 636.18 735.807 635.432 735.834 634.684C736.038 632.964 736.485 631.282 737.162 629.688C737.795 628.028 738.61 626.442 739.593 624.961C739.972 624.416 740.408 623.912 740.892 623.456C741.01 623.342 741.959 622.555 741.648 622.781C741.966 622.552 742.295 622.341 742.636 622.148C743.705 621.422 745.001 621.11 746.283 621.269C745.705 621.23 746.892 621.418 747.065 621.469C747.547 621.611 748.016 621.788 748.487 621.966C749.414 622.347 750.373 622.647 751.352 622.86C752.293 623.094 753.288 622.957 754.13 622.478C754.973 621.998 755.599 621.213 755.878 620.284C756.128 619.343 755.998 618.341 755.516 617.494C755.035 616.648 754.239 616.024 753.302 615.758V615.76Z" fill="#211715"/>
<path d="M601.378 596.144C597.793 599.375 594.222 602.632 590.479 605.679C589.086 606.883 587.511 607.86 585.813 608.575C583.36 609.579 580.919 610.622 578.49 611.703C569.462 615.735 560.781 620.503 552.535 625.959C546.132 630.045 540.266 634.919 535.076 640.465C529.884 646.199 525.14 652.326 520.395 658.434C516.093 664.338 511.495 670.02 506.617 675.458C503.349 678.886 508.545 684.106 511.821 680.661C516.019 676.018 519.978 671.162 523.681 666.114C528.465 659.947 533.214 653.75 538.335 647.864C543.021 642.447 548.391 637.661 554.309 633.626C562.445 628.074 571.028 623.209 579.969 619.079C582.545 617.883 585.145 616.745 587.769 615.664C589.079 615.216 590.355 614.673 591.587 614.041C592.64 613.341 593.648 612.573 594.603 611.743C598.75 608.463 602.655 604.878 606.581 601.342C610.108 598.164 604.89 592.972 601.378 596.137V596.144Z" fill="#211715"/>
<path d="M483.012 600.333C503.593 603.407 523.5 609.966 541.877 619.729C546.063 621.937 549.788 615.589 545.592 613.373C526.672 603.265 506.168 596.453 484.961 593.231C484.02 593.004 483.028 593.144 482.187 593.623C481.347 594.101 480.72 594.882 480.434 595.807C480.182 596.749 480.311 597.752 480.793 598.599C481.275 599.446 482.072 600.069 483.01 600.333H483.012Z" fill="#211715"/>
<path d="M558.068 729.917C542.901 741.078 528.261 752.906 513.699 764.834C513.015 765.528 512.632 766.463 512.632 767.437C512.632 768.411 513.015 769.346 513.699 770.04C514.4 770.71 515.332 771.083 516.302 771.083C517.271 771.083 518.204 770.71 518.905 770.04C532.986 758.507 547.121 747.062 561.776 736.272C562.597 735.761 563.191 734.954 563.437 734.018C563.683 733.082 563.561 732.087 563.097 731.238C562.599 730.401 561.792 729.793 560.85 729.546C559.907 729.299 558.906 729.432 558.061 729.917H558.068Z" fill="#211715"/>
<path d="M276.422 716.705C294.305 728.751 311.013 742.411 327.971 755.696C328.675 756.358 329.606 756.726 330.572 756.726C331.539 756.726 332.469 756.358 333.174 755.696C333.859 755.002 334.243 754.067 334.243 753.093C334.243 752.119 333.859 751.184 333.174 750.49C315.724 736.821 298.538 722.745 280.137 710.349C276.197 707.696 272.51 714.068 276.422 716.705Z" fill="#211715"/>
<path d="M304.555 623.099C313.451 616.974 323.792 612.862 333.912 609.255C343.815 605.504 354.062 602.731 364.505 600.976C365.444 600.712 366.241 600.089 366.724 599.242C367.206 598.394 367.334 597.391 367.081 596.449C366.802 595.521 366.176 594.735 365.333 594.256C364.49 593.776 363.496 593.639 362.555 593.873C351.888 595.671 341.425 598.522 331.321 602.385C320.85 606.151 310.062 610.398 300.846 616.737C296.969 619.405 300.645 625.786 304.561 623.092L304.555 623.099Z" fill="#211715"/>
<path d="M254.993 617.05C270.227 623.616 286.494 630.351 298.715 641.909C311.195 653.713 320.651 668.344 332.602 680.635C335.914 684.037 341.112 678.83 337.805 675.432C328.438 665.798 320.37 654.887 311.532 644.769C307.054 639.515 302.016 634.764 296.509 630.601C291.11 626.678 285.4 623.201 279.436 620.205C272.67 616.735 265.695 613.703 258.714 610.692C257.864 610.231 256.871 610.111 255.936 610.356C255.001 610.601 254.194 611.193 253.68 612.012C253.194 612.856 253.06 613.858 253.307 614.8C253.554 615.743 254.162 616.55 254.999 617.048L254.993 617.05Z" fill="#211715"/>
<path d="M467.917 598.045C461.295 606.615 452.356 613.107 442.157 616.754C434.794 619.119 427.018 619.923 419.327 619.113C411.635 618.303 404.197 615.897 397.488 612.049C391.028 608.494 384.666 603.769 380.888 597.29C378.496 593.204 372.137 596.904 374.533 601.005C378.574 607.398 384.089 612.728 390.616 616.548C398.136 621.285 406.513 624.5 415.272 626.011C423.169 627.343 431.254 627.076 439.046 625.226C446.839 623.375 454.181 619.979 460.636 615.239C465.821 611.44 470.418 606.898 474.28 601.76C474.766 600.916 474.9 599.914 474.653 598.972C474.406 598.03 473.798 597.223 472.96 596.726C472.112 596.256 471.116 596.131 470.178 596.376C469.24 596.622 468.433 597.22 467.924 598.045H467.917Z" fill="#211715"/>
<path d="M568.805 523.296C566.629 521.779 564.069 520.908 561.419 520.785C558.77 520.662 556.14 521.291 553.833 522.6C552.145 523.636 550.711 525.038 549.636 526.701C548.562 528.365 547.874 530.248 547.623 532.212C546.958 536.821 547.267 541.518 548.531 545.999C549.795 550.481 551.984 554.647 554.959 558.229C558.953 563.175 564.711 566.325 571.151 565.072C572.087 564.805 572.882 564.182 573.363 563.335C573.845 562.489 573.975 561.487 573.727 560.546C573.451 559.615 572.826 558.826 571.981 558.346C571.137 557.865 570.14 557.731 569.198 557.97C564.937 558.802 561.252 554.809 559.171 551.596C556.944 548.339 555.458 544.634 554.819 540.74C554.293 537.325 554.219 533.173 556.09 530.203C556.49 529.568 555.767 530.492 556.302 529.947C556.486 529.763 557.038 529.244 557.047 529.241C557.708 528.828 558.43 528.524 559.187 528.341C560.204 528.082 561.268 528.065 562.293 528.292C563.318 528.52 564.275 528.984 565.088 529.649C565.932 530.136 566.934 530.271 567.876 530.024C568.819 529.777 569.626 529.168 570.122 528.33C570.591 527.482 570.715 526.486 570.47 525.548C570.224 524.61 569.627 523.803 568.803 523.294L568.805 523.296Z" fill="#211715"/>
<path d="M690.188 521.181C690.896 520.495 691.751 519.979 692.689 519.673C693.627 519.366 694.622 519.277 695.599 519.413C696.417 519.485 697.209 519.736 697.919 520.149C698.655 520.585 698.403 520.442 699.104 521.17C699.636 521.722 698.823 520.675 699.203 521.29C699.448 521.687 699.702 522.065 699.91 522.484C700.279 523.264 700.566 524.081 700.767 524.92C701.293 527.03 701.519 529.203 701.439 531.375C701.3 535.077 700.396 538.711 698.784 542.047C696.898 546.017 693.827 550.362 688.947 550.069C684.215 549.786 684.233 557.146 688.947 557.429C699.708 558.073 705.763 546.757 707.986 537.798C709.886 530.137 709.252 518.046 701.45 513.695C698.816 512.286 695.804 511.748 692.845 512.158C689.886 512.569 687.134 513.906 684.982 515.978C681.606 519.31 686.811 524.514 690.188 521.181Z" fill="#211715"/>
<path d="M685.479 548.329C684.135 557.122 680.835 565.501 675.823 572.85C670.412 581.386 662.943 590.801 652.855 593.8C648.325 595.149 650.255 602.253 654.81 600.897C666.487 597.423 675.17 587.347 681.591 577.477C687.158 569.305 690.905 560.031 692.576 550.284C692.803 549.344 692.663 548.352 692.185 547.511C691.706 546.67 690.925 546.043 690 545.758C689.058 545.506 688.055 545.635 687.208 546.117C686.361 546.599 685.738 547.396 685.474 548.334L685.479 548.329Z" fill="#211715"/>
<path d="M565.785 557.907C572.702 580.581 591.657 602.775 616.524 604.764C621.246 605.141 621.222 597.772 616.524 597.404C605.648 596.534 596.469 590.631 588.95 583.039C581.478 575.446 575.964 566.149 572.882 555.951C571.504 551.434 564.398 553.359 565.785 557.907Z" fill="#211715"/>
<path d="M663.834 434.935C652.549 428.922 640 425.668 627.216 425.439C614.431 425.21 601.774 428.013 590.281 433.617C580.913 438.314 572.625 444.91 565.945 452.985C559.264 461.059 554.338 470.436 551.479 480.518C547.629 495.215 548.21 510.721 553.152 525.088C554.644 529.559 561.754 527.642 560.251 523.132C556.141 511.393 555.227 498.771 557.603 486.563C559.604 476.843 563.795 467.707 569.857 459.85C576.163 451.772 584.159 445.171 593.285 440.51C602.411 435.848 612.446 433.238 622.686 432.863C635.7 432.189 648.649 435.104 660.119 441.29C664.286 443.544 668.007 437.191 663.834 434.935Z" fill="#211715"/>
<path d="M700.683 515.899C702.298 507.996 702.709 499.894 701.903 491.867C701.086 484.5 699.237 477.284 696.41 470.432C691.666 459.175 684.09 449.338 674.419 441.877C673.714 441.215 672.784 440.847 671.817 440.847C670.851 440.847 669.92 441.215 669.216 441.877C668.531 442.57 668.147 443.505 668.147 444.479C668.147 445.453 668.531 446.388 669.216 447.08C678.037 453.787 685.006 462.627 689.468 472.77C694.901 485.778 696.334 500.11 693.584 513.936C692.738 518.565 699.829 520.56 700.683 515.892V515.899Z" fill="#211715"/>
<path d="M619.853 573.111C623.774 574.825 628.06 575.535 632.324 575.178C636.684 575.086 640.9 573.598 644.35 570.931C645.035 570.238 645.42 569.303 645.42 568.328C645.42 567.354 645.035 566.419 644.35 565.726C643.649 565.057 642.717 564.685 641.748 564.685C640.779 564.685 639.847 565.057 639.145 565.726C638.503 566.278 639.763 565.326 639.283 565.632C639.051 565.777 638.832 565.939 638.599 566.081C638.365 566.222 638.091 566.37 637.829 566.502C637.662 566.607 637.483 566.691 637.296 566.752C637.434 566.793 638.155 566.423 637.48 566.67C636.639 566.981 635.778 567.236 634.904 567.433C634.611 567.499 634.319 567.558 634.024 567.617C633.932 567.636 633.075 567.779 633.561 567.702C634.046 567.625 633.13 567.751 633.036 567.761C632.668 567.797 632.305 567.828 631.945 567.853C630.747 567.935 629.545 567.941 628.346 567.869C628.101 567.855 627.857 567.836 627.61 567.812L627.193 567.768C626.905 567.733 627.009 567.75 627.509 567.812C627.1 567.806 626.695 567.733 626.309 567.597C625.601 567.447 624.902 567.251 624.219 567.01C623.974 566.923 623.733 566.826 623.492 566.736C622.708 566.434 624.442 567.146 623.559 566.763C622.71 566.297 621.715 566.173 620.778 566.419C619.841 566.665 619.034 567.261 618.524 568.085C618.042 568.929 617.91 569.93 618.157 570.871C618.403 571.812 619.009 572.619 619.844 573.119L619.853 573.111Z" fill="#211715"/>
<path d="M628.197 544.878C628.528 545.848 628.837 546.827 629.132 547.808C629.48 548.828 629.75 549.874 629.94 550.936L629.809 549.957C629.833 550.162 629.833 550.368 629.809 550.573L629.94 549.594C629.922 549.689 629.898 549.782 629.866 549.872L630.234 548.993C630.196 549.077 630.149 549.158 630.094 549.234L630.67 548.488C630.631 548.539 630.586 548.584 630.536 548.623L631.272 548.049C631.053 548.201 630.818 548.331 630.573 548.435L631.452 548.067C631.212 548.163 630.961 548.23 630.705 548.268L631.684 548.137C631.215 548.154 630.746 548.13 630.282 548.065C629.554 548.065 628.843 548.281 628.238 548.686C627.633 549.09 627.161 549.665 626.883 550.337C626.604 551.009 626.531 551.749 626.673 552.463C626.815 553.177 627.166 553.832 627.68 554.347C628.39 555.006 629.313 555.389 630.282 555.425C630.668 555.475 631.057 555.505 631.446 555.515C632.57 555.478 633.669 555.17 634.648 554.617C635.24 554.306 635.757 553.871 636.167 553.343C636.577 552.814 636.869 552.204 637.023 551.554C637.231 550.494 637.188 549.4 636.898 548.36C636.446 546.52 635.89 544.718 635.279 542.932C635.002 542.017 634.401 541.236 633.588 540.733C633.171 540.489 632.71 540.329 632.231 540.263C631.752 540.197 631.265 540.227 630.797 540.349C630.329 540.472 629.89 540.685 629.505 540.977C629.12 541.27 628.796 541.635 628.552 542.052C628.305 542.476 628.145 542.946 628.082 543.433C628.018 543.92 628.053 544.414 628.184 544.888L628.197 544.878Z" fill="#211715"/>
<path d="M596.137 530.525C595.344 533.737 596.47 540.939 602.66 541.153C610.784 540.573 610.644 531.789 607.639 527.85C605.177 524.626 598.5 523.654 596.137 530.525Z" fill="#211715"/>
<path d="M661.23 526.265C662.435 529.349 662.259 536.634 656.148 537.653C648.017 538.137 647.013 529.408 649.478 525.112C651.493 521.596 657.988 519.763 661.23 526.265Z" fill="#211715"/>
<path d="M243.394 252.645L287.055 359.652C287.339 360.578 287.966 361.36 288.807 361.838C289.648 362.317 290.641 362.457 291.581 362.228C292.52 361.965 293.318 361.342 293.8 360.495C294.282 359.647 294.411 358.643 294.157 357.702L250.491 250.687C250.207 249.762 249.581 248.979 248.739 248.501C247.898 248.022 246.905 247.882 245.965 248.111C245.026 248.375 244.229 248.998 243.747 249.845C243.265 250.693 243.136 251.696 243.389 252.638L243.394 252.645Z" fill="#211715"/>
<path d="M112.782 309.137C128.054 327.776 143.808 346.031 159.6 364.226C164.185 369.511 168.794 374.774 173.428 380.015C176.574 383.568 181.764 378.346 178.631 374.812C161.431 355.4 144.566 335.672 127.883 315.82C124.563 311.875 121.264 307.913 117.985 303.934C114.983 300.267 109.803 305.5 112.782 309.137Z" fill="#211715"/>
<path d="M600.831 250.687L557.169 357.696C556.916 358.638 557.045 359.641 557.527 360.488C558.01 361.336 558.806 361.959 559.745 362.223C560.686 362.458 561.681 362.322 562.524 361.842C563.367 361.363 563.993 360.576 564.271 359.647L607.933 252.639C608.186 251.698 608.058 250.694 607.575 249.847C607.093 249 606.296 248.377 605.358 248.113C604.417 247.877 603.421 248.013 602.578 248.493C601.735 248.973 601.109 249.76 600.831 250.689V250.687Z" fill="#211715"/>
<path d="M733.337 303.935C718.065 322.573 702.309 340.828 686.519 359.023C681.931 364.306 677.322 369.569 672.691 374.812C669.563 378.345 674.747 383.569 677.895 380.016C695.095 360.604 711.953 340.877 728.645 321.026C731.957 317.079 735.255 313.116 738.54 309.138C741.517 305.502 736.332 300.266 733.337 303.935Z" fill="#211715"/>
<path d="M701.145 550.932C706.976 557.506 714.146 562.757 722.174 566.333C730.055 569.582 738.212 572.119 746.546 573.913L744.347 568.508C740.731 576.967 736.171 584.991 730.753 592.427L734.908 590.736C729.856 588.979 723.881 584.832 719.066 581.352C711.858 576.169 705.199 570.26 699.194 563.72C695.994 560.215 690.8 565.431 693.991 568.925C700.454 575.899 707.613 582.193 715.358 587.708C720.709 591.908 726.637 595.316 732.96 597.827C733.742 598.029 734.569 597.974 735.317 597.669C736.066 597.365 736.697 596.827 737.116 596.137C742.533 588.7 747.093 580.676 750.71 572.217C750.982 571.727 751.141 571.182 751.174 570.623C751.208 570.063 751.115 569.503 750.903 568.984C750.691 568.465 750.365 568.001 749.95 567.624C749.534 567.248 749.039 566.97 748.502 566.811C740.777 565.201 733.21 562.913 725.889 559.972C718.423 556.688 711.757 551.827 706.348 545.723C703.189 542.181 697.998 547.401 701.145 550.927V550.932Z" fill="#211715"/>
<path d="M656.159 493.647C656.989 494.48 657.756 495.373 658.507 496.278C658.967 496.83 659.427 497.397 659.867 497.963C660.092 498.249 660.318 498.535 660.542 498.822C660.658 498.972 660.772 499.121 660.888 499.268C661.157 499.614 660.503 498.765 660.928 499.323C663.239 502.342 665.528 505.382 667.856 508.383C670.038 511.191 672.272 513.978 674.693 516.578C676.608 518.834 678.892 520.749 681.448 522.24C684.272 523.682 688.02 523.969 690.188 521.182C690.849 520.477 691.217 519.547 691.217 518.58C691.217 517.613 690.849 516.683 690.188 515.978C689.494 515.294 688.559 514.911 687.585 514.911C686.611 514.911 685.676 515.294 684.982 515.978C684.846 516.117 684.717 516.262 684.596 516.414C684.353 516.827 685.44 515.862 684.806 516.23C684.37 516.475 685.805 515.879 685.155 516.065C684.541 516.249 686.234 515.954 685.429 516.013C684.732 516.065 686.04 516.216 685.718 516.059C685.554 515.991 685.383 515.943 685.207 515.916C684.537 515.805 685.943 516.339 685.321 515.967C685.085 515.827 684.835 515.713 684.6 515.574C684.401 515.456 684.208 515.329 684.016 515.206C683.915 515.137 683.096 514.549 683.615 514.931C684.134 515.314 683.393 514.747 683.28 514.652C682.971 514.392 682.67 514.126 682.371 513.853C681.332 512.904 680.347 511.89 679.407 510.85C677.17 508.401 675.094 505.807 673.059 503.189L672.656 502.67C673.056 503.185 672.706 502.732 672.631 502.633C672.366 502.287 672.099 501.941 671.834 501.593C671.31 500.909 670.788 500.223 670.266 499.535C669.275 498.228 668.285 496.918 667.284 495.617C665.465 493.105 663.487 490.712 661.363 488.452C658.014 485.094 652.809 490.292 656.159 493.656V493.647Z" fill="#211715"/>
<path d="M448.921 576.762C449.011 579.877 449.605 582.958 450.678 585.884C451.922 588.698 453.76 591.209 456.066 593.244C460.111 596.963 464.509 600.279 469.198 603.145C470.043 603.629 471.044 603.762 471.986 603.515C472.928 603.268 473.735 602.661 474.234 601.824C474.705 600.977 474.831 599.979 474.585 599.041C474.339 598.103 473.74 597.296 472.913 596.79C470.837 595.465 468.771 594.124 466.776 592.678C466.531 592.501 466.286 592.322 466.04 592.142C465.992 592.105 465.451 591.699 465.696 591.886C465.992 592.111 465.28 591.557 465.218 591.507C464.982 591.323 464.747 591.128 464.515 590.937C463.596 590.179 462.703 589.394 461.834 588.582C460.108 587.226 458.678 585.529 457.635 583.597C457.6 583.518 457.319 582.74 457.164 582.221C456.98 581.628 456.84 581.027 456.715 580.421C456.462 579.218 456.314 577.995 456.272 576.765C456.272 575.789 455.884 574.853 455.194 574.163C454.504 573.473 453.568 573.085 452.592 573.085C451.616 573.085 450.68 573.473 449.99 574.163C449.3 574.853 448.912 575.789 448.912 576.765L448.921 576.762Z" fill="#211715"/>
<path d="M379.571 602.332C384.156 599.635 388.477 596.511 392.476 593.003C394.646 591.248 396.452 589.087 397.794 586.641C399.088 583.709 399.882 580.581 400.143 577.387C400.141 576.412 399.753 575.478 399.063 574.788C398.373 574.098 397.439 573.71 396.464 573.708C395.496 573.734 394.575 574.13 393.89 574.814C393.206 575.499 392.81 576.42 392.784 577.387C392.784 577.373 392.66 578.359 392.703 578.074C392.752 577.741 392.603 578.661 392.587 578.745C392.474 579.378 392.342 580.008 392.182 580.631C392.022 581.255 391.832 581.838 391.63 582.435C391.573 582.607 391.446 582.957 391.589 582.591C391.449 582.928 391.289 583.256 391.111 583.575C390.997 583.785 390.872 583.989 390.743 584.19C390.743 584.175 390.191 584.95 390.401 584.687C390.634 584.394 390.051 585.082 390 585.141C389.799 585.364 389.591 585.581 389.381 585.796C388.533 586.661 387.637 587.48 386.732 588.284C385.908 589.02 385.061 589.723 384.2 590.411C383.339 591.099 384.506 590.184 384.016 590.558C383.792 590.725 383.569 590.895 383.343 591.06C382.89 591.393 382.434 591.72 381.974 592.041C379.985 593.426 377.926 594.709 375.861 595.977C375.019 596.469 374.406 597.277 374.158 598.221C373.911 599.165 374.049 600.169 374.541 601.012C375.034 601.855 375.841 602.467 376.785 602.715C377.73 602.962 378.733 602.825 379.576 602.332H379.571Z" fill="#211715"/>
<path d="M366.098 499.978C364.061 498.18 361.55 497.005 358.864 496.594C356.179 496.184 353.431 496.554 350.95 497.661C349.205 498.504 347.669 499.723 346.453 501.231C345.237 502.74 344.371 504.499 343.918 506.383C342.811 510.852 342.665 515.505 343.49 520.034C344.314 524.564 346.091 528.867 348.702 532.659C352.179 537.771 357.568 542.227 364.135 541.452C365.102 541.424 366.022 541.027 366.706 540.343C367.39 539.659 367.786 538.739 367.815 537.772C367.809 536.798 367.42 535.866 366.731 535.177C366.042 534.488 365.109 534.098 364.135 534.093C355.767 535.071 350.946 523.165 350.402 516.348C350.12 512.802 350.17 508.419 352.398 505.464C351.866 506.173 353.371 504.651 353.097 504.844C353.748 504.389 354.487 504.075 355.267 503.924C356.238 503.683 357.253 503.67 358.231 503.887C359.208 504.104 360.122 504.545 360.901 505.176C364.442 508.304 369.668 503.109 366.104 499.972L366.098 499.978Z" fill="#211715"/>
<path d="M486.985 506.226C487.729 505.653 488.592 505.251 489.51 505.049C490.428 504.847 491.38 504.85 492.297 505.058C492.972 505.146 493.623 505.37 494.21 505.715C494.797 506.06 495.308 506.52 495.713 507.067C495.345 506.613 495.623 506.922 495.776 507.224C495.951 507.568 496.168 507.882 496.328 508.239C496.64 509.025 496.874 509.839 497.027 510.67C497.424 512.798 497.515 514.972 497.298 517.126C496.92 520.821 495.775 524.397 493.936 527.624C492.096 530.978 488.561 535.85 484.125 535.252C483.185 535.026 482.194 535.167 481.353 535.646C480.512 536.124 479.885 536.904 479.599 537.828C479.346 538.77 479.475 539.773 479.957 540.62C480.439 541.468 481.236 542.091 482.175 542.354C493.454 543.874 500.3 533.493 503.401 524.047C505.911 516.398 505.833 504.583 498.365 499.641C495.811 498.089 492.831 497.387 489.853 497.636C486.875 497.885 484.052 499.073 481.792 501.029C481.11 501.723 480.728 502.657 480.728 503.63C480.728 504.604 481.11 505.538 481.792 506.232C482.492 506.904 483.424 507.279 484.394 507.279C485.364 507.279 486.296 506.904 486.996 506.232L486.985 506.226Z" fill="#211715"/>
<path d="M479.993 533.395C479.269 536.621 478.248 539.773 476.944 542.811C476.78 543.191 475.536 545.92 476.107 544.673C475.834 545.267 475.555 545.858 475.259 546.441C473.299 550.179 471.033 553.748 468.486 557.113C462.428 565.269 454.207 573.891 443.913 576.142C439.289 577.154 441.247 584.25 445.871 583.239C457.755 580.64 467.104 571.032 474.19 561.696C476.996 558.075 479.48 554.216 481.614 550.163C481.949 549.512 482.262 548.851 482.554 548.18C482.545 548.202 483.29 546.524 482.882 547.444C483.204 546.724 483.526 546.007 483.829 545.28C485.203 542.074 486.294 538.755 487.09 535.359C488.124 530.746 481.029 528.775 479.993 533.403V533.395Z" fill="#211715"/>
<path d="M360.069 534.107C365.153 556.619 382.309 580.464 406.436 584.199C407.377 584.427 408.37 584.288 409.211 583.809C410.053 583.33 410.68 582.548 410.964 581.623C411.216 580.681 411.086 579.678 410.604 578.831C410.122 577.983 409.326 577.36 408.388 577.094C386.627 573.727 371.736 552.409 367.16 532.144C366.119 527.526 359.02 529.482 360.063 534.102L360.069 534.107Z" fill="#211715"/>
<path d="M466.647 418.307C455.794 411.474 443.467 407.328 430.69 406.215C417.913 405.102 405.054 407.054 393.183 411.907C383.556 415.957 374.872 421.956 367.677 429.527C360.483 437.097 354.933 446.075 351.379 455.896C346.506 470.275 345.994 485.774 349.907 500.443C351.068 505.032 358.168 503.087 357.003 498.485C351.504 476.774 356.021 453.467 371.134 436.598C377.068 429.932 384.204 424.444 392.169 420.419C403.03 415.186 415.031 412.766 427.071 413.381C439.829 413.841 452.226 417.738 462.951 424.662C466.951 427.223 470.646 420.857 466.666 418.307H466.647Z" fill="#211715"/>
<path d="M497.721 501.659C501.869 486.752 501.534 470.953 496.757 456.236C492.79 444.595 485.895 434.17 476.734 425.965C473.22 422.807 467.998 427.989 471.531 431.17C479.795 438.47 486.039 447.777 489.658 458.194C494.078 471.63 494.414 486.076 490.624 499.703C489.428 504.289 496.525 506.246 497.721 501.659Z" fill="#211715"/>
<path d="M413.032 553.146C416.732 555.044 420.835 556.021 424.992 555.992C428.935 556.027 433.579 555.457 436.853 553.026C437.678 552.517 438.275 551.71 438.521 550.772C438.767 549.835 438.643 548.838 438.174 547.99C437.674 547.156 436.867 546.55 435.926 546.304C434.985 546.057 433.985 546.189 433.14 546.671C432.744 546.962 432.327 547.222 431.89 547.447C431.765 547.512 431.636 547.57 431.509 547.631C430.893 547.942 431.78 547.567 431.796 547.519C431.749 547.662 430.853 547.861 430.705 547.907C429.836 548.16 428.951 548.358 428.056 548.5C428.976 548.336 427.953 548.5 427.811 548.516C427.537 548.544 427.259 548.564 426.985 548.581C426.321 548.621 425.656 548.636 424.992 548.63C424.385 548.63 423.776 548.605 423.169 548.562C422.838 548.538 422.506 548.505 422.175 548.476C421.439 548.411 422.512 548.544 422.083 548.476C421.18 548.332 420.286 548.137 419.404 547.892C419.036 547.783 418.668 547.661 418.3 547.524C418.151 547.469 418.004 547.409 417.855 547.353C417.196 547.112 418.685 547.745 418.096 547.453C417.651 547.232 417.2 547.022 416.758 546.79C415.916 546.298 414.912 546.16 413.967 546.408C413.023 546.655 412.216 547.268 411.723 548.11C411.231 548.953 411.093 549.957 411.341 550.901C411.588 551.846 412.201 552.653 413.043 553.146H413.032Z" fill="#211715"/>
<path d="M423.272 525.726C423.802 527.643 424.223 529.588 424.532 531.552L424.4 530.575C424.437 530.841 424.442 531.11 424.416 531.377L424.547 530.398C424.528 530.524 424.497 530.647 424.453 530.766L424.821 529.887C424.783 529.968 424.738 530.045 424.687 530.118L425.263 529.373C425.226 529.42 425.185 529.463 425.14 529.502L425.876 528.928C425.709 529.046 425.528 529.143 425.338 529.217L426.218 528.849C425.967 528.951 425.705 529.024 425.438 529.068L426.416 528.937C426.145 528.971 425.871 528.971 425.6 528.937L426.577 529.068C426.306 529.027 426.037 528.961 425.765 528.924C425.29 528.769 424.781 528.746 424.293 528.858C423.806 528.879 423.333 529.029 422.924 529.294C422.507 529.538 422.141 529.862 421.849 530.247C421.556 530.632 421.343 531.071 421.22 531.538C421.097 532.006 421.068 532.493 421.134 532.972C421.199 533.451 421.359 533.913 421.603 534.33C421.838 534.747 422.154 535.111 422.534 535.402C422.913 535.692 423.348 535.903 423.811 536.021C424.494 536.115 425.158 536.279 425.853 536.323C426.965 536.347 428.065 536.094 429.055 535.587C429.66 535.306 430.197 534.899 430.632 534.392C431.066 533.886 431.387 533.293 431.572 532.652C431.837 531.591 431.843 530.483 431.589 529.419C431.272 527.526 430.853 525.649 430.36 523.793C430.231 523.327 430.012 522.89 429.715 522.509C429.418 522.128 429.049 521.809 428.629 521.57C428.208 521.331 427.745 521.178 427.266 521.118C426.786 521.058 426.299 521.094 425.833 521.222C425.367 521.351 424.931 521.57 424.55 521.866C424.168 522.163 423.849 522.533 423.611 522.953C423.372 523.373 423.218 523.836 423.159 524.316C423.099 524.796 423.134 525.283 423.263 525.748L423.272 525.726Z" fill="#211715"/>
<path d="M392.3 508.776C391.271 511.923 391.862 519.187 398.018 519.858C406.164 519.88 406.666 511.109 403.967 506.96C401.752 503.562 395.17 502.101 392.3 508.776Z" fill="#211715"/>
<path d="M457.523 509.341C458.496 512.504 457.782 519.758 451.615 520.321C443.469 520.203 443.112 511.424 445.889 507.321C448.161 503.963 454.785 502.616 457.523 509.341Z" fill="#211715"/>
<path d="M444.809 470.367C450.622 473.004 455.854 476.767 460.202 481.44C464.832 485.955 468.596 491.28 471.308 497.152C471.592 498.077 472.219 498.859 473.06 499.338C473.901 499.817 474.894 499.956 475.834 499.728C476.773 499.464 477.57 498.84 478.052 497.993C478.535 497.145 478.663 496.141 478.41 495.199C475.406 488.263 471.116 481.958 465.768 476.616C460.916 471.314 455.055 467.034 448.529 464.025C447.679 463.563 446.685 463.442 445.75 463.688C444.814 463.933 444.007 464.526 443.493 465.346C443.008 466.19 442.874 467.192 443.121 468.134C443.368 469.076 443.977 469.883 444.814 470.38L444.809 470.367Z" fill="#211715"/>
<path d="M375.819 497.396C380.643 492.294 385.776 487.492 391.188 483.019C393.769 480.862 396.462 478.845 399.257 476.974C400.429 476.198 401.625 475.455 402.856 474.766C403.178 474.589 403.504 474.414 403.833 474.242C403.464 474.327 403.081 474.324 402.714 474.234C402.347 474.143 402.007 473.968 401.72 473.721C401.732 474.56 401.789 475.398 401.89 476.231C401.759 479.931 404.066 483.284 408.098 483.017C411.001 482.833 414.19 480.305 416.698 478.912C422.812 475.293 429.141 472.049 435.649 469.199C436.575 468.915 437.357 468.288 437.836 467.446C438.315 466.604 438.454 465.611 438.225 464.67C437.961 463.732 437.338 462.935 436.491 462.453C435.644 461.971 434.641 461.842 433.699 462.095C426.793 465.059 420.074 468.442 413.581 472.225C412.109 473.044 410.637 473.867 409.146 474.678C408.63 474.893 408.137 475.16 407.675 475.475C406.816 475.815 407.085 475.964 408.48 475.922C409.046 477.064 409.305 477.165 409.257 476.226C409.564 474.189 409.214 472.108 408.258 470.284C407.869 469.492 407.309 468.796 406.619 468.247C405.929 467.697 405.126 467.307 404.267 467.105C401.056 466.4 397.525 469.272 395.015 470.969C392.086 472.943 389.284 475.112 386.552 477.348C380.932 481.949 375.612 486.904 370.625 492.184C367.37 495.624 372.566 500.831 375.828 497.389L375.819 497.396Z" fill="#211715"/>
<path d="M572.597 532.07C572.698 531.728 573.184 530.573 572.781 531.454C573.031 530.902 573.294 530.37 573.579 529.842C574.279 528.554 575.072 527.307 575.892 526.09C577.824 523.262 579.901 520.535 582.115 517.921C587.146 511.821 592.578 506.062 598.373 500.682C599.711 499.451 601.076 498.244 602.493 497.102C602.667 496.96 603.444 496.366 602.888 496.783C603.162 496.575 603.44 496.369 603.718 496.169C604.239 495.801 604.769 495.442 605.317 495.111C609.365 492.665 605.672 486.299 601.602 488.756C595.771 492.277 590.781 497.56 586.104 502.439C580.27 508.393 574.911 514.795 570.078 521.586C568.115 524.171 566.57 527.048 565.502 530.113C564.149 534.663 571.248 536.606 572.597 532.07Z" fill="#211715"/>
<path d="M429.099 451.879C404.293 451.313 379.488 453.055 355.005 457.084C354.239 457.172 353.512 457.473 352.908 457.954C352.305 458.434 351.848 459.075 351.59 459.802C349.144 467.982 348.187 476.535 348.762 485.054C348.877 485.623 349.112 486.162 349.45 486.634C349.788 487.106 350.222 487.502 350.723 487.795C351.225 488.088 351.783 488.271 352.36 488.334C352.938 488.396 353.522 488.335 354.074 488.156C378.515 482.268 395.658 481.188 430.854 481.405C445.186 481.493 477.54 483.705 495.161 485.873C496.221 486.065 497.313 485.844 498.215 485.254C499.116 484.665 499.757 483.753 500.006 482.706C500.948 476.224 500.006 471.705 498.689 464.925C498.419 463.298 497.924 461.718 497.217 460.229C496.881 459.666 496.43 459.18 495.892 458.805C495.354 458.43 494.742 458.174 494.098 458.054C484.39 456.602 448.951 452.177 429.099 451.879Z" fill="white"/>
<path d="M429.099 448.199C414.617 447.919 400.13 448.378 385.694 449.572C378.78 450.179 371.894 450.998 365.011 451.934C361.484 452.415 357.936 452.854 354.429 453.474C352.854 453.724 351.388 454.434 350.215 455.514C349.042 456.595 348.214 457.997 347.835 459.546C345.697 466.831 344.715 474.405 344.926 481.994C345.022 485.523 345.309 488.894 348.667 490.857C351.655 492.601 354.709 491.777 357.841 491.056C368.204 488.635 378.732 486.98 389.339 486.106C413.236 484.473 437.221 484.604 461.098 486.5C467.304 486.923 473.505 487.41 479.702 487.959C482.498 488.204 485.291 488.473 488.081 488.763C490.641 489.179 493.22 489.457 495.809 489.597C497.401 489.613 498.961 489.152 500.288 488.273C501.615 487.394 502.648 486.138 503.254 484.666C504.195 481.293 504.42 477.76 503.912 474.296C503.542 470.749 502.969 467.226 502.198 463.745C501.866 460.737 500.431 457.96 498.17 455.949C495.167 453.671 490.01 453.791 486.394 453.323C481.398 452.676 476.398 452.072 471.393 451.513C459.801 450.212 448.176 449.049 436.525 448.462C434.049 448.337 431.572 448.247 429.094 448.205C424.356 448.126 424.354 455.485 429.094 455.565C448.888 455.894 468.756 458.339 488.363 460.941C489.062 461.033 490.803 461.272 492.043 461.449C494.302 461.776 494.449 462.798 494.946 464.994C495.613 467.822 496.124 470.685 496.477 473.569C496.644 475.028 496.72 476.496 496.705 477.964C496.696 478.837 496.961 481.361 496.416 482.023C495.752 482.835 491.89 481.812 490.933 481.707C488.357 481.424 485.781 481.162 483.205 480.921C477.667 480.397 472.123 479.933 466.572 479.528C444.673 477.792 422.692 477.307 400.738 478.077C390.543 478.441 380.381 479.441 370.31 481.07C365.368 481.893 360.457 482.896 355.576 484.027C354.624 484.415 353.604 484.603 352.577 484.579C352.37 484.529 352.072 484.16 352.393 484.625C352.137 484.257 352.304 482.866 352.288 482.432C352.159 478.787 352.333 475.137 352.807 471.521C353.055 469.657 353.401 467.8 353.802 465.966C353.97 465.207 354.148 464.45 354.336 463.695C354.437 462.689 354.706 461.706 355.13 460.788C354.718 461.241 355.278 460.821 355.366 460.774C356.342 460.462 357.359 460.293 358.383 460.271C360.215 459.995 362.048 459.727 363.883 459.465C370.761 458.49 377.663 457.666 384.583 457.038C399.383 455.77 414.239 455.278 429.09 455.566C433.837 455.627 433.839 448.267 429.099 448.199Z" fill="#211715"/>
<path d="M476.324 553.414C480.157 556.644 484.384 559.376 488.904 561.545C493.903 563.911 499.128 565.777 504.308 567.702L502.109 562.296C497.692 570.008 492.41 577.191 486.365 583.706L490.825 583.13C485.332 580.243 480.386 576.416 476.213 571.823C472.901 568.421 467.705 573.626 471.008 577.028C475.615 582.08 481.063 586.294 487.11 589.485C487.817 589.878 488.631 590.034 489.433 589.931C490.235 589.827 490.983 589.47 491.568 588.911C494.682 585.475 497.604 581.868 500.319 578.108C503.273 574.242 505.993 570.202 508.464 566.011C508.738 565.521 508.897 564.976 508.931 564.416C508.965 563.856 508.873 563.296 508.661 562.777C508.449 562.257 508.122 561.793 507.706 561.417C507.29 561.041 506.795 560.763 506.256 560.605C497.533 557.359 488.777 554.242 481.522 548.211C480.819 547.545 479.887 547.174 478.919 547.174C477.951 547.174 477.019 547.545 476.316 548.211C475.634 548.905 475.251 549.839 475.251 550.812C475.251 551.786 475.634 552.72 476.316 553.414H476.324Z" fill="#211715"/>
<path d="M626.197 470.248C601.37 472.631 576.817 477.306 552.852 484.215C552.099 484.391 551.41 484.776 550.864 485.324C550.318 485.872 549.937 486.563 549.765 487.317C548.286 495.728 548.335 504.337 549.912 512.731C550.096 513.284 550.395 513.791 550.789 514.221C551.182 514.651 551.662 514.992 552.197 515.223C552.732 515.455 553.31 515.571 553.893 515.563C554.475 515.556 555.05 515.426 555.579 515.182C579.281 506.438 596.27 503.323 631.423 499.358C645.739 497.744 678.292 496.097 696.134 496.158C697.213 496.225 698.277 495.878 699.107 495.186C699.937 494.494 700.471 493.511 700.6 492.438C700.918 486.429 700.092 480.415 698.164 474.715C697.637 473.158 696.963 471.655 696.149 470.227C695.784 469.67 695.284 469.213 694.695 468.9C694.107 468.587 693.449 468.428 692.782 468.437C682.914 468.143 646.047 468.178 626.197 470.248Z" fill="white"/>
<path d="M626.197 466.567C611.788 468.074 597.425 470.063 583.228 472.972C576.503 474.352 569.818 475.926 563.172 477.637C559.784 478.509 556.406 479.412 553.038 480.345C549.695 481.265 546.857 483.105 546.156 486.719C544.744 494.451 544.614 502.362 545.772 510.136C546.27 513.684 546.946 516.944 550.565 518.484C553.8 519.864 556.718 518.653 559.807 517.553C569.91 513.935 580.26 511.045 590.776 508.905C614.324 504.45 638.171 501.75 662.119 500.828C668.301 500.517 674.486 500.268 680.675 500.081C686.011 499.924 691.479 500.265 696.782 499.799C698.408 499.705 699.968 499.123 701.259 498.128C702.549 497.134 703.509 495.773 704.013 494.224C704.639 490.703 704.608 487.097 703.923 483.587C703.511 480.061 702.714 476.591 701.546 473.239C700.339 469.876 698.819 466.308 695.141 465.132C691.785 464.058 687.315 464.652 683.836 464.635C678.756 464.613 673.677 464.635 668.597 464.7C656.965 464.842 645.314 465.119 633.706 465.929C631.202 466.104 628.699 466.31 626.201 466.566C625.233 466.592 624.312 466.988 623.627 467.672C622.943 468.357 622.547 469.278 622.521 470.246C622.527 471.219 622.917 472.152 623.606 472.84C624.295 473.529 625.227 473.919 626.201 473.926C646.043 472.199 665.966 471.559 685.878 472.008C687.47 472.021 689.06 472.038 690.649 472.067C691.235 472.032 691.822 472.045 692.405 472.106C692.537 472.133 692.846 472.051 692.957 472.106C693.384 472.323 693.842 473.697 694.061 474.176C695.78 478.468 696.749 483.024 696.926 487.644C697.113 489.188 697.128 490.747 696.968 492.294C696.523 492.835 692.979 492.478 691.923 492.496C689.452 492.518 686.982 492.561 684.513 492.623C678.871 492.757 673.235 492.953 667.606 493.212C645.372 494.106 623.205 496.243 601.21 499.613C591.24 501.123 581.373 503.253 571.668 505.991C566.823 507.389 562.032 508.966 557.284 510.666C556.212 511.225 555.058 511.614 553.866 511.818C553.73 511.818 553.242 511.634 553.432 511.785C553.395 511.172 553.303 510.563 553.157 509.967C552.587 506.363 552.333 502.715 552.398 499.067C552.425 495.715 552.696 492.369 553.209 489.056C553.393 487.884 553.439 487.891 554.628 487.549C556.271 487.078 557.928 486.643 559.581 486.2C565.723 484.544 571.892 483 578.098 481.6C590.456 478.816 602.949 476.689 615.52 475.138C619.077 474.698 622.643 474.294 626.219 473.927C627.187 473.9 628.107 473.504 628.791 472.82C629.476 472.135 629.872 471.215 629.899 470.247C629.892 469.27 629.499 468.334 628.806 467.645C628.112 466.956 627.175 466.568 626.197 466.567Z" fill="#211715"/>
<path d="M64.7827 817.852C76.2053 802.837 87.6683 787.84 98.1874 772.169C103.684 764.422 108.521 756.227 112.648 747.671C116.357 739.426 118.168 730.304 120.269 721.544C124.273 704.844 127.877 688.027 131.318 671.191C132.265 666.567 125.172 664.589 124.221 669.233C121.134 684.312 117.908 699.365 114.407 714.353C112.213 723.737 110.383 733.608 106.863 742.615C106.414 743.763 105.672 745.338 104.874 746.923C103.899 748.858 102.85 750.761 101.779 752.641C99.3098 756.947 96.6566 761.147 93.9316 765.293C87.9609 774.379 81.6203 783.222 75.1639 791.972C69.6642 799.422 64.0339 806.773 58.4201 814.142C57.9335 814.987 57.7992 815.989 58.0465 816.931C58.2938 817.874 58.9027 818.681 59.7412 819.178C60.5893 819.647 61.5854 819.772 62.5228 819.526C63.4602 819.28 64.2669 818.682 64.7754 817.857L64.7827 817.852Z" fill="#211715"/>
<path d="M136.58 817.852C148.891 792.741 161.953 767.576 171.269 741.152C173.475 734.18 175.286 727.089 176.693 719.913C178.434 712.319 180.101 704.709 181.695 697.083C184.898 681.846 187.881 666.565 190.894 651.292C194.39 633.556 197.956 615.83 201.881 598.183C202.908 593.568 195.809 591.597 194.784 596.225C187.976 626.827 182.331 657.667 176.002 688.369C172.848 703.67 169.505 718.935 165.749 734.1C164.164 739.736 162.179 745.253 159.81 750.608C157.28 756.834 154.564 762.985 151.782 769.101C144.891 784.252 137.55 799.194 130.223 814.137C128.146 818.369 134.492 822.109 136.58 817.852Z" fill="#211715"/>
<path d="M728.617 692.812C733.742 724.132 741.044 755.147 747.913 786.117C750.193 796.405 752.483 806.691 754.782 816.974C755.812 821.594 762.909 819.638 761.878 815.016C754.222 780.676 746.371 746.359 739.565 711.836C738.191 704.86 736.862 697.872 735.714 690.86C735.45 689.922 734.826 689.126 733.979 688.643C733.132 688.161 732.129 688.032 731.188 688.284C730.258 688.562 729.472 689.188 728.992 690.032C728.512 690.875 728.376 691.871 728.612 692.812H728.617Z" fill="#211715"/>
<path d="M637.114 642.559C641.463 688.026 645.528 733.52 649.309 779.041C650.344 791.358 651.37 803.676 652.385 815.995C652.772 820.682 660.134 820.724 659.745 815.995C656.065 771.42 652.215 726.861 648.196 682.317C646.981 669.062 645.741 655.81 644.474 642.559C644.448 641.592 644.051 640.671 643.367 639.986C642.682 639.301 641.761 638.905 640.794 638.879C639.82 638.886 638.888 639.276 638.199 639.965C637.51 640.653 637.12 641.585 637.114 642.559Z" fill="#211715"/>
<path d="M554.593 714.487C560.33 741.452 565.393 768.562 570.448 795.663C571.773 802.766 573.093 809.869 574.409 816.974C575.274 821.624 582.367 819.655 581.506 815.016C576.483 787.969 571.489 760.921 566.096 733.954C564.666 726.804 563.197 719.663 561.689 712.53C560.705 707.9 553.608 709.86 554.593 714.487Z" fill="#211715"/>
<path d="M503.458 671.079C503.826 692.529 505.25 713.95 506.201 735.377C507.044 754.328 507.543 773.28 508.42 792.232C508.788 800.153 509.063 808.079 509.585 815.993C509.894 820.694 517.256 820.729 516.945 815.993C515.876 799.801 515.32 783.554 514.678 767.344C513.881 747.18 513.164 727.025 512.168 706.868C511.581 694.945 511.024 683.015 510.818 671.077C510.735 666.346 503.375 666.332 503.458 671.077V671.079Z" fill="#211715"/>
<path d="M334.42 815.995C334.788 801.251 335.68 786.522 336.3 771.788C337.124 752.203 337.715 732.62 338.705 713.041C339.323 700.833 339.899 688.619 340.105 676.396C340.184 671.658 332.824 671.657 332.745 676.396C332.377 698.244 330.835 720.048 329.963 741.877C329.257 759.604 328.708 777.33 327.89 795.053C327.568 802.032 327.238 809.009 327.06 815.993C326.938 820.731 334.298 820.728 334.42 815.993V815.995Z" fill="#211715"/>
</svg>
