<svg width="69" height="69" viewBox="0 0 69 69" fill="none" xmlns="http://www.w3.org/2000/svg">
<path d="M62.79 25.1256C62.79 24.943 62.7175 24.7678 62.5885 24.6385L58.236 20.286C58.1066 20.1566 57.9311 20.0839 57.7482 20.0839C57.5652 20.0839 57.3897 20.1566 57.2603 20.286L45.8436 31.6972V9.65996C45.8436 8.74496 45.4801 7.86744 44.8331 7.22044C44.1861 6.57344 43.3086 6.20996 42.3936 6.20996H9.65999C8.74499 6.20996 7.86747 6.57344 7.22047 7.22044C6.57347 7.86744 6.20999 8.74496 6.20999 9.65996V59.34C6.20999 60.255 6.57347 61.1325 7.22047 61.7795C7.86747 62.4265 8.74499 62.79 9.65999 62.79H42.3936C43.3086 62.79 44.1861 62.4265 44.8331 61.7795C45.4801 61.1325 45.8436 60.255 45.8436 59.34V42.3577L62.5885 25.6141C62.6525 25.5499 62.7033 25.4738 62.7379 25.3899C62.7724 25.3061 62.7902 25.2163 62.79 25.1256Z" fill="#231F20"/>
<path d="M37.271 40.2711C37.2126 40.332 37.1658 40.4031 37.133 40.4809L34.097 47.396C33.9849 47.5916 33.939 47.8182 33.9661 48.042C33.9932 48.2658 34.0919 48.4749 34.2475 48.638C34.3402 48.7301 34.4503 48.8028 34.5713 48.8521C34.6924 48.9014 34.822 48.9262 34.9526 48.9251C35.1247 48.925 35.2942 48.8834 35.4467 48.8036L40.5347 46.568V57.5197H11.1407V11.4829H16.9933C17.3843 12.1207 17.9319 12.6478 18.5841 13.0142C19.2362 13.3806 19.9713 13.5742 20.7193 13.5764H31.326C32.0741 13.5742 32.8091 13.3806 33.4613 13.0142C34.1134 12.6478 34.661 12.1207 35.052 11.4829H40.5168V37.0129L37.271 40.2711Z" fill="white"/>
<path d="M44.4636 59.3398C44.4636 59.8888 44.2455 60.4154 43.8573 60.8036C43.4691 61.1918 42.9426 61.4098 42.3936 61.4098H9.66C9.111 61.4098 8.58449 61.1918 8.19629 60.8036C7.80808 60.4154 7.59 59.8888 7.59 59.3398V9.65984C7.59 9.11085 7.80808 8.58433 8.19629 8.19613C8.58449 7.80793 9.111 7.58984 9.66 7.58984H16.324V9.17684C16.3248 9.48827 16.359 9.79871 16.4261 10.1028H10.4507C10.2677 10.1028 10.0922 10.1755 9.96283 10.3049C9.83343 10.4343 9.76074 10.6098 9.76074 10.7928V58.2069C9.76074 58.3899 9.83343 58.5654 9.96283 58.6948C10.0922 58.8242 10.2677 58.8969 10.4507 58.8969H41.2151C41.3981 58.8969 41.5736 58.8242 41.703 58.6948C41.8324 58.5654 41.9051 58.3899 41.9051 58.2069V45.9538L42.3908 45.7399C42.4691 45.7073 42.5407 45.6605 42.602 45.6019L44.4636 43.7389V59.3398Z" fill="#A0A0A0"/>
<path d="M25.5645 21.8219H38.226C38.409 21.8219 38.5845 21.7492 38.7139 21.6198C38.8433 21.4904 38.916 21.3149 38.916 21.1319C38.916 20.9489 38.8433 20.7734 38.7139 20.644C38.5845 20.5146 38.409 20.4419 38.226 20.4419H25.5645C25.3815 20.4419 25.206 20.5146 25.0766 20.644C24.9472 20.7734 24.8745 20.9489 24.8745 21.1319C24.8745 21.3149 24.9472 21.4904 25.0766 21.6198C25.206 21.7492 25.3815 21.8219 25.5645 21.8219Z" fill="#231F20"/>
<path d="M19.4345 19.5008L17.8489 21.0865L17.2376 20.4751C17.1739 20.4092 17.0978 20.3567 17.0136 20.3205C16.9294 20.2843 16.8389 20.2653 16.7473 20.2645C16.6556 20.2637 16.5648 20.2812 16.48 20.3159C16.3952 20.3505 16.3182 20.4018 16.2534 20.4666C16.1886 20.5314 16.1373 20.6084 16.1027 20.6932C16.068 20.778 16.0505 20.8688 16.0513 20.9605C16.0521 21.0521 16.0711 21.1426 16.1073 21.2268C16.1435 21.311 16.196 21.3871 16.2619 21.4508L17.3659 22.5548C17.4953 22.6841 17.6708 22.7568 17.8537 22.7568C18.0367 22.7568 18.2122 22.6841 18.3416 22.5548L20.4116 20.4848C20.5373 20.3546 20.6068 20.1803 20.6052 19.9994C20.6037 19.8185 20.5311 19.6455 20.4032 19.5175C20.2752 19.3896 20.1022 19.317 19.9213 19.3155C19.7403 19.3139 19.5661 19.3834 19.4359 19.5091L19.4345 19.5008Z" fill="#231F20"/>
<path d="M18.078 16.1943C17.1017 16.1941 16.1472 16.4833 15.3353 17.0255C14.5234 17.5677 13.8905 18.3384 13.5166 19.2403C13.1428 20.1422 13.0447 21.1347 13.2349 22.0923C13.4251 23.0499 13.895 23.9295 14.5852 24.6201C15.2753 25.3106 16.1548 25.781 17.1122 25.9717C18.0697 26.1625 19.0623 26.065 19.9644 25.6916C20.8665 25.3183 21.6376 24.6858 22.1802 23.8742C22.7228 23.0626 23.0126 22.1083 23.0129 21.132C23.0114 19.8234 22.4911 18.5687 21.566 17.6431C20.641 16.7175 19.3866 16.1965 18.078 16.1943ZM18.078 24.6869C17.3745 24.6871 16.6868 24.4788 16.1017 24.0881C15.5167 23.6974 15.0607 23.142 14.7913 22.4922C14.522 21.8423 14.4514 21.1271 14.5886 20.4371C14.7258 19.7472 15.0645 19.1134 15.562 18.6159C16.0594 18.1185 16.6932 17.7798 17.3832 17.6426C18.0731 17.5054 18.7883 17.576 19.4382 17.8453C20.088 18.1146 20.6434 18.5707 21.0341 19.1557C21.4248 19.7407 21.6331 20.4285 21.6329 21.132C21.6314 22.0743 21.2564 22.9777 20.5901 23.644C19.9237 24.3104 19.0204 24.6854 18.078 24.6869Z" fill="#231F20"/>
<path d="M38.226 33.8101H25.5645C25.3815 33.8101 25.206 33.8828 25.0766 34.0122C24.9472 34.1416 24.8745 34.3171 24.8745 34.5001C24.8745 34.6831 24.9472 34.8586 25.0766 34.988C25.206 35.1174 25.3815 35.1901 25.5645 35.1901H38.226C38.409 35.1901 38.5845 35.1174 38.7139 34.988C38.8433 34.8586 38.916 34.6831 38.916 34.5001C38.916 34.3171 38.8433 34.1416 38.7139 34.0122C38.5845 33.8828 38.409 33.8101 38.226 33.8101Z" fill="#231F20"/>
<path d="M19.4345 32.869L17.8489 34.456L17.2376 33.8433C17.1739 33.7774 17.0978 33.7248 17.0136 33.6887C16.9294 33.6525 16.8389 33.6335 16.7473 33.6327C16.6556 33.6319 16.5648 33.6493 16.48 33.684C16.3952 33.7187 16.3182 33.7699 16.2534 33.8347C16.1886 33.8995 16.1373 33.9766 16.1027 34.0614C16.068 34.1462 16.0505 34.237 16.0513 34.3286C16.0521 34.4202 16.0711 34.5108 16.1073 34.595C16.1435 34.6792 16.196 34.7553 16.2619 34.8189L17.3659 35.9229C17.4953 36.0523 17.6708 36.125 17.8537 36.125C18.0367 36.125 18.2122 36.0523 18.3416 35.9229L20.4116 33.8529C20.5373 33.7228 20.6068 33.5485 20.6052 33.3676C20.6037 33.1867 20.5311 33.0136 20.4032 32.8857C20.2752 32.7578 20.1022 32.6852 19.9213 32.6836C19.7403 32.682 19.5661 32.7516 19.4359 32.8773L19.4345 32.869Z" fill="#231F20"/>
<path d="M18.078 29.5649C17.1019 29.5647 16.1477 29.8539 15.3359 30.3959C14.5242 30.938 13.8915 31.7087 13.5178 32.6104C13.144 33.5121 13.0461 34.5044 13.2364 35.4617C13.4266 36.4191 13.8965 37.2985 14.5866 37.9888C15.2767 38.6791 16.156 39.1493 17.1134 39.3398C18.0707 39.5303 19.063 39.4327 19.9648 39.0592C20.8666 38.6857 21.6374 38.0532 22.1797 37.2416C22.722 36.4301 23.0115 35.4759 23.0115 34.4998C23.0097 33.1918 22.4893 31.9379 21.5646 31.0128C20.6398 30.0878 19.386 29.5671 18.078 29.5649ZM18.078 38.0547C17.3748 38.055 16.6874 37.8467 16.1026 37.4563C15.5178 37.0658 15.062 36.5107 14.7927 35.8612C14.5234 35.2116 14.4529 34.4968 14.5899 33.8071C14.7269 33.1175 15.0653 32.4839 15.5624 31.9866C16.0595 31.4893 16.693 31.1506 17.3826 31.0133C18.0722 30.8761 18.787 30.9464 19.4367 31.2154C20.0863 31.4844 20.6416 31.9401 21.0323 32.5247C21.423 33.1093 21.6315 33.7967 21.6315 34.4998C21.6304 35.4421 21.2557 36.3454 20.5896 37.0118C19.9234 37.6782 19.0202 38.0532 18.078 38.0547Z" fill="#231F20"/>
<path d="M30.9838 47.1792H25.5645C25.3815 47.1792 25.206 47.2519 25.0766 47.3813C24.9472 47.5107 24.8745 47.6862 24.8745 47.8692C24.8745 48.0522 24.9472 48.2277 25.0766 48.3571C25.206 48.4865 25.3815 48.5592 25.5645 48.5592H30.9838C31.1668 48.5592 31.3423 48.4865 31.4717 48.3571C31.6011 48.2277 31.6738 48.0522 31.6738 47.8692C31.6738 47.6862 31.6011 47.5107 31.4717 47.3813C31.3423 47.2519 31.1668 47.1792 30.9838 47.1792Z" fill="#231F20"/>
<path d="M19.4345 46.2396L17.8489 47.8239L17.2376 47.2139C17.1739 47.148 17.0978 47.0954 17.0136 47.0593C16.9294 47.0231 16.8389 47.0041 16.7473 47.0033C16.6556 47.0025 16.5648 47.0199 16.48 47.0546C16.3952 47.0893 16.3182 47.1406 16.2534 47.2053C16.1886 47.2701 16.1373 47.3472 16.1027 47.432C16.068 47.5168 16.0505 47.6076 16.0513 47.6992C16.0521 47.7909 16.0711 47.8814 16.1073 47.9656C16.1435 48.0498 16.196 48.1259 16.2619 48.1895L17.3659 49.2936C17.4953 49.4229 17.6708 49.4956 17.8537 49.4956C18.0367 49.4956 18.2122 49.4229 18.3416 49.2936L20.4116 47.2236C20.5373 47.0934 20.6068 46.9191 20.6052 46.7382C20.6037 46.5573 20.5311 46.3842 20.4032 46.2563C20.2752 46.1284 20.1022 46.0558 19.9213 46.0542C19.7403 46.0527 19.5661 46.1222 19.4359 46.2479L19.4345 46.2396Z" fill="#231F20"/>
<path d="M18.078 42.9331C17.1016 42.9328 16.1471 43.2221 15.3352 43.7643C14.5232 44.3066 13.8903 45.0774 13.5165 45.9794C13.1427 46.8813 13.0447 47.8739 13.235 48.8315C13.4253 49.7892 13.8954 50.6689 14.5857 51.3593C15.276 52.0498 16.1555 52.5201 17.1131 52.7107C18.0707 52.9013 19.0633 52.8036 19.9653 52.43C20.8674 52.0564 21.6384 51.4237 22.1809 50.6119C22.7233 49.8002 23.0129 48.8457 23.0129 47.8694C23.011 46.561 22.4906 45.3067 21.5655 44.3814C20.6405 43.4561 19.3864 42.9353 18.078 42.9331ZM18.078 51.4256C17.3746 51.4259 16.6869 51.2176 16.1019 50.827C15.5169 50.4364 15.0608 49.881 14.7915 49.2312C14.5221 48.5814 14.4515 47.8664 14.5885 47.1764C14.7256 46.4865 15.0642 45.8527 15.5615 45.3552C16.0588 44.8577 16.6924 44.5189 17.3823 44.3815C18.0722 44.2442 18.7873 44.3146 19.4372 44.5837C20.0871 44.8528 20.6426 45.3086 21.0334 45.8935C21.4243 46.4783 21.6329 47.1659 21.6329 47.8694C21.6314 48.8119 21.2565 49.7154 20.5901 50.3819C19.9238 51.0485 19.0205 51.4238 18.078 51.4256Z" fill="#231F20"/>
<path d="M44.4636 9.65984V33.0757L41.9051 35.6342V10.7942C41.9051 10.6112 41.8324 10.4357 41.703 10.3063C41.5736 10.1769 41.3981 10.1042 41.2151 10.1042H35.6288C35.6953 9.79998 35.7295 9.48961 35.731 9.17822V7.58984H42.3936C42.9426 7.58984 43.4691 7.80793 43.8573 8.19613C44.2455 8.58433 44.4636 9.11085 44.4636 9.65984Z" fill="#A0A0A0"/>
<path d="M38.7131 45.8545L37.0171 44.1571L38.0935 41.709L41.1613 44.7781L38.7131 45.8545Z" fill="#F7D2D0"/>
<path d="M36.4223 45.5122L37.358 46.4506L35.6868 47.1848L36.4223 45.5122Z" fill="black"/>
<path d="M34.3509 9.17684C34.3499 9.97827 34.0306 10.7465 33.4634 11.3126C32.8962 11.8788 32.1274 12.1967 31.326 12.1963H20.7221C19.9217 12.1952 19.1545 11.8767 18.5887 11.3106C18.0229 10.7446 17.7047 9.97719 17.704 9.17684V7.58984H34.3509V9.17684Z" fill="#C6B9C4"/>
<path d="M57.7452 21.746L38.9141 40.5771L42.2933 43.9564L61.1244 25.1252L57.7452 21.746Z" fill="#B68169"/>
</svg>
