<svg width="52" height="52" viewBox="0 0 52 52" fill="none" xmlns="http://www.w3.org/2000/svg">
<path d="M34.6667 2.1665C38.2566 2.1665 41.1667 5.07666 41.1667 8.6665C41.1667 9.86311 40.1967 10.8332 39 10.8332C37.8034 10.8332 36.8333 9.86311 36.8333 8.6665C36.8333 7.4699 35.8633 6.49984 34.6667 6.49984H8.66667C7.47007 6.49984 6.50001 7.4699 6.50001 8.6665V43.3332C6.50001 44.5298 7.47007 45.4998 8.66667 45.4998H34.6667C35.8633 45.4998 36.8333 44.5298 36.8333 43.3332V41.1665C36.8333 39.9699 37.8034 38.9998 39 38.9998C40.1967 38.9998 41.1667 39.9699 41.1667 41.1665V43.3332C41.1667 46.9231 38.2566 49.8332 34.6667 49.8332H8.66667C5.07683 49.8332 2.16667 46.9231 2.16667 43.3332V8.6665C2.16667 5.07666 5.07683 2.1665 8.66667 2.1665H34.6667Z" fill="#0F0F0F"/>
<path fill-rule="evenodd" clip-rule="evenodd" d="M45.0647 17.7683C44.4152 17.1187 43.3619 17.1187 42.7122 17.7683L25.8193 34.6614C25.4999 34.9806 25.2883 35.3918 25.2142 35.8373L24.8577 37.9754L26.9958 37.6189C27.4413 37.5448 27.8525 37.3332 28.1717 37.014L45.0647 20.1209C45.7145 19.4712 45.7145 18.4179 45.0647 17.7683ZM39.6481 14.7042C41.99 12.3623 45.7871 12.3623 48.129 14.7042C50.4708 17.0461 50.4708 20.8431 48.129 23.185L31.236 40.0781C30.2779 41.036 29.0446 41.6706 27.7082 41.8933L25.5701 42.2498C22.6373 42.7386 20.0945 40.196 20.5834 37.263L20.9397 35.1249C21.1624 33.7885 21.7971 32.5552 22.755 31.5971L39.6481 14.7042Z" fill="#0F0F0F"/>
<path d="M10.8333 15.1667C10.8333 13.9701 11.8034 13 13 13H30.3333C31.53 13 32.5 13.9701 32.5 15.1667C32.5 16.3633 31.53 17.3333 30.3333 17.3333H13C11.8034 17.3333 10.8333 16.3633 10.8333 15.1667Z" fill="#0F0F0F"/>
<path d="M10.8333 23.8332C10.8333 22.6365 11.8034 21.6665 13 21.6665H21.6667C22.8633 21.6665 23.8333 22.6365 23.8333 23.8332C23.8333 25.0298 22.8633 25.9998 21.6667 25.9998H13C11.8034 25.9998 10.8333 25.0298 10.8333 23.8332Z" fill="#0F0F0F"/>
<path d="M10.8333 32.5002C10.8333 31.3035 11.8034 30.3335 13 30.3335H15.1667C16.3633 30.3335 17.3333 31.3035 17.3333 32.5002C17.3333 33.6968 16.3633 34.6668 15.1667 34.6668H13C11.8034 34.6668 10.8333 33.6968 10.8333 32.5002Z" fill="#0F0F0F"/>
</svg>
