<svg width="43" height="43" viewBox="0 0 43 43" fill="none" xmlns="http://www.w3.org/2000/svg">
<path d="M21.5 1.5C17.5444 1.5 13.6776 2.67298 10.3886 4.87061C7.09962 7.06823 4.53617 10.1918 3.02242 13.8463C1.50867 17.5008 1.1126 21.5222 1.8843 25.4018C2.65601 29.2814 4.56082 32.8451 7.35787 35.6421C10.1549 38.4392 13.7186 40.344 17.5982 41.1157C21.4778 41.8874 25.4992 41.4913 29.1537 39.9776C32.8082 38.4638 35.9318 35.9004 38.1294 32.6114C40.327 29.3224 41.5 25.4556 41.5 21.5C41.5 16.1957 39.3929 11.1086 35.6421 7.35786C31.8914 3.60714 26.8043 1.5 21.5 1.5ZM14.8333 29.2778V13.7222L28.1667 21.5L14.8333 29.2778Z" fill="#2CA9BC"/>
<path d="M28.1667 30.3889V12.6111M28.1667 21.5L14.8333 29.2778V13.7222L28.1667 21.5ZM1.5 21.5C1.5 25.4556 2.67298 29.3224 4.87061 32.6114C7.06823 35.9004 10.1918 38.4638 13.8463 39.9776C17.5008 41.4913 21.5222 41.8874 25.4018 41.1157C29.2814 40.344 32.8451 38.4392 35.6421 35.6421C38.4392 32.8451 40.344 29.2814 41.1157 25.4018C41.8874 21.5222 41.4913 17.5008 39.9776 13.8463C38.4638 10.1918 35.9004 7.06823 32.6114 4.87061C29.3224 2.67298 25.4556 1.5 21.5 1.5C16.1957 1.5 11.1086 3.60714 7.35786 7.35786C3.60714 11.1086 1.5 16.1957 1.5 21.5Z" stroke="black" stroke-width="3" stroke-linecap="round" stroke-linejoin="round"/>
</svg>
