<svg width="40" height="36" viewBox="0 0 40 36" fill="none" xmlns="http://www.w3.org/2000/svg">
<path fill-rule="evenodd" clip-rule="evenodd" d="M33.4617 13.6055L32.0625 16.1367L33.4617 18.5344H37.2867C38.0531 18.5344 38.6648 17.9227 38.6648 17.1563V14.9906C38.6648 14.2242 38.0461 13.6055 37.2867 13.6055H33.4617Z" fill="#9FA9B6"/>
<path d="M2.42578 8.92267H31.7391C32.6883 8.92267 33.4617 9.69611 33.4617 10.6453V21.5016C33.4617 22.4508 32.6883 23.2242 31.7391 23.2242H2.42578C1.47656 23.2242 0.703125 22.4508 0.703125 21.5016V10.6453C0.703125 9.69611 1.47656 8.92267 2.42578 8.92267Z" fill="#8996A8"/>
<path fill-rule="evenodd" clip-rule="evenodd" d="M2.42578 8.92267C2.27812 8.92267 2.14453 8.94376 2.00391 8.97892V23.168C2.1375 23.2031 2.27812 23.2242 2.42578 23.2242H29.0672V8.92267H2.42578Z" fill="#7A8594"/>
<path fill-rule="evenodd" clip-rule="evenodd" d="M30.1426 8.92261C31.0988 8.92261 31.8652 9.68901 31.8652 10.6453V21.5015C31.8652 22.4578 31.0988 23.2242 30.1426 23.2242H31.7387C32.6949 23.2242 33.4613 22.4578 33.4613 21.5015V10.6453C33.4613 9.68901 32.6949 8.92261 31.7387 8.92261H30.1426Z" fill="#7A8594"/>
<path fill-rule="evenodd" clip-rule="evenodd" d="M5.76562 25.5235V32.9766C5.76562 34.0805 6.65859 34.9735 7.7625 34.9735H26.4094C27.5133 34.9735 28.4062 34.0805 28.4062 32.9766V25.5235L19.0336 22.7039L5.77266 25.5235H5.76562Z" fill="#F5E680"/>
<path fill-rule="evenodd" clip-rule="evenodd" d="M19.3924 22.7039L18.1338 22.9711L26.6205 25.5235V32.9766C26.6205 34.0805 25.7275 34.9735 24.6236 34.9735H26.4025C27.5064 34.9735 28.3994 34.0805 28.3994 32.9766V25.5235L19.3924 22.7039Z" fill="#F2D865"/>
<path fill-rule="evenodd" clip-rule="evenodd" d="M8.0791 25.5234V31.2398C8.0791 31.8234 8.5502 32.3016 9.14082 32.3016H16.9666C17.5572 32.3016 18.0283 31.8234 18.0283 31.2398V25.5234L12.4596 24.0469L8.0791 25.5234Z" fill="#EBB680"/>
<path fill-rule="evenodd" clip-rule="evenodd" d="M38.6719 3.30469C38.6719 4.74609 37.5047 5.91328 36.0703 5.91328C34.6359 5.91328 33.4688 4.74609 33.4688 3.30469C33.4688 1.86328 34.6359 0.703125 36.0703 0.703125C37.5047 0.703125 38.6719 1.87031 38.6719 3.30469Z" fill="#9FA9B6"/>
<path fill-rule="evenodd" clip-rule="evenodd" d="M21.6354 29.5172H24.7924C25.5588 29.5172 26.1846 30.143 26.1846 30.9094C26.1846 31.6758 25.5658 32.3016 24.7924 32.3016H21.6354C20.8619 32.3016 20.2432 31.6828 20.2432 30.9094C20.2432 30.136 20.8619 29.5172 21.6354 29.5172Z" fill="#EBB680"/>
<path fill-rule="evenodd" clip-rule="evenodd" d="M23.3086 29.5242C24.082 29.5242 24.7008 30.143 24.7008 30.9094C24.7008 31.6758 24.082 32.3016 23.3086 32.3016H24.7852C25.5516 32.3016 26.1773 31.6828 26.1773 30.9094C26.1773 30.136 25.5586 29.5242 24.7852 29.5242H23.3086Z" fill="#E6A361"/>
<path fill-rule="evenodd" clip-rule="evenodd" d="M19.0266 22.7039L5.76562 25.5235V27.0703H28.3992V25.5235L19.0266 22.7039Z" fill="#F2D865"/>
<path fill-rule="evenodd" clip-rule="evenodd" d="M12.4527 24.0469L11.6934 24.3L16.2988 25.5234V31.2398C16.2988 31.8234 15.8277 32.3016 15.2371 32.3016H16.9598C17.5504 32.3016 18.0215 31.8234 18.0215 31.2398V25.5234L12.4527 24.0469Z" fill="#E6A361"/>
<path fill-rule="evenodd" clip-rule="evenodd" d="M12.4525 24.0469L8.0791 25.5234V27.0703H18.0283V25.5234L12.4525 24.0469Z" fill="#E6A361"/>
<path d="M5.27344 6.62341H28.8914C29.8406 6.62341 30.6141 7.39685 30.6141 8.34607V23.8008C30.6141 24.75 29.8406 25.5234 28.8914 25.5234H5.27344C4.32422 25.5234 3.55078 24.75 3.55078 23.8008V8.34607C3.55078 7.39685 4.32422 6.62341 5.27344 6.62341Z" fill="#9FA9B6"/>
<path fill-rule="evenodd" clip-rule="evenodd" d="M20.841 9.16162L18.6473 15.7569L20.841 22.978H28.3504V9.16162H20.841ZM5.82227 9.16162V22.978H13.3316L15.5395 16.5163L13.3316 9.16162H5.82227Z" fill="#F0F3F5"/>
<path d="M20.8404 9.16876H13.3311V22.9852H20.8404V9.16876Z" fill="#E4ECF0"/>
<path fill-rule="evenodd" clip-rule="evenodd" d="M35.1074 13.6055C35.8738 13.6055 36.4855 14.2242 36.4855 14.9906V17.1563C36.4855 17.9227 35.8668 18.5344 35.1074 18.5344H37.2871C38.0535 18.5344 38.6652 17.9227 38.6652 17.1563V14.9906C38.6652 14.2242 38.0465 13.6055 37.2871 13.6055H35.1074Z" fill="#8996A8"/>
<path fill-rule="evenodd" clip-rule="evenodd" d="M36.0707 0.703125C35.8035 0.703125 35.5434 0.745313 35.2902 0.822656C36.373 1.16719 37.1043 2.17266 37.1043 3.30469C37.1043 4.44375 36.366 5.44219 35.2832 5.78672C35.5363 5.87109 35.8035 5.91328 36.0707 5.91328C37.5121 5.91328 38.6723 4.74609 38.6723 3.30469C38.6723 1.87031 37.5051 0.703125 36.0707 0.703125Z" fill="#8996A8"/>
<path d="M28.3434 8.46558H5.82227C5.43555 8.46558 5.11914 8.78198 5.11914 9.1687V22.9851C5.11914 23.3718 5.43555 23.6882 5.82227 23.6882H28.3434C28.7301 23.6882 29.0465 23.3718 29.0465 22.9851V9.1687C29.0465 8.78198 28.7301 8.46558 28.3434 8.46558ZM6.51836 9.87183H12.6215V22.282H6.52539V9.87183H6.51836ZM14.0277 22.282V9.87183H20.1309V22.282H14.0277ZM27.6402 22.282H21.5371V9.87183H27.6402V22.282Z" fill="black"/>
<path d="M11.384 13.8234C11.2785 13.5562 11.0184 13.3875 10.7301 13.3875H7.93164C7.54492 13.3875 7.22852 13.7039 7.22852 14.0906C7.22852 14.4773 7.54492 14.7937 7.93164 14.7937H9.27461C8.74727 15.6023 8.1918 16.7554 8.1918 18.0562C8.1918 18.4429 8.5082 18.7593 8.89492 18.7593C9.28164 18.7593 9.59805 18.4429 9.59805 18.0562C9.59805 16.207 11.2012 14.6109 11.2152 14.5968C11.4191 14.4 11.4824 14.0906 11.377 13.8304L11.384 13.8234Z" fill="black"/>
<path d="M18.485 13.3875H15.6865C15.2998 13.3875 14.9834 13.7039 14.9834 14.0906C14.9834 14.4774 15.2998 14.7938 15.6865 14.7938H17.0295C16.5021 15.6024 15.9467 16.7555 15.9467 18.0563C15.9467 18.443 16.2631 18.7594 16.6498 18.7594C17.0365 18.7594 17.3529 18.443 17.3529 18.0563C17.3529 16.207 18.9561 14.6109 18.9701 14.5969C19.174 14.4 19.2373 14.0906 19.1318 13.8305C19.0264 13.5633 18.7662 13.3945 18.4779 13.3945L18.485 13.3875Z" fill="black"/>
<path d="M23.4348 14.7937H24.7777C24.2504 15.6023 23.6949 16.7555 23.6949 18.0563C23.6949 18.443 24.0113 18.7594 24.398 18.7594C24.7848 18.7594 25.1012 18.443 25.1012 18.0563C25.1012 16.207 26.7043 14.6109 26.7184 14.5969C26.9223 14.4 26.9855 14.0906 26.8801 13.8305C26.7746 13.5633 26.5145 13.3945 26.2262 13.3945H23.4277C23.041 13.3945 22.7246 13.7109 22.7246 14.0977C22.7246 14.4844 23.041 14.8008 23.4277 14.8008L23.4348 14.7937Z" fill="black"/>
<path d="M39.375 3.30469C39.375 1.48359 37.8914 0 36.0703 0C34.2492 0 32.7656 1.48359 32.7656 3.30469C32.7656 4.87969 33.8977 6.13828 35.3672 6.47578V12.9023H34.1719V10.6453C34.1719 9.30938 33.082 8.21953 31.7461 8.21953H31.2961C31.2258 6.94688 30.1922 5.92031 28.8984 5.92031H5.27344C3.97969 5.92031 2.94609 6.94688 2.87578 8.21953H2.42578C1.08984 8.21953 0 9.30938 0 10.6453V21.5016C0 22.8375 1.08984 23.9273 2.42578 23.9273H2.87578C2.93906 25.1297 3.87422 26.0719 5.0625 26.1844V32.9766C5.0625 34.4672 6.27187 35.6766 7.7625 35.6766H26.4094C27.9 35.6766 29.1094 34.4672 29.1094 32.9766V26.1844C30.2977 26.0719 31.2328 25.1297 31.2961 23.9273H31.7461C33.082 23.9273 34.1719 22.8375 34.1719 21.5016V19.2445H37.2938C38.4398 19.2445 39.375 18.3094 39.375 17.1563V14.9906C39.375 13.8375 38.4398 12.9023 37.2938 12.9023H36.7734V6.47578C38.25 6.14531 39.375 4.87969 39.375 3.30469ZM1.40625 21.5016V10.6453C1.40625 10.0758 1.85625 9.62578 2.42578 9.62578H2.84766V22.5211H2.42578C1.85625 22.5211 1.40625 22.0711 1.40625 21.5016ZM26.4023 34.2703H7.7625C7.05234 34.2703 6.46875 33.6867 6.46875 32.9766V26.2266H7.37578V31.2398C7.37578 32.2102 8.16328 33.0047 9.14062 33.0047H16.9664C17.9367 33.0047 18.7312 32.2102 18.7312 31.2398V26.2266H27.7031V32.9766C27.7031 33.6867 27.1195 34.2703 26.4094 34.2703H26.4023ZM17.318 26.2266V31.2398C17.318 31.4438 17.1633 31.5984 16.9594 31.5984H9.13359C8.92969 31.5984 8.775 31.4438 8.775 31.2398V26.2266H17.318ZM29.9109 23.8008C29.9109 24.3633 29.4539 24.8203 28.8914 24.8203H5.27344C4.71094 24.8203 4.25391 24.3633 4.25391 23.8008V8.34609C4.25391 7.78359 4.71094 7.32656 5.27344 7.32656H28.8914C29.4539 7.32656 29.9109 7.78359 29.9109 8.34609V23.8008ZM32.7586 21.5016C32.7586 22.0711 32.3086 22.5211 31.7391 22.5211H31.3172V9.62578H31.7391C32.3086 9.62578 32.7586 10.0758 32.7586 10.6453V21.5016ZM37.9688 14.9906V17.1563C37.9688 17.5289 37.6664 17.8383 37.2938 17.8383H34.1719V14.3086H37.2938C37.6664 14.3086 37.9688 14.618 37.9688 14.9906ZM34.1648 3.30469C34.1648 2.25703 35.0156 1.40625 36.0633 1.40625C37.1109 1.40625 37.9617 2.25703 37.9617 3.30469C37.9617 4.35234 37.1109 5.21016 36.0633 5.21016C35.0156 5.21016 34.1648 4.35234 34.1648 3.30469Z" fill="black"/>
<path d="M24.7855 28.814H21.6285C20.4754 28.814 19.5332 29.7562 19.5332 30.9093C19.5332 32.0624 20.4684 33.0046 21.6285 33.0046H24.7855C25.9387 33.0046 26.8809 32.0624 26.8809 30.9093C26.8809 29.7562 25.9457 28.814 24.7855 28.814ZM24.7855 31.5983H21.6285C21.2418 31.5983 20.9395 31.296 20.9395 30.9093C20.9395 30.5226 21.2488 30.2202 21.6285 30.2202H24.7855C25.1652 30.2202 25.4746 30.5296 25.4746 30.9093C25.4746 31.289 25.1723 31.5983 24.7855 31.5983Z" fill="black"/>
<path d="M15.6162 30.7336C16.0029 30.7336 16.3193 30.4172 16.3193 30.0305V28.1883C16.3193 27.8016 16.0029 27.4852 15.6162 27.4852C15.2295 27.4852 14.9131 27.8016 14.9131 28.1883V30.0305C14.9131 30.4172 15.2295 30.7336 15.6162 30.7336Z" fill="black"/>
<path d="M20.9111 28.1039H25.5096C25.8963 28.1039 26.2127 27.7875 26.2127 27.4008C26.2127 27.014 25.8963 26.6976 25.5096 26.6976H20.9111C20.5244 26.6976 20.208 27.014 20.208 27.4008C20.208 27.7875 20.5244 28.1039 20.9111 28.1039Z" fill="black"/>
</svg>
