<svg width="36" height="36" viewBox="0 0 36 36" fill="none" xmlns="http://www.w3.org/2000/svg">
<path d="M18.0003 17.6227C19.668 17.6227 21.02 16.2707 21.02 14.6029C21.02 12.9351 19.668 11.5831 18.0003 11.5831C16.3325 11.5831 14.9805 12.9351 14.9805 14.6029C14.9805 16.2707 16.3325 17.6227 18.0003 17.6227Z" fill="#CEE8FA"/>
<path d="M18 10.0693C20.5001 10.0696 22.5332 12.1033 22.5332 14.6035C22.533 17.1036 20.5 19.1365 18 19.1367C15.4996 19.1367 13.466 17.1037 13.4658 14.6035C13.4658 12.1031 15.4997 10.0693 18 10.0693ZM18 13.0977C17.1703 13.0977 16.4941 13.7737 16.4941 14.6035C16.4943 15.4332 17.1704 16.1084 18 16.1084C18.8294 16.1082 19.5047 15.433 19.5049 14.6035C19.5049 13.7738 18.8295 13.0979 18 13.0977Z" fill="#888888" fill-opacity="0.8" stroke="black"/>
<path d="M20 25H16V31H20V25Z" fill="#E6A361"/>
<path d="M21.3008 22.5C21.9755 22.5001 22.5 23.0586 22.5 23.7188V32.2812C22.5 32.9414 21.9756 33.4999 21.3008 33.5H14.6992C14.0245 33.4999 13.5 32.9414 13.5 32.2812V23.7188C13.5 23.0586 14.0244 22.5001 14.6992 22.5H21.3008ZM15.8984 31.0635H20.1016V24.9365H15.8984V31.0635Z" fill="#F2C7A5" stroke="black"/>
<path d="M29.0338 10.4997C28.4739 10.4997 28.0197 10.0456 28.0197 9.48554V4.02823H26.0141C25.4541 4.02823 25 3.57423 25 3.01412C25 2.45401 25.4541 2 26.0141 2H29.0338C29.5937 2 30.0479 2.45401 30.0479 3.01412V9.48561C30.0479 10.0456 29.5938 10.4997 29.0338 10.4997Z" fill="black"/>
<path d="M22.7851 36H5.48091C4.92095 36 4.4668 35.546 4.4668 34.9859V15.9727C4.4668 15.6662 4.60545 15.3761 4.84395 15.1836L17.3624 5.07866C17.7341 4.77871 18.2645 4.77871 18.6364 5.07866L31.1548 15.1837C31.3933 15.3761 31.532 15.6663 31.532 15.9727V34.9326C31.532 35.4927 31.0779 35.9467 30.5179 35.9467C29.9578 35.9467 29.5037 35.4927 29.5037 34.9326V16.4573L17.9994 7.17095L6.49496 16.4573V33.9718H22.7851C23.3451 33.9718 23.7992 34.4258 23.7992 34.9859C23.7992 35.546 23.3452 36 22.7851 36Z" fill="black"/>
<path d="M33.8525 14.7545C33.6297 14.7545 33.4055 14.6815 33.2183 14.5312L17.9996 2.31447L2.78078 14.5311C2.34414 14.8816 1.70577 14.812 1.35519 14.375C1.00455 13.9383 1.07437 13.3 1.51115 12.9494L17.3647 0.223308C17.7355 -0.0743953 18.2635 -0.0743953 18.6343 0.223308L34.4879 12.9495C34.9247 13.3002 34.9946 13.9383 34.6439 14.3751C34.4436 14.6247 34.1494 14.7545 33.8525 14.7545Z" fill="black"/>
</svg>
