<svg width="45" height="45" viewBox="0 0 45 45" fill="none" xmlns="http://www.w3.org/2000/svg">
<path d="M37.6113 25.0411V38.1602C37.6113 39.1693 37.3162 39.781 36.9473 40.1427C36.5743 40.5082 35.9366 40.8037 34.8926 40.8038H28.7832V28.9132C28.7832 28.1474 28.527 27.3855 27.9531 26.8116C27.3793 26.2379 26.618 25.9816 25.8525 25.9815H19.2041C18.4401 25.9815 17.6796 26.2365 17.1035 26.8018C16.5243 27.3704 16.2539 28.1332 16.2539 28.9132V40.8038H10.126C9.08136 40.8038 8.43621 40.5075 8.05762 40.1388C7.68462 39.7752 7.38867 39.1639 7.38867 38.1602V25.131L22.4834 11.4102L37.6113 25.0411ZM35.916 4.19638V15.8458L36.4062 16.2921L42.9229 22.2247L42.9326 22.2335C42.9638 22.2614 42.9817 22.282 42.9922 22.294C42.9924 22.2958 42.9929 22.2977 42.9932 22.2999C42.9682 22.3046 42.9361 22.3087 42.8965 22.3087C42.8954 22.3087 42.8853 22.3111 42.8457 22.2911C42.7945 22.2652 42.7061 22.2078 42.5752 22.0831L42.5518 22.0597L24.1904 5.31943H24.1914C23.7811 4.94327 23.3013 4.70746 22.7559 4.65439L22.5186 4.64267C21.9303 4.64267 21.3331 4.84071 20.8311 5.31747L20.8301 5.3165L2.44922 22.0597L2.42285 22.0831L2.39844 22.1075C2.28608 22.2199 2.20984 22.2699 2.16797 22.2911C2.13656 22.307 2.12177 22.3087 2.10254 22.3087C2.06398 22.3087 2.03248 22.3054 2.00781 22.3009C2.01842 22.2865 2.04234 22.2573 2.09082 22.211L21.25 4.74619L21.2529 4.74423C21.6714 4.36067 22.1067 4.21494 22.5 4.21494C22.9053 4.21501 23.3475 4.36847 23.7305 4.72958L23.748 4.74521L31.2061 11.5626L33.7178 13.8595V4.19638H35.916Z" fill="#ABABAB" stroke="black" stroke-width="3"/>
</svg>
