<svg width="58" height="58" viewBox="0 0 58 58" fill="none" xmlns="http://www.w3.org/2000/svg">
<path d="M22.7111 39.1439L34.9947 35.8525C36.6662 35.4047 37.8883 34.475 37.4672 32.9031L37.0349 28.4449C36.798 27.6719 36.2643 27.0242 35.5509 26.6439C34.8374 26.2635 34.0023 26.1814 33.2284 26.4155L30.1984 27.2274C30.0095 27.2771 29.8123 27.2865 29.6196 27.255C29.4268 27.2235 29.2429 27.1518 29.0797 27.0445C28.9165 26.9373 28.7777 26.7968 28.6723 26.6324C28.5669 26.468 28.4974 26.2832 28.4681 26.0901L27.9624 22.0404C27.855 21.6473 27.5968 21.3124 27.2438 21.1086C26.8908 20.9048 26.4717 20.8486 26.0775 20.9522C25.8782 21.0026 25.6909 21.0922 25.5267 21.2157C25.3624 21.3393 25.2244 21.4944 25.1208 21.672C25.0172 21.8495 24.95 22.0459 24.9232 22.2497C24.8964 22.4535 24.9105 22.6606 24.9646 22.8589L25.1452 25.0975C25.4622 27.5893 24.2488 29.1494 22.3295 30.5785" stroke="black" stroke-width="2" stroke-linecap="round" stroke-linejoin="round"/>
<path d="M20.737 32.3162C21.1298 32.211 21.3629 31.8072 21.2576 31.4144C21.1524 31.0216 20.7486 30.7884 20.3558 30.8937C19.963 30.999 19.7299 31.4027 19.8351 31.7955C19.9404 32.1884 20.3441 32.4215 20.737 32.3162Z" fill="black"/>
</svg>
