<svg width="42" height="42" viewBox="0 0 42 42" fill="none" xmlns="http://www.w3.org/2000/svg">
<path d="M37.3369 11.3613H27.1855C27.1855 11.3572 27.1897 11.3531 27.1897 11.3449H11.374C11.3699 11.349 11.3617 11.3531 11.3576 11.3613H7.13711C6.01328 11.3613 5.09863 12.276 5.09863 13.3998V33.7558C5.09863 34.8797 6.01328 35.7943 7.13711 35.7943H8.07227C7.92461 35.8928 7.82617 36.065 7.82617 36.2578C7.82617 36.5654 8.07637 36.8156 8.38398 36.8156H36.0367C36.3443 36.8156 36.5945 36.5654 36.5945 36.2578C36.5945 36.065 36.4961 35.8969 36.3484 35.7943H37.341C38.4607 35.7943 39.3795 34.8756 39.3795 33.7558V13.3998C39.3754 12.2719 38.4607 11.3613 37.3369 11.3613Z" fill="#A7B8C6"/>
<path d="M11.3488 27.218C11.2052 27.218 11.0617 27.1646 10.955 27.0539C10.7376 26.8365 10.7376 26.4838 10.955 26.2664L30.5072 6.71425C30.7246 6.49686 31.0773 6.49686 31.2947 6.71425C31.5121 6.93163 31.5121 7.28436 31.2947 7.50175L11.7425 27.0539C11.6318 27.1646 11.4882 27.218 11.3488 27.218Z" fill="#A7B8C6"/>
<path d="M30.9009 27.218C30.7574 27.218 30.6138 27.1646 30.5072 27.0539L10.955 7.49766C10.7376 7.28027 10.7376 6.92754 10.955 6.71016C11.1724 6.49277 11.5251 6.49277 11.7425 6.71016L31.2947 26.2664C31.5121 26.4838 31.5121 26.8365 31.2947 27.0539C31.1839 27.1646 31.0445 27.218 30.9009 27.218Z" fill="#A7B8C6"/>
<path d="M9.98745 25.8604C9.8439 25.8604 9.70034 25.807 9.5937 25.6963C9.37632 25.4789 9.37632 25.1262 9.5937 24.9088L29.1458 5.35664C29.3632 5.13926 29.716 5.13926 29.9333 5.35664C30.1507 5.57402 30.1507 5.92676 29.9333 6.14414L10.3812 25.6963C10.2705 25.807 10.1269 25.8604 9.98745 25.8604Z" fill="#3E3A39"/>
<path d="M29.5435 25.8604C29.4 25.8604 29.2564 25.807 29.1498 25.6963L9.59761 6.14005C9.38022 5.92267 9.38022 5.56993 9.59761 5.35255C9.81499 5.13517 10.1677 5.13517 10.3851 5.35255L29.9373 24.9047C30.1546 25.1221 30.1546 25.4748 29.9373 25.6922C29.8265 25.807 29.6871 25.8604 29.5435 25.8604Z" fill="#3E3A39"/>
<path d="M34.6707 33.0094H5.39375C4.57754 33.0094 3.91309 32.3408 3.91309 31.5287V11.1768C3.91309 10.3606 4.58164 9.69611 5.39375 9.69611H34.6748C35.491 9.69611 36.1555 10.3647 36.1555 11.1768V31.5287C36.1555 32.3408 35.4869 33.0094 34.6707 33.0094Z" fill="#998D7B"/>
<path d="M34.6709 33.317H5.39395C4.40547 33.317 3.60156 32.5131 3.60156 31.5246V11.1768C3.60156 10.1883 4.40547 9.3844 5.39395 9.3844H34.675C35.6635 9.3844 36.4674 10.1883 36.4674 11.1768V31.5287C36.4592 32.5131 35.6594 33.317 34.6709 33.317ZM5.39395 9.99963C4.7459 9.99963 4.2209 10.5287 4.2209 11.1727V31.5246C4.2209 32.1727 4.75 32.6977 5.39395 32.6977H34.675C35.3231 32.6977 35.8481 32.1686 35.8481 31.5246V11.1768C35.8481 10.5287 35.3189 10.0037 34.675 10.0037H5.39395V9.99963Z" fill="#C8BB9B"/>
<path d="M4.66309 9.63831H34.8633C35.7108 9.63831 36.4012 10.3289 36.4014 11.1764V31.5289C36.4013 32.3737 35.7137 33.067 34.8633 33.067H4.66309C3.81564 33.0668 3.1251 32.3764 3.125 31.5289V11.1764C3.12521 10.329 3.81571 9.63852 4.66309 9.63831ZM4.66309 9.74573C3.87306 9.74594 3.23643 10.3894 3.23633 11.1725V31.525C3.23654 32.315 3.88009 32.9516 4.66309 32.9518H34.8633C35.6534 32.9518 36.2898 32.3081 36.29 31.525V11.1764C36.2898 10.4358 35.7246 9.83047 35.0088 9.75745L34.8633 9.74963L4.66309 9.74573Z" fill="#3E3A39" stroke="black"/>
<path d="M5.72949 12.5422H23.7598C24.2989 12.5422 24.7411 12.9859 24.7412 13.5226V29.423C24.7439 29.9564 24.3009 30.4013 23.7646 30.4016H5.72949C5.19041 30.4014 4.74902 29.9569 4.74902 29.4201V13.5226C4.74913 12.9836 5.19278 12.5423 5.72949 12.5422Z" fill="#98805F" stroke="black"/>
<path d="M23.5678 29.4738H6.10742C5.83672 29.4738 5.61523 29.2524 5.61523 28.9817V13.7156C5.61523 13.4449 5.83672 13.2234 6.10742 13.2234H23.5596C23.8303 13.2234 24.0518 13.4449 24.0518 13.7156V28.9817C24.06 29.2524 23.8385 29.4738 23.5678 29.4738Z" fill="#B9CCD9"/>
<path d="M6.57891 29.4738C9.67148 27.6527 13.1537 24.8186 16.4637 21.2666C18.9738 18.5719 21.0615 15.8074 22.6201 13.2275H5.61914V29.4738H6.57891Z" fill="#DADDEE"/>
<path d="M17.3412 12.0791H5.99219C5.88965 12.0791 5.80762 11.9971 5.80762 11.8945C5.80762 11.792 5.88965 11.71 5.99219 11.71H17.3371C17.4396 11.71 17.5217 11.792 17.5217 11.8945C17.5217 11.9971 17.4437 12.0791 17.3412 12.0791ZM23.4977 31.016H14.5562C14.4537 31.016 14.3717 30.934 14.3717 30.8314C14.3717 30.7289 14.4537 30.6469 14.5562 30.6469H23.4977C23.6002 30.6469 23.6822 30.7289 23.6822 30.8314C23.6863 30.9299 23.6002 31.016 23.4977 31.016Z" fill="#D8D8D8"/>
<path d="M12.8748 15.8484C10.4385 18.2151 8.00625 20.5858 5.61914 22.4397V23.3543C8.05957 21.5086 10.5492 19.1051 13.0348 16.6893C14.2447 15.5121 15.4547 14.335 16.6605 13.2234H15.6105C14.7 14.0807 13.7854 14.9666 12.8748 15.8484ZM15.6105 13.2276H16.6605Z" fill="#E8EAF5"/>
<path d="M33.5633 34.5803H5.90645C5.59883 34.5803 5.34863 34.3301 5.34863 34.0225C5.34863 33.7149 5.59883 33.4647 5.90645 33.4647H33.5592C33.8668 33.4647 34.117 33.7149 34.117 34.0225C34.1211 34.3342 33.8709 34.5803 33.5633 34.5803Z" fill="#3E3A39"/>
<path d="M28.7803 16.1314C28.7803 16.4444 28.8419 16.7542 28.9617 17.0434C29.0814 17.3325 29.257 17.5952 29.4782 17.8165C29.6995 18.0377 29.9622 18.2133 30.2513 18.333C30.5405 18.4528 30.8503 18.5144 31.1633 18.5144C31.4762 18.5144 31.7861 18.4528 32.0752 18.333C32.3643 18.2133 32.627 18.0377 32.8483 17.8165C33.0696 17.5952 33.2451 17.3325 33.3649 17.0434C33.4847 16.7542 33.5463 16.4444 33.5463 16.1314C33.5463 15.8185 33.4847 15.5086 33.3649 15.2195C33.2451 14.9304 33.0696 14.6677 32.8483 14.4464C32.627 14.2251 32.3643 14.0496 32.0752 13.9298C31.7861 13.8101 31.4762 13.7484 31.1633 13.7484C30.8503 13.7484 30.5405 13.8101 30.2513 13.9298C29.9622 14.0496 29.6995 14.2251 29.4782 14.4464C29.257 14.6677 29.0814 14.9304 28.9617 15.2195C28.8419 15.5086 28.7803 15.8185 28.7803 16.1314Z" fill="#98805F"/>
<path d="M22.3367 29.1498H9.07227C8.96973 29.1498 8.8877 29.0677 8.8877 28.9652C8.8877 28.8627 8.96973 28.7806 9.07227 28.7806H22.3408C22.4434 28.7806 22.5254 28.8627 22.5254 28.9652C22.5213 29.0636 22.4393 29.1498 22.3367 29.1498Z" fill="#D8D8D8"/>
<path d="M29.1992 16.1315C29.1992 16.6525 29.4062 17.1522 29.7746 17.5207C30.1431 17.8891 30.6428 18.0961 31.1639 18.0961C31.6849 18.0961 32.1846 17.8891 32.5531 17.5207C32.9215 17.1522 33.1285 16.6525 33.1285 16.1315C33.1285 15.6104 32.9215 15.1107 32.5531 14.7422C32.1846 14.3738 31.6849 14.1668 31.1639 14.1668C30.6428 14.1668 30.1431 14.3738 29.7746 14.7422C29.4062 15.1107 29.1992 15.6104 29.1992 16.1315Z" fill="#E1D8CC"/>
<path d="M31.6971 16.4432H30.6348C30.4625 16.4432 30.3271 16.3037 30.3271 16.1356C30.3271 15.9633 30.4666 15.8279 30.6348 15.8279H31.6971C31.8693 15.8279 32.0047 15.9674 32.0047 16.1356C32.0047 16.3037 31.8652 16.4432 31.6971 16.4432Z" fill="#40210F"/>
<path d="M28.7803 22.534C28.7803 22.847 28.8419 23.1568 28.9617 23.4459C29.0814 23.7351 29.257 23.9978 29.4782 24.2191C29.6995 24.4403 29.9622 24.6159 30.2513 24.7356C30.5405 24.8554 30.8503 24.917 31.1633 24.917C31.4762 24.917 31.7861 24.8554 32.0752 24.7356C32.3643 24.6159 32.627 24.4403 32.8483 24.2191C33.0696 23.9978 33.2451 23.7351 33.3649 23.4459C33.4847 23.1568 33.5463 22.847 33.5463 22.534C33.5463 22.2211 33.4847 21.9112 33.3649 21.6221C33.2451 21.333 33.0696 21.0703 32.8483 20.849C32.627 20.6277 32.3643 20.4522 32.0752 20.3324C31.7861 20.2126 31.4762 20.151 31.1633 20.151C30.8503 20.151 30.5405 20.2126 30.2513 20.3324C29.9622 20.4522 29.6995 20.6277 29.4782 20.849C29.257 21.0703 29.0814 21.333 28.9617 21.6221C28.8419 21.9112 28.7803 22.2211 28.7803 22.534Z" fill="#98805F"/>
<path d="M29.1992 22.534C29.1992 23.055 29.4062 23.5548 29.7746 23.9232C30.1431 24.2916 30.6428 24.4986 31.1639 24.4986C31.6849 24.4986 32.1846 24.2916 32.5531 23.9232C32.9215 23.5548 33.1285 23.055 33.1285 22.534C33.1285 22.0129 32.9215 21.5132 32.5531 21.1448C32.1846 20.7763 31.6849 20.5693 31.1639 20.5693C30.6428 20.5693 30.1431 20.7763 29.7746 21.1448C29.4062 21.5132 29.1992 22.0129 29.1992 22.534Z" fill="#E1D8CC"/>
<path d="M31.1641 23.3789C30.9918 23.3789 30.8564 23.2394 30.8564 23.0713V22.009C30.8564 21.8367 30.9959 21.7014 31.1641 21.7014C31.3322 21.7014 31.4717 21.8408 31.4717 22.009V23.0713C31.4717 23.2394 31.3322 23.3789 31.1641 23.3789Z" fill="#40210F"/>
<path d="M30.0357 30.61H28.8463C28.7602 30.61 28.6904 30.5402 28.6904 30.4541V30.0357C28.6904 29.9496 28.7602 29.8799 28.8463 29.8799H30.0357C30.1219 29.8799 30.1916 29.9496 30.1916 30.0357V30.4541C30.1916 30.5402 30.1219 30.61 30.0357 30.61ZM31.783 30.61H30.5936C30.5074 30.61 30.4377 30.5402 30.4377 30.4541V30.0357C30.4377 29.9496 30.5074 29.8799 30.5936 29.8799H31.783C31.8691 29.8799 31.9389 29.9496 31.9389 30.0357V30.4541C31.9389 30.5402 31.8691 30.61 31.783 30.61ZM33.5303 30.61H32.3408C32.2547 30.61 32.185 30.5402 32.185 30.4541V30.0357C32.185 29.9496 32.2547 29.8799 32.3408 29.8799H33.5303C33.6164 29.8799 33.6861 29.9496 33.6861 30.0357V30.4541C33.6861 30.5402 33.6164 30.61 33.5303 30.61Z" fill="#E1D8CC"/>
<path d="M30.0357 29.5969H28.8463C28.7602 29.5969 28.6904 29.5272 28.6904 29.441V29.0227C28.6904 28.9365 28.7602 28.8668 28.8463 28.8668H30.0357C30.1219 28.8668 30.1916 28.9365 30.1916 29.0227V29.441C30.1916 29.5272 30.1219 29.5969 30.0357 29.5969ZM31.783 29.5969H30.5936C30.5074 29.5969 30.4377 29.5272 30.4377 29.441V29.0227C30.4377 28.9365 30.5074 28.8668 30.5936 28.8668H31.783C31.8691 28.8668 31.9389 28.9365 31.9389 29.0227V29.441C31.9389 29.5272 31.8691 29.5969 31.783 29.5969ZM33.5303 29.5969H32.3408C32.2547 29.5969 32.185 29.5272 32.185 29.441V29.0227C32.185 28.9365 32.2547 28.8668 32.3408 28.8668H33.5303C33.6164 28.8668 33.6861 28.9365 33.6861 29.0227V29.441C33.6861 29.5272 33.6164 29.5969 33.5303 29.5969Z" fill="#E1D8CC"/>
</svg>
