<svg width="60" height="60" viewBox="0 0 60 60" fill="none" xmlns="http://www.w3.org/2000/svg">
<path d="M49.75 26.1876V41.2501C49.75 43.529 47.9039 45.3751 45.625 45.3751H15.9375C13.6594 45.3751 11.8125 43.5291 11.8125 41.2501V26.1876H49.75Z" fill="#95A5A6" stroke="black" stroke-width="2"/>
<path d="M48.1875 12.125V42.8125C48.1875 45.0914 46.3414 46.9375 44.0625 46.9375H14.375C12.097 46.9375 10.25 45.0915 10.25 42.8125V12.125H48.1875Z" fill="#BDC3C7" stroke="black" stroke-width="2"/>
<path d="M16.2051 15.75L18.5625 19.2861V15.75H21.125V24.5625H18.7949L16.4375 21.0264V24.5625H13.875V15.75H16.2051ZM28.9375 15.75V18.3125H24.25V18.875H27.375V21.4375H24.25V22H28.9375V24.5625H21.6875V15.75H28.9375ZM32.0625 15.75V18.8193L33.125 16.6943L34.1875 18.8193V15.75H36.75V24.5625H34.3789L34.2402 24.2861L33.125 22.0557L32.0098 24.2861L31.8721 24.5625H29.5V15.75H32.0625ZM44.5625 15.75V18.3125H40.1562C40.0012 18.3127 39.875 18.4387 39.875 18.5938C39.875 18.7488 40.0012 18.8748 40.1562 18.875H41.7188C43.2885 18.875 44.5625 20.1482 44.5625 21.7188C44.5625 23.2894 43.2886 24.5625 41.7188 24.5625H37.3125V22H41.7188C41.8739 22 42 21.874 42 21.7188C42 21.5636 41.8739 21.4375 41.7188 21.4375H40.1562C38.5866 21.4373 37.3125 20.1643 37.3125 18.5938C37.3125 17.0232 38.5866 15.7502 40.1562 15.75H44.5625Z" fill="#7F8C8D" stroke="black"/>
<path d="M27.9375 27.6876V37.6251H14.875V27.6876H27.9375Z" fill="#95A5A6" stroke="black"/>
<path d="M43.5625 33.9377V34.5002H30.5V33.9377H43.5625Z" fill="#95A5A6" stroke="black"/>
<path d="M27.9375 40.1878V40.7503H14.875V40.1878H27.9375Z" fill="#95A5A6" stroke="black"/>
<path d="M43.5625 37.0627V37.6252H30.5V37.0627H43.5625Z" fill="#95A5A6" stroke="black"/>
<path d="M43.5625 30.8127V31.3752H30.5V30.8127H43.5625Z" fill="#95A5A6" stroke="black"/>
<path d="M43.5625 27.6876V28.2501H30.5V27.6876H43.5625Z" fill="#95A5A6" stroke="black"/>
<path d="M48.75 42.8128C48.75 44.5394 45.7891 45.9378 44.0625 45.9378H14.375C12.6491 45.9378 11.25 44.5394 11.25 42.8128V41.2503C11.25 42.9769 12.6491 44.3753 14.375 44.3753H44.0625C45.7891 44.3753 48.75 42.9769 48.75 41.2503V42.8128Z" fill="#95A5A6"/>
<path d="M48.75 42.8128C48.75 44.5394 45.7891 45.9378 44.0625 45.9378H14.375C12.6491 45.9378 11.25 44.5394 11.25 42.8128V41.2503C11.25 42.9769 12.6491 44.3753 14.375 44.3753H44.0625C45.7891 44.3753 48.75 42.9769 48.75 41.2503V42.8128Z" stroke="black"/>
<path d="M43.5625 40.1878V40.7503H30.5V40.1878H43.5625Z" fill="#95A5A6" stroke="black"/>
</svg>
