<svg width="340" height="340" viewBox="0 0 340 340" fill="none" xmlns="http://www.w3.org/2000/svg">
<path d="M265.979 312H68.0209C60.2775 312 54 294.383 54 272.652V64.3484C54 42.6172 60.2775 25 68.0209 25H265.979C273.723 25 280 42.6172 280 64.3484V272.656C280 294.387 273.723 312 265.979 312Z" fill="white"/>
<path d="M238.247 325H66.3374C52.9175 325 42 314.078 42 300.651V38.3486C42 24.9225 52.9175 14 66.3374 14H273.663C287.083 14 298 24.9225 298 38.3486V265.218L238.247 325ZM66.3374 32.2941C63.0002 32.2941 60.2857 35.0108 60.2857 38.3486V300.651C60.2857 303.989 63.0002 306.706 66.3374 306.706H230.672L279.714 257.64V38.3486C279.714 35.0108 277 32.2941 273.663 32.2941H66.3374Z" fill="white"/>
<path d="M244.645 340H56.619C41.941 340 30 328.059 30 313.381V26.619C30 11.941 41.941 0 56.619 0H283.381C298.059 0 310 11.941 310 26.619V274.644L244.645 340ZM56.619 20C52.969 20 50 22.97 50 26.619V313.381C50 317.03 52.969 320 56.619 320H236.36L290 266.359V26.619C290 22.97 287.031 20 283.381 20H56.619Z" fill="black"/>
<path d="M258.197 194.641H190.803V214.641H258.197V194.641Z" fill="black"/>
<path d="M173.04 214.307H153.04V170.087H102.41V214.307H82.41V167.364C82.41 157.838 90.16 150.088 99.687 150.088H155.763C165.289 150.088 173.04 157.838 173.04 167.364V214.307Z" fill="black"/>
<path d="M239.47 136.641H102.137C91.26 136.641 82.41 127.791 82.41 116.914V65.4199C82.41 54.5429 91.259 45.6929 102.137 45.6929H239.47C250.347 45.6929 259.197 54.5429 259.197 65.4199V116.914C259.197 127.791 250.347 136.641 239.47 136.641ZM102.41 116.641H239.197V65.6929H102.41V116.641Z" fill="black"/>
<path d="M258.197 154.641H190.803V174.641H258.197V154.641Z" fill="black"/>
<path d="M149.803 274.307H82.41V294.307H149.803V274.307Z" fill="black"/>
<path d="M258.197 234.974H81.803V254.974H258.197V234.974Z" fill="black"/>
</svg>
