<svg width="42" height="42" viewBox="0 0 42 42" fill="none" xmlns="http://www.w3.org/2000/svg">
<path d="M4.59375 15.75H37.4062V38.092C37.4062 38.6063 37.2019 39.0996 36.8383 39.4633C36.4746 39.8269 35.9813 40.0312 35.467 40.0312H6.53297C6.01866 40.0312 5.52541 39.8269 5.16173 39.4633C4.79806 39.0996 4.59375 38.6063 4.59375 38.092V15.75Z" fill="#E5E6EB"/>
<path d="M37.4062 15.75H4.59375V21H37.4062V15.75Z" fill="white"/>
<path d="M14.4375 15.75L19.6875 21H26.25L21 15.75H14.4375Z" fill="#444444"/>
<path d="M4.59375 15.75V21H13.125L7.875 15.75H4.59375Z" fill="#444444"/>
<path d="M37.4062 15.75H27.5625L32.8125 21H37.4062V15.75Z" fill="#444444"/>
<path d="M34.9298 2.18618L3.23535 10.6787L4.59415 15.7498L36.2886 7.25729L34.9298 2.18618Z" fill="white"/>
<path d="M17.8149 6.7725L14.1025 13.2024L20.4413 11.5041L24.1537 5.07413L17.8149 6.7725Z" fill="#444444"/>
<path d="M3.23438 10.6792L4.59347 15.75L7.76316 14.9008L11.4756 8.47089L3.23438 10.6792Z" fill="#444444"/>
<path d="M34.9293 2.18661L30.4917 3.37508L26.7793 9.80502L36.2877 7.25746L34.9293 2.18661Z" fill="#444444"/>
<path d="M16.3838 28.0625H18.5312V32.3125H16.3838C16.1743 32.3125 15.9733 32.2292 15.8252 32.0811C15.677 31.9329 15.5938 31.732 15.5938 31.5225V28.8525C15.5938 28.7489 15.6147 28.6465 15.6543 28.5508C15.694 28.4549 15.7518 28.3673 15.8252 28.2939C15.8986 28.2206 15.9862 28.1628 16.082 28.123C16.1778 28.0834 16.2802 28.0625 16.3838 28.0625Z" fill="#3B3B3B" stroke="black"/>
<path d="M24.4375 35.2842L18.875 32.5029V27.8711L24.4375 25.0898V35.2842Z" fill="#DBDBDB" stroke="black"/>
<path d="M28.962 25.5747L29.0441 25.8763L27.4762 26.3032L27.3941 26.0017L28.962 25.5747Z" fill="#DBDBDB" stroke="black"/>
<path d="M29.0312 30.0312V30.3438H27.4062V30.0312H29.0312Z" fill="#DBDBDB" stroke="black"/>
<path d="M27.4764 34.0719L29.0442 34.4994L28.962 34.8009L27.3942 34.3734L27.4764 34.0719Z" fill="#DBDBDB" stroke="black"/>
<path d="M5.90625 26.25V22.3125H9.84375L5.90625 26.25Z" fill="white"/>
<path d="M37.4062 15.0938H9.58122L36.4612 7.89142C36.5445 7.86911 36.6225 7.83062 36.6909 7.77814C36.7593 7.72566 36.8166 7.66023 36.8597 7.58558C36.9028 7.51092 36.9308 7.42852 36.942 7.34306C36.9532 7.2576 36.9475 7.17077 36.9252 7.08752L35.5628 2.01667C35.5178 1.84867 35.4078 1.70544 35.2572 1.61844C35.1066 1.53145 34.9276 1.5078 34.7596 1.5527L3.06532 10.0452C2.89732 10.0903 2.75409 10.2002 2.66709 10.3508C2.58009 10.5015 2.55645 10.6804 2.60135 10.8485L3.93747 15.836V38.092C3.93817 38.7802 4.21184 39.44 4.69843 39.9266C5.18503 40.4131 5.84479 40.6868 6.53294 40.6875H35.467C36.1552 40.6868 36.8149 40.4131 37.3015 39.9266C37.7881 39.44 38.0618 38.7802 38.0625 38.092V15.75C38.0625 15.576 37.9933 15.409 37.8703 15.286C37.7472 15.1629 37.5803 15.0938 37.4062 15.0938ZM36.75 20.3438H33.0842L29.1467 16.4063H36.75V20.3438ZM5.24997 16.4063H7.60329L11.5408 20.3438H5.24997V16.4063ZM13.3967 20.3438L9.45916 16.4063H14.1658L18.1033 20.3438H13.3967ZM19.9592 20.3438L16.0217 16.4063H20.7283L24.6658 20.3438H19.9592ZM26.5217 20.3438L22.5842 16.4063H27.2908L31.2283 20.3438H26.5217ZM20.0084 10.9404L15.4625 12.1584L18.247 7.33558L22.7928 6.11758L20.0084 10.9404ZM24.5857 5.6372L29.1316 4.4192L26.3471 9.24198L21.8013 10.46L24.5857 5.6372ZM13.6697 12.6387L9.12185 13.8567L11.9057 9.03395L16.4515 7.81595L13.6697 12.6387ZM35.4841 6.79352L28.1406 8.76227L30.9244 3.93751L34.4682 2.98858L35.4841 6.79352ZM10.1148 9.51564L7.33094 14.3378L5.05769 14.9468L4.03853 11.1405L10.1148 9.51564ZM35.467 39.375H6.53294C6.19278 39.3747 5.86666 39.2394 5.62613 38.9989C5.3856 38.7583 5.25032 38.4322 5.24997 38.092V21.6563H36.75V38.092C36.7496 38.4322 36.6143 38.7583 36.3738 38.9989C36.1333 39.2394 35.8072 39.3747 35.467 39.375Z" fill="black"/>
</svg>
