<svg width="35" height="35" viewBox="0 0 35 35" fill="none" xmlns="http://www.w3.org/2000/svg">
<path d="M31.7358 32.6351H3.26368C1.46405 32.6351 0 31.1709 0 29.3714V5.62867C0 3.82904 1.46412 2.36499 3.26368 2.36499H31.7358C33.5355 2.36499 34.9995 3.82911 34.9995 5.62867C34.9995 6.15101 34.576 6.57456 34.0536 6.57456C33.5312 6.57456 33.1077 6.15101 33.1077 5.62867C33.1077 4.87221 32.4923 4.25684 31.7359 4.25684H3.26368C2.50722 4.25684 1.89185 4.87227 1.89185 5.62867V29.3714C1.89185 30.1278 2.50728 30.7432 3.26368 30.7432H31.7358C32.4923 30.7432 33.1077 30.1278 33.1077 29.3714V16.6804C33.1077 16.1581 33.5312 15.7345 34.0536 15.7345C34.576 15.7345 34.9995 16.1581 34.9995 16.6804V29.3713C34.9995 31.171 33.5354 32.6351 31.7358 32.6351Z" fill="black"/>
<path d="M0.946289 5.62858V10.4057H34.054V5.62858C34.054 4.34849 33.0163 3.31079 31.7362 3.31079H3.26401C1.98405 3.31079 0.946289 4.34855 0.946289 5.62858Z" fill="#DDCB00"/>
<path d="M34.0536 11.3515H0.945889C0.423486 11.3515 0 10.928 0 10.4057V5.6287C0 3.82907 1.46412 2.36502 3.26368 2.36502H31.7358C33.5355 2.36502 34.9995 3.82914 34.9995 5.6287V10.4058C34.9995 10.9281 34.576 11.3515 34.0536 11.3515ZM1.89178 9.4597H33.1076V5.62863C33.1076 4.87217 32.4922 4.2568 31.7358 4.2568H3.26368C2.50722 4.2568 1.89185 4.87224 1.89185 5.62863L1.89178 9.4597Z" fill="black"/>
<path d="M7.65332 3.75391C8.09775 3.39122 8.75343 3.41711 9.16797 3.83105H9.16895C9.6108 4.27294 9.61044 4.98958 9.16895 5.43164V5.43262L4.43262 10.1689C4.21169 10.3898 3.92071 10.5 3.63184 10.5C3.34291 10.5 3.05188 10.3898 2.83105 10.1689C2.38902 9.72691 2.3891 9.00942 2.83105 8.56738L7.56738 3.83105L7.65332 3.75391Z" fill="#F4F4F4" stroke="black"/>
<path d="M19.5684 3.83203C20.0102 3.38996 20.727 3.38913 21.1689 3.83105L21.168 3.83203C21.6098 4.2738 21.6106 4.9897 21.1689 5.43164L16.4316 10.1689L16.4307 10.168C16.2099 10.3887 15.9204 10.5 15.6318 10.5C15.343 10.5 15.0519 10.3898 14.8311 10.1689L14.832 10.168C14.3902 9.7262 14.3894 9.0103 14.8311 8.56836L19.5684 3.83105V3.83203Z" fill="#F4F4F4" stroke="black"/>
<path d="M30.4697 3.84863C30.9343 3.3842 31.6868 3.38445 32.1514 3.84863C32.6159 4.3132 32.6158 5.06569 32.1514 5.53027L27.5312 10.1514C27.299 10.3836 26.993 10.5 26.6895 10.5C26.3857 10.5 26.0807 10.3833 25.8486 10.1514C25.3841 9.68682 25.3843 8.93433 25.8486 8.46973V8.46875L30.4697 3.84863Z" fill="#F4F4F4" stroke="black"/>
<path d="M13.8584 15.4414L23.0335 20.885L13.8584 26.3285V15.4414Z" fill="white"/>
<path d="M13.8581 27.2746C13.6966 27.2746 13.5351 27.2332 13.39 27.1506C13.0946 26.9824 12.9121 26.6685 12.9121 26.3287V15.4415C12.9121 15.1016 13.0946 14.7878 13.39 14.6196C13.6853 14.4513 14.0482 14.4545 14.3408 14.628L23.5157 20.0716C23.8029 20.2421 23.9789 20.5512 23.9789 20.8853C23.9789 21.2193 23.8029 21.5284 23.5157 21.6989L14.3408 27.1425C14.192 27.2304 14.0251 27.2746 13.8581 27.2746ZM14.804 17.1026V24.6676L21.1794 20.8851L14.804 17.1026Z" fill="black"/>
</svg>
