<svg width="42" height="42" viewBox="0 0 42 42" fill="none" xmlns="http://www.w3.org/2000/svg">
<path d="M21 37C29.8366 37 37 29.8366 37 21C37 12.1634 29.8366 5 21 5C12.1634 5 5 12.1634 5 21C5 29.8366 12.1634 37 21 37Z" fill="#2CA9BC" fill-opacity="0.5"/>
<path d="M36.75 21H5.25001M36.75 21C36.75 17.885 35.8263 14.8398 34.0957 12.2498C32.365 9.6597 29.9052 7.64098 27.0273 6.4489C24.1493 5.25682 20.9825 4.94492 17.9273 5.55264C14.8721 6.16036 12.0658 7.6604 9.86307 9.86307C7.6604 12.0658 6.16036 14.8721 5.55264 17.9273C4.94492 20.9825 5.25682 24.1493 6.4489 27.0273C7.64098 29.9052 9.6597 32.365 12.2498 34.0957C14.8398 35.8263 17.885 36.75 21 36.75M36.75 21C36.75 25.1772 35.0906 29.1832 32.1369 32.1369C29.1832 35.0906 25.1772 36.75 21 36.75M21 36.75C17.1325 36.75 14 29.75 14 21C14 12.25 17.1325 5.25001 21 5.25001C24.8675 5.25001 28 12.25 28 21C28 29.75 24.8675 36.75 21 36.75Z" stroke="black" stroke-width="3" stroke-linecap="round" stroke-linejoin="round"/>
<g clip-path="url(#clip0_533_129)">
<path d="M24.9717 21.9953C26.5551 21.0681 28.3997 20.6881 30.2207 20.9133C32.042 21.1386 33.739 21.9569 35.0488 23.2424C36.3586 24.5279 37.2093 26.2088 37.4688 28.0256C37.6918 29.5876 37.465 31.1748 36.8271 32.6067L39.376 35.1555C39.9356 35.7151 40.25 36.4744 40.25 37.2658C40.25 38.0573 39.9356 38.8166 39.376 39.3762C38.8164 39.9357 38.057 40.2502 37.2656 40.2502C36.4745 40.2501 35.7157 39.9356 35.1562 39.3762L32.6123 36.8322C31.5921 37.2904 30.4884 37.5381 29.3662 37.5598L29.3574 37.5637H29.1953C27.3601 37.5637 25.5759 36.9599 24.1182 35.8449C22.6606 34.7301 21.6105 33.1667 21.1299 31.3957C20.6493 29.6245 20.7647 27.7439 21.459 26.0451C22.1533 24.3463 23.3881 22.9229 24.9717 21.9953ZM27.4795 29.1975L27.4873 29.3674C27.5267 29.761 27.7011 30.1312 27.9834 30.4133C28.3059 30.7356 28.7433 30.9161 29.1992 30.9162L29.3887 30.926C29.7648 30.9634 30.1217 31.1112 30.4141 31.3508L30.5547 31.4778L30.6816 31.6184C30.9611 31.9594 31.1152 32.3884 31.1152 32.8332C31.1152 33.0034 31.0905 33.1707 31.0469 33.3322C31.143 33.2892 31.2386 33.2445 31.332 33.1945C32.2563 32.7006 32.9806 31.901 33.3818 30.9328C33.783 29.9646 33.8363 28.887 33.5322 27.884C33.2281 26.8813 32.5859 26.0152 31.7148 25.4328C30.8435 24.8504 29.7969 24.5881 28.7539 24.6906C27.7109 24.7932 26.7354 25.2535 25.9941 25.9944L25.9922 25.9973C25.6035 26.3835 25.2894 26.8374 25.0645 27.3362C25.2205 27.2932 25.3823 27.2683 25.5469 27.2658H25.5479C25.7995 27.2621 26.0495 27.3081 26.2832 27.4016C26.4587 27.4718 26.6228 27.5677 26.7695 27.6858L26.9102 27.8117L27.0381 27.9504C27.1585 28.0949 27.2569 28.2568 27.3301 28.4309C27.4277 28.6631 27.4789 28.9124 27.4795 29.1643V29.1975Z" fill="white" stroke="black" stroke-width="2"/>
</g>
<defs>
<clipPath id="clip0_533_129">
<rect width="22" height="22" fill="white" transform="translate(20 20)"/>
</clipPath>
</defs>
</svg>
