<svg width="38" height="38" viewBox="0 0 38 38" fill="none" xmlns="http://www.w3.org/2000/svg">
<g clip-path="url(#clip0_182_140)">
<path d="M34.166 10.2666C34.9528 10.0419 35.7727 10.4978 35.9971 11.2842C36.3284 12.4451 36.5028 13.6474 36.5156 14.8574C36.5546 18.5192 35.1486 21.9646 32.5596 24.5537C29.926 27.1872 26.4653 28.5039 23.0078 28.5039C19.5496 28.5039 16.0901 27.1876 13.4561 24.5537C12.878 23.9754 12.878 23.0382 13.4561 22.46C14.0343 21.8818 14.9725 21.8819 15.5508 22.46C19.6626 26.5716 26.354 26.5718 30.4658 22.46C32.4887 20.4372 33.5843 17.7499 33.5537 14.8887C33.5437 13.9425 33.4072 13.0033 33.1484 12.0967C32.924 11.3104 33.3798 10.4912 34.166 10.2666ZM13.4561 5.4502C18.7233 0.183183 27.2923 0.183304 32.5596 5.4502C33.1379 6.02849 33.1378 6.9666 32.5596 7.54492C31.9813 8.12269 31.0441 8.12264 30.4658 7.54492C26.3539 3.433 19.6626 3.43305 15.5508 7.54492C12.8442 10.2515 11.8153 14.2227 12.8672 17.9082C13.0774 18.6454 12.6903 19.4117 11.9932 19.6895L11.8496 19.7383C11.7147 19.7768 11.5775 19.7949 11.4424 19.7949C10.7983 19.7948 10.2054 19.372 10.0195 18.7207C8.67284 14.0022 9.98918 8.91721 13.4561 5.4502Z" fill="#CCCCCC" stroke="black"/>
<path d="M17.3405 20.6595C14.2198 17.5388 14.2198 12.4612 17.3405 9.34051C20.4612 6.21983 25.5388 6.21983 28.6595 9.34051C31.7802 12.4612 31.7802 17.5388 28.6595 20.6595C25.5388 23.7802 20.4612 23.7801 17.3405 20.6595Z" fill="#9DD7FF" fill-opacity="0.38"/>
<path d="M23 6.5C25.2721 6.5 27.4092 7.38384 29.0127 8.9873C30.6162 10.5908 31.5 12.7278 31.5 15C31.5 17.2722 30.6161 19.4091 29.0127 21.0127C27.4092 22.6161 25.2721 23.5 23 23.5C20.7278 23.5 18.5908 22.6162 16.9873 21.0127C15.3838 19.4092 14.5 17.2722 14.5 15C14.5 12.7278 15.3839 10.5909 16.9873 8.9873C18.5908 7.38384 20.7278 6.5 23 6.5ZM23 9.25586C21.4611 9.25586 20.0194 9.85174 18.9355 10.9355C17.8517 12.0194 17.2559 13.4612 17.2559 15C17.2559 16.5388 17.8518 17.9807 18.9355 19.0645C20.0194 20.1482 21.4611 20.7441 23 20.7441C24.5388 20.7441 25.9806 20.1483 27.0645 19.0645C28.1483 17.9807 28.7441 16.5388 28.7441 15C28.7441 13.4611 28.1483 12.0194 27.0645 10.9355C25.9806 9.85168 24.5388 9.25586 23 9.25586Z" fill="#808080" stroke="black"/>
<path d="M12.5146 23.3887C13.0929 22.8108 14.0302 22.8106 14.6084 23.3887C15.1867 23.9669 15.1868 24.905 14.6084 25.4834L12.2324 27.8594C11.9434 28.1485 11.5628 28.293 11.1846 28.293C10.8063 28.2929 10.4266 28.148 10.1377 27.8594C9.55964 27.2812 9.55966 26.344 10.1377 25.7656L12.5137 23.3887H12.5146Z" fill="#CCCCCC" stroke="black"/>
<path d="M9.62305 23.9987C10.0158 23.9987 10.3933 24.1546 10.6709 24.4323L13.5645 27.3268C14.1427 27.9051 14.1426 28.8422 13.5645 29.4205L5.87207 37.1129V37.1139C5.58322 37.4024 5.20328 37.5465 4.8252 37.5465C4.44683 37.5465 4.06727 37.4017 3.77832 37.1129L0.883789 34.2194C0.606249 33.9417 0.450195 33.5643 0.450195 33.1715C0.450316 32.7788 0.606455 32.4022 0.883789 32.1246L8.57617 24.4323C8.85372 24.1547 9.23044 23.9988 9.62305 23.9987ZM4.02539 33.1715L4.8252 33.9713L10.4229 28.3737L9.62305 27.5739L4.02539 33.1715Z" fill="#764A15" stroke="black"/>
</g>
<defs>
<clipPath id="clip0_182_140">
<rect width="38" height="38" fill="white"/>
</clipPath>
</defs>
</svg>
