<svg width="42" height="42" viewBox="0 0 42 42" fill="none" xmlns="http://www.w3.org/2000/svg">
<path d="M21 4C30.3888 4 38 11.6112 38 21C38 30.3888 30.3888 38 21 38C11.6112 38 4 30.3888 4 21C4 11.6112 11.6112 4 21 4Z" fill="#2CA9BC" fill-opacity="0.5" stroke="black" stroke-width="2"/>
<path d="M36.75 21H5.25001M36.75 21C36.75 17.885 35.8263 14.8398 34.0957 12.2498C32.365 9.6597 29.9052 7.64098 27.0273 6.4489C24.1493 5.25682 20.9825 4.94492 17.9273 5.55264C14.8721 6.16036 12.0658 7.6604 9.86307 9.86307C7.6604 12.0658 6.16036 14.8721 5.55264 17.9273C4.94492 20.9825 5.25682 24.1493 6.4489 27.0273C7.64098 29.9052 9.6597 32.365 12.2498 34.0957C14.8398 35.8263 17.885 36.75 21 36.75M36.75 21C36.75 25.1772 35.0906 29.1832 32.1369 32.1369C29.1832 35.0906 25.1772 36.75 21 36.75M21 36.75C17.1325 36.75 14 29.75 14 21C14 12.25 17.1325 5.25001 21 5.25001C24.8675 5.25001 28 12.25 28 21C28 29.75 24.8675 36.75 21 36.75Z" stroke="black" stroke-linecap="round" stroke-linejoin="round"/>
<path d="M25.2236 22.427C26.7125 21.5549 28.4478 21.1975 30.1602 21.4094C31.8724 21.6213 33.4669 22.3913 34.6982 23.5998C35.9297 24.8084 36.7298 26.3888 36.9736 28.0969C37.1994 29.6785 36.9358 31.2877 36.2256 32.7121L39.0225 35.509C39.4883 35.9748 39.75 36.607 39.75 37.2658C39.75 37.9247 39.4883 38.5568 39.0225 39.0227C38.5566 39.4884 37.9244 39.7502 37.2656 39.7502C36.6071 39.7501 35.9755 39.4883 35.5098 39.0227L32.7158 36.2287C31.6499 36.7646 30.4749 37.0504 29.2793 37.0617L29.2764 37.0637H29.1953C27.47 37.0637 25.7924 36.4966 24.4219 35.4485C23.0515 34.4003 22.0642 32.9299 21.6123 31.2649C21.1605 29.5997 21.2692 27.8317 21.9219 26.2346C22.5747 24.6375 23.7349 23.299 25.2236 22.427ZM26.9795 29.1985L26.9902 29.4172C27.0411 29.9252 27.2657 30.4028 27.6299 30.7668C28.0461 31.1828 28.6108 31.416 29.1992 31.4162C29.5747 31.4163 29.9346 31.5659 30.2002 31.8313C30.4658 32.0969 30.6152 32.4575 30.6152 32.8332C30.6152 33.2089 30.4659 33.5695 30.2002 33.8352C30.0039 34.0314 29.7559 34.1631 29.4883 34.219C30.2107 34.1771 30.9213 33.9808 31.5684 33.635C32.5945 33.0865 33.3983 32.1991 33.8438 31.1242C34.2892 30.0492 34.3483 28.8531 34.0107 27.7395C33.6731 26.6258 32.9597 25.6635 31.9922 25.0168C31.0247 24.3702 29.8632 24.0788 28.7051 24.1926C27.5469 24.3064 26.4637 24.8181 25.6406 25.6408L25.6396 25.6418C25.171 26.1073 24.7997 26.6615 24.5469 27.2717C24.3307 27.7935 24.2045 28.3478 24.1738 28.9104C24.2286 28.6416 24.3606 28.3922 24.5557 28.1936C24.8194 27.9251 25.1784 27.7715 25.5547 27.7658C25.7405 27.763 25.9252 27.7974 26.0977 27.8664C26.2701 27.9355 26.4271 28.038 26.5596 28.1682C26.6921 28.2984 26.7971 28.4539 26.8691 28.6252C26.941 28.7963 26.9791 28.9797 26.9795 29.1653V29.1985Z" fill="white" stroke="black"/>
</svg>
