<svg width="800" height="800" viewBox="0 0 800 800" fill="none" xmlns="http://www.w3.org/2000/svg">
<path d="M688.889 488.889H244.444L200 222.222H733.333L688.889 488.889Z" fill="#CCD6DD"/>
<path d="M66.6671 49.4443H172.011C172.334 49.5817 172.73 49.7165 173.19 49.8027L173.569 49.874L173.956 49.8867C177.844 50.0074 181.572 51.4615 184.516 54.0049C187.367 56.4689 189.315 59.8098 190.055 63.498L190.122 63.8555L213.225 200.831L213.928 205H733.349C735.849 204.992 738.322 205.531 740.592 206.579C742.862 207.627 744.876 209.158 746.492 211.066C748.109 212.974 749.288 215.213 749.948 217.625C750.609 220.037 750.734 222.564 750.316 225.029L750.314 225.037L750.313 225.045L705.868 491.711L705.867 491.713C705.199 495.734 703.126 499.388 700.017 502.024C696.907 504.661 692.963 506.109 688.887 506.111H245.095L244.556 506.044L244.068 506.113C217.113 506.323 195 529.039 195 555.911C195 582.96 217.015 605 244.089 605H732.978C737.545 605 741.926 606.814 745.155 610.044C748.385 613.274 750.2 617.654 750.2 622.222C750.2 626.789 748.385 631.171 745.155 634.4C741.926 637.63 737.545 639.444 732.978 639.444H244.095C221.947 639.417 200.715 630.606 185.055 614.945C169.396 599.286 160.585 578.056 160.556 555.911C160.556 518.226 185.826 486.607 220.305 476.255L224.53 474.986L223.797 470.635L159.286 88.0576L158.583 83.8887H66.6671C62.0995 83.8887 57.7182 82.0745 54.4884 78.8447C51.2587 75.615 49.4446 71.2344 49.4445 66.667C49.4445 62.0994 51.2586 57.7181 54.4884 54.4883C57.7182 51.2585 62.0995 49.4443 66.6671 49.4443ZM250.935 423.043L258.334 467.487L259.03 471.667H339.818L339.043 465.99L332.977 421.546L332.386 417.222H249.965L250.935 423.043ZM367.935 422.898L374.001 467.343L374.592 471.667H449.444V417.222H367.16L367.935 422.898ZM483.889 471.667H558.741L559.332 467.343L565.399 422.898L566.173 417.222H483.889V471.667ZM600.379 421.546L594.313 465.99L593.538 471.667H674.325L675.021 467.487L682.421 423.043L683.39 417.222H600.97L600.379 421.546ZM236.135 334.154L243.534 378.599L244.231 382.777H327.685L326.909 377.102L320.843 332.657L320.253 328.333H235.165L236.135 334.154ZM355.779 334.01L361.846 378.454L362.436 382.777H449.444V328.333H355.004L355.779 334.01ZM483.889 382.777H570.898L571.487 378.454L577.554 334.01L578.329 328.333H483.889V382.777ZM612.513 332.657L606.446 377.102L605.671 382.777H689.127L689.821 378.597L697.199 334.152L698.165 328.333H613.103L612.513 332.657ZM221.29 245.266L228.691 289.71L229.386 293.889H315.507L314.732 288.213L308.665 243.769L308.075 239.444H220.32L221.29 245.266ZM343.624 245.12L349.691 289.565L350.28 293.889H449.444V239.444H342.849L343.624 245.12ZM483.889 293.889H583.053L583.643 289.565L589.709 245.12L590.484 239.444H483.889V293.889ZM624.668 243.769L618.602 288.213L617.826 293.889H703.925L704.621 289.71L712.021 245.266L712.99 239.444H625.258L624.668 243.769Z" fill="#66757F" stroke="black" stroke-width="10"/>
<path d="M311.111 755.555C347.93 755.555 377.778 725.708 377.778 688.889C377.778 652.07 347.93 622.222 311.111 622.222C274.292 622.222 244.444 652.07 244.444 688.889C244.444 725.708 274.292 755.555 311.111 755.555Z" fill="#E1E8ED"/>
<path d="M311.111 777.778C262.089 777.778 222.222 737.911 222.222 688.889C222.222 639.867 262.089 600 311.111 600C360.133 600 400 639.867 400 688.889C400 737.911 360.133 777.778 311.111 777.778ZM311.111 644.444C286.6 644.444 266.667 664.378 266.667 688.889C266.667 713.4 286.6 733.333 311.111 733.333C335.622 733.333 355.556 713.4 355.556 688.889C355.556 664.378 335.622 644.444 311.111 644.444Z" fill="#292F33"/>
<path d="M622.222 755.555C659.041 755.555 688.889 725.708 688.889 688.889C688.889 652.07 659.041 622.222 622.222 622.222C585.403 622.222 555.556 652.07 555.556 688.889C555.556 725.708 585.403 755.555 622.222 755.555Z" fill="#E1E8ED"/>
<path d="M622.222 777.778C573.2 777.778 533.333 737.911 533.333 688.889C533.333 639.867 573.2 600 622.222 600C671.244 600 711.111 639.867 711.111 688.889C711.111 737.911 671.244 777.778 622.222 777.778ZM622.222 644.444C597.711 644.444 577.778 664.378 577.778 688.889C577.778 713.4 597.711 733.333 622.222 733.333C646.733 733.333 666.667 713.4 666.667 688.889C666.667 664.378 646.733 644.444 622.222 644.444Z" fill="#292F33"/>
</svg>
