<svg width="485" height="485" viewBox="0 0 485 485" fill="none" xmlns="http://www.w3.org/2000/svg">
<g clip-path="url(#clip0_633_30)">
<path d="M182.198 37.4482H142.267V97.3442H182.198V37.4482Z" fill="#E7ECED"/>
<path d="M341.92 237.101H301.989V296.997H341.92V237.101Z" fill="#E7ECED"/>
<path d="M232.111 77.3792V157.24H92.353V37.4482H142.267V97.3442H182.197V37.4482H232.111V77.3792Z" fill="#C69C6D"/>
<path d="M391.833 237.101V356.893H252.076V277.032V237.101H301.989V296.997H341.919V237.101H391.833Z" fill="#C69C6D"/>
<path d="M381.851 77.3789H232.111V157.24H381.851V77.3789Z" fill="#A67C52"/>
<path d="M252.076 277.032H102.336V356.893H252.076V277.032Z" fill="#A67C52"/>
<path d="M436.755 157.24V187.188H42.44V157.24H92.353H232.111H381.851H436.755Z" fill="#E7ECED"/>
<path d="M436.755 356.893V386.841H42.44V356.893H102.336H252.076H391.833H436.755Z" fill="#E7ECED"/>
<path d="M42.44 386.841V476.685H7.50101V7.5H42.44V157.24V187.188V356.893V386.841Z" fill="#AFB6BB"/>
<path d="M476.685 7.5V476.685H436.755V386.841V356.893V187.188V157.24V7.5H476.685Z" fill="#AFB6BB"/>
<path d="M429.255 0V149.74H389.351V69.878H239.611V29.948H84.854V149.74H49.94V0H0.00100708V484.185H49.939V394.341H429.254V484.185H484.185V0H429.255ZM239.611 84.878H374.351V149.739H239.611V84.878ZM149.767 44.948H174.698V89.844H149.767V44.948ZM99.854 44.948H134.767V104.844H189.698V44.948H224.611V149.74H99.854V44.948ZM429.255 164.74V179.688H49.94V164.74H429.255ZM244.576 229.601V269.532H94.836V349.393H49.94V194.688H429.255V349.393H399.333V229.601H244.576ZM259.576 244.601H294.489V304.497H349.42V244.601H384.333V349.393H259.576V244.601ZM309.49 289.497V244.601H334.421V289.497H309.49ZM244.576 284.532V349.393H109.836V284.532H244.576ZM34.94 469.185H15.001V15H34.939L34.94 469.185ZM49.94 379.341V364.393H429.255V379.341H49.94ZM469.185 469.185H444.254V15H469.185V469.185Z" fill="black"/>
<path d="M356.893 109.809H326.945V124.809H356.893V109.809Z" fill="black"/>
<path d="M316.962 109.809H267.049V124.809H316.962V109.809Z" fill="black"/>
<path d="M227.119 309.462H197.171V324.462H227.119V309.462Z" fill="black"/>
<path d="M187.188 309.462H137.275V324.462H187.188V309.462Z" fill="black"/>
</g>
<defs>
<clipPath id="clip0_633_30">
<rect width="484.185" height="484.185" fill="white"/>
</clipPath>
</defs>
</svg>
