<svg width="15" height="15" viewBox="0 0 15 15" fill="none" xmlns="http://www.w3.org/2000/svg">
<g opacity="0.2">
<path d="M7.18793 1.51637L2.46209 2.46154L1.51692 7.18738C1.50178 7.26306 1.50556 7.34129 1.52793 7.41515C1.55029 7.48901 1.59054 7.5562 1.64511 7.61077L7.76539 13.731C7.80891 13.7746 7.86059 13.8091 7.91746 13.8327C7.97433 13.8562 8.03528 13.8683 8.09684 13.8683C8.1584 13.8683 8.21935 13.8562 8.27623 13.8327C8.3331 13.8091 8.38477 13.7746 8.4283 13.731L13.7316 8.42775C13.7751 8.38422 13.8097 8.33255 13.8332 8.27568C13.8568 8.2188 13.8689 8.15785 13.8689 8.09629C13.8689 8.03474 13.8568 7.97378 13.8332 7.91691C13.8097 7.86004 13.7751 7.80836 13.7316 7.76484L7.61132 1.64456C7.55675 1.58999 7.48956 1.54974 7.4157 1.52738C7.34184 1.50501 7.2636 1.50123 7.18793 1.51637Z" fill="#EBEBEB"/>
</g>
<path d="M14.0632 7.43333L7.94299 1.31309C7.83397 1.20377 7.69959 1.12314 7.55183 1.0784C7.40407 1.03366 7.24753 1.0262 7.09618 1.05668L2.37029 2.00185C2.27955 2.02002 2.19623 2.06463 2.1308 2.13006C2.06536 2.19549 2.02076 2.27882 2.00259 2.36955L1.05742 7.09545C1.02699 7.24679 1.03448 7.40332 1.07922 7.55107C1.12396 7.69882 1.20455 7.8332 1.31383 7.94225L7.43401 14.0624C7.52106 14.1495 7.62442 14.2186 7.73817 14.2657C7.85191 14.3128 7.97383 14.3371 8.09696 14.3371C8.22008 14.3371 8.342 14.3129 8.45575 14.2657C8.56951 14.2186 8.67286 14.1496 8.75992 14.0625L14.0632 8.75924C14.1502 8.67219 14.2193 8.56884 14.2664 8.45509C14.3136 8.34134 14.3378 8.21942 14.3378 8.0963C14.3378 7.97318 14.3136 7.85126 14.2665 7.7375C14.2194 7.62375 14.1503 7.52039 14.0632 7.43333ZM8.09702 13.3995L1.97672 7.27935L2.86061 2.85987L7.28009 1.97599L7.28003 1.97604L13.4003 8.09623L8.09702 13.3995ZM5.62573 4.92187C5.62573 5.06093 5.58449 5.19688 5.50723 5.3125C5.42997 5.42813 5.32016 5.51825 5.19168 5.57147C5.0632 5.62469 4.92183 5.63861 4.78543 5.61148C4.64904 5.58435 4.52375 5.51739 4.42542 5.41905C4.32709 5.32072 4.26012 5.19543 4.23299 5.05904C4.20586 4.92265 4.21978 4.78127 4.273 4.65279C4.32622 4.52432 4.41634 4.4145 4.53197 4.33724C4.6476 4.25998 4.78354 4.21874 4.92261 4.21874C5.10902 4.21895 5.28775 4.29309 5.41957 4.42491C5.55138 4.55673 5.62553 4.73545 5.62573 4.92187Z" fill="white"/>
</svg>
