<svg width="18" height="18" viewBox="0 0 18 18" fill="none" xmlns="http://www.w3.org/2000/svg">
<mask id="path-1-inside-1_113_62" fill="white">
<path d="M0 0H17.0194V17.9565H0V0Z"/>
</mask>
<path d="M0 0V-6H-2V0H0ZM17.0194 0H19.0194V-6H17.0194V0ZM17.0194 17.9565V19.9565H19.0194V17.9565H17.0194ZM0 17.9565H-2V19.9565H0V17.9565ZM0 0V6H17.0194V0V-6H0V0ZM17.0194 0H15.0194V17.9565H17.0194H19.0194V0H17.0194ZM17.0194 17.9565V15.9565H0V17.9565V19.9565H17.0194V17.9565ZM0 17.9565H2V0H0H-2V17.9565H0Z" fill="black" mask="url(#path-1-inside-1_113_62)"/>
</svg>
