<?xml version="1.0" standalone="no"?>
<!DOCTYPE svg PUBLIC "-//W3C//DTD SVG 20010904//EN"
 "http://www.w3.org/TR/2001/REC-SVG-20010904/DTD/svg10.dtd">
<svg version="1.0" xmlns="http://www.w3.org/2000/svg"
 width="1200.000000pt" height="1200.000000pt" viewBox="0 0 1200.000000 1200.000000"
 preserveAspectRatio="xMidYMid meet">

<g transform="translate(0.000000,1200.000000) scale(0.100000,-0.100000)"
fill="#000000" stroke="none">
<path d="M5712 11989 c-2494 -122 -4647 -1768 -5416 -4137 -351 -1083 -387
-2253 -101 -3359 433 -1672 1580 -3087 3130 -3860 1402 -700 3035 -821 4528
-336 1943 630 3441 2221 3952 4196 255 986 255 2028 0 3014 -511 1976 -2009
3566 -3952 4196 -692 225 -1418 322 -2141 286z m644 -1199 c503 -40 983 -151
1431 -331 189 -75 506 -234 683 -340 676 -407 1237 -968 1643 -1641 371 -614
587 -1264 669 -2013 8 -76 13 -248 13 -465 0 -351 -6 -451 -46 -720 -107 -724
-406 -1465 -827 -2051 l-76 -107 -276 268 c-151 148 -363 357 -470 464 l-195
196 -1675 0 -1675 0 -400 400 -400 400 173 172 172 173 333 -333 332 -332 675
0 675 0 -670 670 -670 670 170 170 c93 93 174 170 180 170 5 0 308 -298 672
-662 l663 -663 0 675 0 675 -330 330 -330 330 167 167 168 168 -215 218 c-118
119 -492 495 -830 835 l-615 617 -1647 0 c-907 0 -1648 3 -1648 8 0 4 39 54
86 112 263 323 540 588 879 841 716 533 1575 855 2480 928 148 12 583 13 731
1z m-2276 -2840 l995 0 355 -355 355 -355 -515 -515 -515 -515 -352 352 -353
353 0 272 0 273 -480 0 -480 0 0 -468 0 -467 830 -830 c457 -456 830 -834 830
-840 0 -6 -151 -161 -335 -345 l-335 -335 537 -537 538 -538 2332 0 c1283 0
2333 -3 2333 -7 0 -5 -39 -55 -86 -113 -623 -765 -1457 -1321 -2389 -1591
-278 -81 -564 -136 -880 -171 -161 -18 -769 -18 -930 0 -629 69 -1153 221
-1690 492 -1145 577 -2008 1577 -2409 2793 -219 663 -289 1397 -200 2107 95
759 387 1514 829 2143 l89 128 466 -466 465 -465 995 0z"/>
<path d="M7490 7575 l-335 -335 398 -398 397 -397 0 -958 0 -957 475 0 475 0
0 1158 0 1157 -533 533 c-292 292 -534 532 -537 532 -3 0 -156 -151 -340 -335z"/>
</g>
</svg>
